{
.appVersion = "113";
DisplayStrings = (

glyphs = (
{
glyphname = A;
lastChange = "2021-04-25 10:01:48 +0000";
layers = (
{
layerId = "A833981A-68C5-4528-81CD-92C717829696";
paths = (
{
closed = 1;
nodes = (
"60 0 LINE",
"320 0 LINE",
"610 1400 LINE",
"350 1400 LINE"
);
},
{
closed = 1;
nodes = (
"204 348 LINE",
"206 156 LINE",
"758 156 LINE",
"756 348 LINE"
);
},
{
closed = 1;
nodes = (
"350 1400 LINE",
"640 0 LINE",
"900 0 LINE",
"610 1400 LINE"
);
}
);
width = 960;
}
);
unicode = 0041;
},
{
glyphname = AE;
lastChange = "2021-04-19 18:15:31 +0000";
layers = (
{
layerId = "A833981A-68C5-4528-81CD-92C717829696";
paths = (
{
closed = 1;
nodes = (
"42 0 LINE",
"302 0 LINE",
"622 1400 LINE",
"332 1400 LINE"
);
},
{
closed = 1;
nodes = (
"186 558 LINE",
"186 298 LINE",
"738 298 LINE",
"738 558 LINE"
);
},
{
closed = 1;
nodes = (
"332 1400 LINE",
"622 0 LINE",
"882 0 LINE",
"622 1400 LINE"
);
},
{
closed = 1;
nodes = (
"622 0 LINE",
"882 0 LINE",
"882 1400 LINE",
"622 1400 LINE"
);
},
{
closed = 1;
nodes = (
"670 260 LINE",
"670 0 LINE",
"1462 0 LINE",
"1462 260 LINE"
);
},
{
closed = 1;
nodes = (
"672 1400 LINE",
"672 1140 LINE",
"1462 1140 LINE",
"1462 1400 LINE"
);
},
{
closed = 0;
nodes = (
"882 700 LINE"
);
},
{
closed = 1;
nodes = (
"672 830 LINE",
"672 570 LINE",
"1462 570 LINE",
"1462 830 LINE"
);
}
);
width = 1700;
}
);
unicode = 00C6;
},
{
glyphname = B;
lastChange = "2021-04-25 10:01:55 +0000";
layers = (
{
layerId = "A833981A-68C5-4528-81CD-92C717829696";
paths = (
{
closed = 1;
nodes = (
"60 0 LINE",
"320 0 LINE",
"320 1400 LINE",
"60 1400 LINE"
);
},
{
closed = 1;
nodes = (
"570 560 LINE",
"570 820 LINE",
"198 820 LINE",
"198 560 LINE"
);
},
{
closed = 1;
nodes = (
"570 1140 LINE",
"570 1400 LINE",
"198 1400 LINE",
"198 1140 LINE"
);
},
{
closed = 1;
nodes = (
"570 560 LINE",
"1012 560 OFFCURVE",
"1010 1400 OFFCURVE",
"570 1400 CURVE",
"570 1140 LINE",
"700 1140 OFFCURVE",
"700 820 OFFCURVE",
"570 820 CURVE"
);
},
{
closed = 1;
nodes = (
"612 0 LINE",
"1050 0 OFFCURVE",
"1048 820 OFFCURVE",
"612 820 CURVE",
"570 560 LINE",
"700 560 OFFCURVE",
"700 258 OFFCURVE",
"570 258 CURVE"
);
},
{
closed = 1;
nodes = (
"612 0 LINE",
"570 258 LINE",
"262 260 LINE",
"262 0 LINE"
);
}
);
width = 1000;
}
);
unicode = 0042;
},
{
glyphname = C;
lastChange = "2021-04-20 22:40:38 +0000";
layers = (
{
layerId = "A833981A-68C5-4528-81CD-92C717829696";
paths = (
{
closed = 1;
nodes = (
"873 0 OFFCURVE",
"1043 174 OFFCURVE",
"1119 402 CURVE",
"865 544 LINE",
"833 388 OFFCURVE",
"749 260 OFFCURVE",
"613 260 CURVE SMOOTH",
"255 260 OFFCURVE",
"255 1142 OFFCURVE",
"613 1140 CURVE SMOOTH",
"735 1140 OFFCURVE",
"815 1038 OFFCURVE",
"853 904 CURVE",
"1101 1044 LINE",
"1019 1248 OFFCURVE",
"855 1400 OFFCURVE",
"613 1400 CURVE SMOOTH",
"-123 1400 OFFCURVE",
"-125 0 OFFCURVE",
"613 0 CURVE SMOOTH"
);
}
);
width = 1179;
}
);
unicode = 0043;
},
{
glyphname = Ccedilla;
lastChange = "2021-04-19 20:40:44 +0000";
layers = (
{
layerId = "A833981A-68C5-4528-81CD-92C717829696";
paths = (
{
closed = 1;
nodes = (
"461 -64 OFFCURVE",
"389 -180 OFFCURVE",
"233 -180 CURVE",
"429 -316 LINE",
"653 -318 OFFCURVE",
"737 -66 OFFCURVE",
"737 22 CURVE",
"461 22 LINE"
);
},
{
closed = 1;
nodes = (
"873 0 OFFCURVE",
"1043 174 OFFCURVE",
"1119 402 CURVE",
"865 544 LINE",
"833 388 OFFCURVE",
"749 262 OFFCURVE",
"613 262 CURVE SMOOTH",
"255 262 OFFCURVE",
"255 1140 OFFCURVE",
"613 1138 CURVE SMOOTH",
"735 1138 OFFCURVE",
"815 1038 OFFCURVE",
"853 904 CURVE",
"1101 1044 LINE",
"1019 1248 OFFCURVE",
"855 1400 OFFCURVE",
"613 1400 CURVE SMOOTH",
"-123 1400 OFFCURVE",
"-125 0 OFFCURVE",
"613 0 CURVE SMOOTH"
);
}
);
width = 1179;
}
);
unicode = 00C7;
},
{
glyphname = D;
lastChange = "2021-04-25 10:02:00 +0000";
layers = (
{
layerId = "A833981A-68C5-4528-81CD-92C717829696";
paths = (
{
closed = 1;
nodes = (
"60 0 LINE",
"320 0 LINE",
"320 1400 LINE",
"60 1400 LINE"
);
},
{
closed = 1;
nodes = (
"108 260 LINE",
"108 0 LINE",
"512 0 LINE",
"512 260 LINE"
);
},
{
closed = 1;
nodes = (
"108 1400 LINE",
"108 1140 LINE",
"512 1140 LINE",
"512 1400 LINE"
);
},
{
closed = 0;
nodes = (
"512 0 LINE"
);
},
{
closed = 1;
nodes = (
"512 0 LINE",
"1250 0 OFFCURVE",
"1248 1400 OFFCURVE",
"512 1400 CURVE",
"512 1140 LINE",
"870 1142 OFFCURVE",
"870 260 OFFCURVE",
"512 260 CURVE"
);
}
);
width = 1125;
}
);
unicode = 0044;
},
{
glyphname = Eth;
lastChange = "2021-04-19 18:15:38 +0000";
layers = (
{
layerId = "A833981A-68C5-4528-81CD-92C717829696";
paths = (
{
closed = 1;
nodes = (
"102 0 LINE",
"362 0 LINE",
"362 1400 LINE",
"102 1400 LINE"
);
},
{
closed = 1;
nodes = (
"150 262 LINE",
"150 0 LINE",
"554 0 LINE",
"554 262 LINE"
);
},
{
closed = 1;
nodes = (
"150 1400 LINE",
"150 1138 LINE",
"554 1138 LINE",
"554 1400 LINE"
);
},
{
closed = 0;
nodes = (
"554 0 LINE"
);
},
{
closed = 1;
nodes = (
"554 0 LINE",
"1292 0 OFFCURVE",
"1290 1400 OFFCURVE",
"554 1400 CURVE",
"554 1138 LINE",
"912 1140 OFFCURVE",
"912 262 OFFCURVE",
"554 262 CURVE"
);
},
{
closed = 1;
nodes = (
"42 530 LINE",
"568 530 LINE",
"568 830 LINE",
"42 830 LINE"
);
}
);
width = 1200;
}
);
unicode = 00D0;
},
{
glyphname = E;
lastChange = "2021-04-21 20:32:48 +0000";
layers = (
{
layerId = "A833981A-68C5-4528-81CD-92C717829696";
paths = (
{
closed = 1;
nodes = (
"60 0 LINE",
"320 0 LINE",
"320 1400 LINE",
"60 1400 LINE"
);
},
{
closed = 1;
nodes = (
"108 260 LINE",
"108 0 LINE",
"900 0 LINE",
"900 260 LINE"
);
},
{
closed = 1;
nodes = (
"110 1400 LINE",
"110 1140 LINE",
"900 1140 LINE",
"900 1400 LINE"
);
},
{
closed = 0;
nodes = (
"320 700 LINE"
);
},
{
closed = 1;
nodes = (
"110 830 LINE",
"110 570 LINE",
"900 570 LINE",
"900 830 LINE"
);
}
);
width = 960;
}
);
unicode = 0045;
},
{
glyphname = F;
lastChange = "2021-04-25 10:02:14 +0000";
layers = (
{
layerId = "A833981A-68C5-4528-81CD-92C717829696";
paths = (
{
closed = 1;
nodes = (
"60 0 LINE",
"320 0 LINE",
"320 1400 LINE",
"60 1400 LINE"
);
},
{
closed = 1;
nodes = (
"110 1400 LINE",
"110 1140 LINE",
"900 1140 LINE",
"900 1400 LINE"
);
},
{
closed = 0;
nodes = (
"320 700 LINE"
);
},
{
closed = 1;
nodes = (
"110 830 LINE",
"110 570 LINE",
"900 570 LINE",
"900 830 LINE"
);
}
);
width = 960;
}
);
unicode = 0046;
},
{
glyphname = G;
lastChange = "2021-04-20 18:34:43 +0000";
layers = (
{
layerId = "A833981A-68C5-4528-81CD-92C717829696";
paths = (
{
closed = 1;
nodes = (
"1119 804 LINE",
"859 804 LINE",
"865 544 LINE",
"1119 402 LINE"
);
},
{
closed = 1;
nodes = (
"1035 544 LINE",
"1035 804 LINE",
"541 804 LINE",
"541 544 LINE"
);
},
{
closed = 1;
nodes = (
"873 0 OFFCURVE",
"1043 176 OFFCURVE",
"1119 402 CURVE",
"865 544 LINE",
"833 388 OFFCURVE",
"749 260 OFFCURVE",
"613 260 CURVE SMOOTH",
"255 260 OFFCURVE",
"255 1142 OFFCURVE",
"613 1140 CURVE SMOOTH",
"735 1140 OFFCURVE",
"815 1038 OFFCURVE",
"853 904 CURVE",
"1101 1044 LINE",
"1019 1248 OFFCURVE",
"855 1400 OFFCURVE",
"613 1400 CURVE SMOOTH",
"-123 1400 OFFCURVE",
"-125 0 OFFCURVE",
"613 0 CURVE SMOOTH"
);
}
);
width = 1179;
}
);
unicode = 0047;
},
{
glyphname = H;
lastChange = "2021-04-25 10:03:06 +0000";
layers = (
{
layerId = "A833981A-68C5-4528-81CD-92C717829696";
paths = (
{
closed = 1;
nodes = (
"60 0 LINE",
"320 0 LINE",
"320 1400 LINE",
"60 1400 LINE"
);
},
{
closed = 1;
nodes = (
"640 0 LINE",
"900 0 LINE",
"900 1400 LINE",
"640 1400 LINE"
);
},
{
closed = 1;
nodes = (
"64 740 LINE",
"894 740 LINE",
"894 1000 LINE",
"64 1000 LINE"
);
}
);
width = 960;
}
);
unicode = 0048;
},
{
glyphname = Hbar;
lastChange = "2021-04-21 21:39:41 +0000";
layers = (
{
components = (
{
name = H;
transform = "{1, 0, 0, 1, 66, 0}";
}
);
layerId = "A833981A-68C5-4528-81CD-92C717829696";
paths = (
{
closed = 1;
nodes = (
"60 347 LINE",
"1036 347 LINE",
"1036 563 LINE",
"60 563 LINE"
);
}
);
width = 1096;
}
);
unicode = 0126;
},
{
glyphname = I;
lastChange = "2021-04-20 22:46:35 +0000";
layers = (
{
layerId = "A833981A-68C5-4528-81CD-92C717829696";
paths = (
{
closed = 1;
nodes = (
"60 0 LINE",
"320 0 LINE",
"320 1400 LINE",
"60 1400 LINE"
);
}
);
width = 380;
}
);
unicode = 0049;
},
{
glyphname = J;
lastChange = "2021-04-19 20:41:36 +0000";
layers = (
{
layerId = "A833981A-68C5-4528-81CD-92C717829696";
paths = (
{
closed = 1;
nodes = (
"410 0 OFFCURVE",
"760 74 OFFCURVE",
"760 442 CURVE",
"500 442 LINE",
"500 262 OFFCURVE",
"280 260 OFFCURVE",
"60 260 CURVE",
"60 0 LINE"
);
},
{
closed = 1;
nodes = (
"760 442 LINE",
"760 1400 LINE",
"500 1400 LINE",
"500 442 LINE"
);
}
);
width = 820;
}
);
unicode = 004A;
},
{
glyphname = K;
lastChange = "2021-04-25 10:02:36 +0000";
layers = (
{
layerId = "A833981A-68C5-4528-81CD-92C717829696";
paths = (
{
closed = 1;
nodes = (
"60 0 LINE",
"320 0 LINE",
"320 1400 LINE",
"60 1400 LINE"
);
},
{
closed = 1;
nodes = (
"900 1400 LINE",
"640 1400 LINE",
"320 887 LINE",
"320 440 LINE"
);
},
{
closed = 1;
nodes = (
"314 650 LINE",
"640 0 LINE",
"900 0 LINE",
"458 887 LINE"
);
}
);
width = 960;
}
);
unicode = 004B;
},
{
glyphname = L;
lastChange = "2021-04-25 10:02:43 +0000";
layers = (
{
layerId = "A833981A-68C5-4528-81CD-92C717829696";
paths = (
{
closed = 1;
nodes = (
"60 0 LINE",
"320 0 LINE",
"320 1400 LINE",
"60 1400 LINE"
);
},
{
closed = 1;
nodes = (
"108 260 LINE",
"108 0 LINE",
"900 0 LINE",
"900 260 LINE"
);
}
);
width = 960;
}
);
unicode = 004C;
},
{
glyphname = M;
lastChange = "2021-04-25 10:02:47 +0000";
layers = (
{
layerId = "A833981A-68C5-4528-81CD-92C717829696";
paths = (
{
closed = 1;
nodes = (
"60 0 LINE",
"320 0 LINE",
"320 1400 LINE",
"60 1400 LINE"
);
},
{
closed = 1;
nodes = (
"960 0 LINE",
"1220 0 LINE",
"1220 1400 LINE",
"960 1400 LINE"
);
},
{
closed = 1;
nodes = (
"320 956 LINE",
"640 560 LINE",
"640 1000 LINE",
"320 1400 LINE"
);
},
{
closed = 1;
nodes = (
"640 1000 LINE",
"640 560 LINE",
"960 956 LINE",
"960 1400 LINE"
);
}
);
width = 1280;
}
);
unicode = 004D;
},
{
glyphname = N;
lastChange = "2021-04-25 10:03:19 +0000";
layers = (
{
layerId = "A833981A-68C5-4528-81CD-92C717829696";
paths = (
{
closed = 1;
nodes = (
"60 0 LINE",
"320 0 LINE",
"320 1400 LINE",
"60 1400 LINE"
);
},
{
closed = 1;
nodes = (
"640 0 LINE",
"900 0 LINE",
"900 1400 LINE",
"640 1400 LINE"
);
},
{
closed = 1;
nodes = (
"320 800 LINE",
"640 0 LINE",
"640 600 LINE",
"320 1400 LINE"
);
}
);
width = 960;
}
);
unicode = 004E;
},
{
glyphname = O;
lastChange = "2021-04-20 22:50:21 +0000";
layers = (
{
layerId = "A833981A-68C5-4528-81CD-92C717829696";
paths = (
{
closed = 0;
nodes = (
"613 0 LINE"
);
},
{
closed = 1;
nodes = (
"613 0 LINE",
"1351 0 OFFCURVE",
"1349 1400 OFFCURVE",
"613 1400 CURVE",
"613 1140 LINE",
"971 1142 OFFCURVE",
"971 260 OFFCURVE",
"613 260 CURVE"
);
},
{
closed = 0;
nodes = (
"613 0 LINE"
);
},
{
closed = 1;
nodes = (
"255 260 OFFCURVE",
"255 1142 OFFCURVE",
"613 1140 CURVE",
"613 1400 LINE",
"-123 1400 OFFCURVE",
"-125 0 OFFCURVE",
"613 0 CURVE",
"613 260 LINE"
);
}
);
width = 1226;
}
);
unicode = 004F;
},
{
glyphname = Odieresis;
lastChange = "2021-04-21 21:25:34 +0000";
layers = (
{
components = (
{
name = dieresiscomb.case;
transform = "{1, 0, 0, 1, 130, 0}";
}
);
layerId = "A833981A-68C5-4528-81CD-92C717829696";
paths = (
{
closed = 0;
nodes = (
"613 0 LINE"
);
},
{
closed = 1;
nodes = (
"613 0 LINE",
"1351 0 OFFCURVE",
"1349 1400 OFFCURVE",
"613 1400 CURVE",
"613 1138 LINE",
"971 1140 OFFCURVE",
"971 262 OFFCURVE",
"613 262 CURVE"
);
},
{
closed = 0;
nodes = (
"613 0 LINE"
);
},
{
closed = 1;
nodes = (
"255 262 OFFCURVE",
"255 1140 OFFCURVE",
"613 1138 CURVE",
"613 1400 LINE",
"-123 1400 OFFCURVE",
"-125 0 OFFCURVE",
"613 0 CURVE",
"613 262 LINE"
);
}
);
width = 1226;
}
);
unicode = 00D6;
},
{
glyphname = OE;
lastChange = "2021-04-24 20:08:03 +0000";
layers = (
{
layerId = "A833981A-68C5-4528-81CD-92C717829696";
paths = (
{
closed = 0;
nodes = (
"613 0 LINE"
);
},
{
closed = 1;
nodes = (
"613 0 LINE",
"1351 0 OFFCURVE",
"1349 1400 OFFCURVE",
"613 1400 CURVE",
"613 1138 LINE",
"971 1140 OFFCURVE",
"971 262 OFFCURVE",
"613 262 CURVE"
);
},
{
closed = 0;
nodes = (
"613 0 LINE"
);
},
{
closed = 1;
nodes = (
"255 262 OFFCURVE",
"255 1140 OFFCURVE",
"613 1138 CURVE",
"613 1400 LINE",
"-123 1400 OFFCURVE",
"-125 0 OFFCURVE",
"613 0 CURVE",
"613 262 LINE"
);
},
{
closed = 1;
nodes = (
"971 0 LINE",
"1231 0 LINE",
"1231 1400 LINE",
"971 1400 LINE"
);
},
{
closed = 1;
nodes = (
"1019 260 LINE",
"1019 0 LINE",
"1811 0 LINE",
"1811 260 LINE"
);
},
{
closed = 1;
nodes = (
"1021 1400 LINE",
"1021 1140 LINE",
"1811 1140 LINE",
"1811 1400 LINE"
);
},
{
closed = 0;
nodes = (
"1231 700 LINE"
);
},
{
closed = 1;
nodes = (
"1021 830 LINE",
"1021 570 LINE",
"1811 570 LINE",
"1811 830 LINE"
);
}
);
width = 1871;
}
);
unicode = 0152;
},
{
glyphname = P;
lastChange = "2021-04-25 10:02:57 +0000";
layers = (
{
layerId = "A833981A-68C5-4528-81CD-92C717829696";
paths = (
{
closed = 1;
nodes = (
"60 0 LINE",
"320 0 LINE",
"320 1400 LINE",
"60 1400 LINE"
);
},
{
closed = 1;
nodes = (
"570 560 LINE",
"570 820 LINE",
"198 820 LINE",
"198 560 LINE"
);
},
{
closed = 1;
nodes = (
"570 1140 LINE",
"570 1400 LINE",
"198 1400 LINE",
"198 1140 LINE"
);
},
{
closed = 1;
nodes = (
"570 560 LINE",
"1012 562 OFFCURVE",
"1010 1402 OFFCURVE",
"570 1400 CURVE",
"570 1140 LINE",
"700 1140 OFFCURVE",
"700 820 OFFCURVE",
"570 820 CURVE"
);
}
);
width = 961;
}
);
unicode = 0050;
},
{
glyphname = Thorn;
lastChange = "2021-04-21 22:21:21 +0000";
layers = (
{
layerId = "A833981A-68C5-4528-81CD-92C717829696";
paths = (
{
closed = 1;
nodes = (
"60 0 LINE",
"320 0 LINE",
"320 1400 LINE",
"60 1400 LINE"
);
},
{
closed = 1;
nodes = (
"570 380 LINE",
"570 640 LINE",
"198 640 LINE",
"198 380 LINE"
);
},
{
closed = 1;
nodes = (
"570 960 LINE",
"570 1220 LINE",
"198 1220 LINE",
"198 960 LINE"
);
},
{
closed = 1;
nodes = (
"570 380 LINE",
"1012 382 OFFCURVE",
"1010 1222 OFFCURVE",
"570 1220 CURVE",
"570 960 LINE",
"700 960 OFFCURVE",
"700 640 OFFCURVE",
"570 640 CURVE"
);
}
);
width = 961;
}
);
unicode = 00DE;
},
{
glyphname = Q;
lastChange = "2021-04-20 22:06:54 +0000";
layers = (
{
layerId = "A833981A-68C5-4528-81CD-92C717829696";
paths = (
{
closed = 0;
nodes = (
"613 0 LINE"
);
},
{
closed = 1;
nodes = (
"613 0 LINE",
"1351 3 OFFCURVE",
"1349 1402 OFFCURVE",
"613 1400 CURVE",
"613 1140 LINE",
"971 1142 OFFCURVE",
"971 260 OFFCURVE",
"613 260 CURVE"
);
},
{
closed = 0;
nodes = (
"613 0 LINE"
);
},
{
closed = 1;
nodes = (
"255 260 OFFCURVE",
"255 1142 OFFCURVE",
"613 1140 CURVE",
"613 1400 LINE",
"-123 1400 OFFCURVE",
"-125 0 OFFCURVE",
"613 0 CURVE",
"613 260 LINE"
);
},
{
closed = 1;
nodes = (
"1033 -150 LINE",
"1257 88 LINE",
"1037 324 LINE",
"817 88 LINE"
);
}
);
width = 1297;
}
);
unicode = 0051;
},
{
glyphname = R;
lastChange = "2021-04-20 22:44:09 +0000";
layers = (
{
layerId = "A833981A-68C5-4528-81CD-92C717829696";
paths = (
{
closed = 1;
nodes = (
"60 0 LINE",
"320 0 LINE",
"320 1400 LINE",
"60 1400 LINE"
);
},
{
closed = 1;
nodes = (
"570 560 LINE",
"570 820 LINE",
"198 820 LINE",
"198 560 LINE"
);
},
{
closed = 1;
nodes = (
"570 1140 LINE",
"570 1400 LINE",
"198 1400 LINE",
"198 1140 LINE"
);
},
{
closed = 1;
nodes = (
"570 560 LINE",
"1012 562 OFFCURVE",
"1010 1400 OFFCURVE",
"570 1400 CURVE",
"570 1140 LINE",
"700 1140 OFFCURVE",
"700 820 OFFCURVE",
"570 820 CURVE"
);
},
{
closed = 1;
nodes = (
"656 0 LINE",
"916 0 LINE",
"698 644 LINE",
"438 644 LINE"
);
}
);
width = 976;
}
);
unicode = 0052;
},
{
glyphname = S;
lastChange = "2021-04-20 22:43:06 +0000";
layers = (
{
layerId = "A833981A-68C5-4528-81CD-92C717829696";
paths = (
{
closed = 1;
nodes = (
"756 824 OFFCURVE",
"958 644 OFFCURVE",
"958 414 CURVE SMOOTH",
"958 182 OFFCURVE",
"756 0 OFFCURVE",
"512 0 CURVE SMOOTH",
"262 0 OFFCURVE",
"60 182 OFFCURVE",
"60 414 CURVE",
"316 414 LINE",
"316 340 OFFCURVE",
"406 238 OFFCURVE",
"512 238 CURVE SMOOTH",
"647 238 OFFCURVE",
"700 340 OFFCURVE",
"700 414 CURVE SMOOTH",
"700 484 OFFCURVE",
"647 576 OFFCURVE",
"512 574 CURVE",
"512 824 LINE"
);
},
{
closed = 1;
nodes = (
"268 574 OFFCURVE",
"66 756 OFFCURVE",
"66 986 CURVE SMOOTH",
"66 1220 OFFCURVE",
"268 1400 OFFCURVE",
"512 1400 CURVE SMOOTH",
"762 1400 OFFCURVE",
"964 1220 OFFCURVE",
"964 986 CURVE",
"708 986 LINE",
"708 1056 OFFCURVE",
"618 1160 OFFCURVE",
"512 1160 CURVE SMOOTH",
"377 1160 OFFCURVE",
"324 1056 OFFCURVE",
"324 986 CURVE SMOOTH",
"324 910 OFFCURVE",
"377 824 OFFCURVE",
"512 824 CURVE",
"512 574 LINE"
);
}
);
width = 1024;
}
);
unicode = 0053;
},
{
glyphname = Scedilla;
lastChange = "2021-04-21 22:25:42 +0000";
layers = (
{
components = (
{
name = S;
}
);
layerId = "A833981A-68C5-4528-81CD-92C717829696";
paths = (
{
closed = 1;
nodes = (
"642 25 LINE",
"642 -63 OFFCURVE",
"558 -315 OFFCURVE",
"334 -313 CURVE",
"138 -177 LINE",
"294 -177 OFFCURVE",
"366 -61 OFFCURVE",
"366 25 CURVE"
);
}
);
width = 1024;
}
);
unicode = 015E;
},
{
glyphname = T;
lastChange = "2021-04-25 10:12:08 +0000";
layers = (
{
layerId = "A833981A-68C5-4528-81CD-92C717829696";
paths = (
{
closed = 1;
nodes = (
"350 0 LINE",
"610 0 LINE",
"610 1400 LINE",
"350 1400 LINE"
);
},
{
closed = 1;
nodes = (
"60 1400 LINE",
"60 1140 LINE",
"900 1140 LINE",
"900 1400 LINE"
);
}
);
width = 960;
}
);
unicode = 0054;
},
{
glyphname = Tcedilla;
lastChange = "2021-04-21 22:26:18 +0000";
layers = (
{
components = (
{
name = T;
}
);
layerId = "A833981A-68C5-4528-81CD-92C717829696";
paths = (
{
closed = 1;
nodes = (
"350 -86 OFFCURVE",
"282 -202 OFFCURVE",
"136 -202 CURVE",
"320 -338 LINE",
"530 -340 OFFCURVE",
"610 -88 OFFCURVE",
"610 0 CURVE",
"350 0 LINE"
);
}
);
width = 960;
}
);
unicode = 0162;
},
{
glyphname = U;
lastChange = "2021-04-20 22:45:27 +0000";
layers = (
{
layerId = "A833981A-68C5-4528-81CD-92C717829696";
paths = (
{
closed = 1;
nodes = (
"60 330 LINE",
"320 330 LINE",
"320 1400 LINE",
"60 1400 LINE"
);
},
{
closed = 1;
nodes = (
"640 330 LINE",
"900 330 LINE",
"900 1400 LINE",
"640 1400 LINE"
);
},
{
closed = 1;
nodes = (
"60 330 LINE",
"62 -112 OFFCURVE",
"902 -110 OFFCURVE",
"900 330 CURVE",
"640 330 LINE",
"640 200 OFFCURVE",
"320 200 OFFCURVE",
"320 330 CURVE"
);
}
);
width = 960;
}
);
unicode = 0055;
},
{
glyphname = Udieresis;
lastChange = "2021-04-21 21:25:20 +0000";
layers = (
{
components = (
{
name = dieresiscomb.case;
}
);
layerId = "A833981A-68C5-4528-81CD-92C717829696";
paths = (
{
closed = 1;
nodes = (
"60 330 LINE",
"320 330 LINE",
"320 1400 LINE",
"60 1400 LINE"
);
},
{
closed = 1;
nodes = (
"640 330 LINE",
"900 330 LINE",
"900 1400 LINE",
"640 1400 LINE"
);
},
{
closed = 1;
nodes = (
"60 330 LINE",
"62 -112 OFFCURVE",
"902 -110 OFFCURVE",
"900 330 CURVE",
"640 330 LINE",
"640 200 OFFCURVE",
"320 200 OFFCURVE",
"320 330 CURVE"
);
}
);
width = 960;
}
);
unicode = 00DC;
},
{
glyphname = V;
lastChange = "2021-04-25 10:11:55 +0000";
layers = (
{
layerId = "A833981A-68C5-4528-81CD-92C717829696";
paths = (
{
closed = 1;
nodes = (
"610 0 LINE",
"320 1400 LINE",
"60 1400 LINE",
"350 0 LINE"
);
},
{
closed = 1;
nodes = (
"900 1400 LINE",
"640 1400 LINE",
"350 0 LINE",
"610 0 LINE"
);
}
);
width = 960;
}
);
unicode = 0056;
},
{
glyphname = W;
lastChange = "2021-04-25 10:12:13 +0000";
layers = (
{
layerId = "A833981A-68C5-4528-81CD-92C717829696";
paths = (
{
closed = 1;
nodes = (
"610 0 LINE",
"320 1400 LINE",
"60 1400 LINE",
"350 0 LINE"
);
},
{
closed = 1;
nodes = (
"900 1400 LINE",
"640 1400 LINE",
"350 0 LINE",
"610 0 LINE"
);
},
{
closed = 1;
nodes = (
"1190 0 LINE",
"900 1400 LINE",
"640 1400 LINE",
"930 0 LINE"
);
},
{
closed = 1;
nodes = (
"1480 1400 LINE",
"1220 1400 LINE",
"930 0 LINE",
"1190 0 LINE"
);
}
);
width = 1540;
}
);
unicode = 0057;
},
{
glyphname = X;
lastChange = "2021-04-20 22:46:41 +0000";
layers = (
{
layerId = "A833981A-68C5-4528-81CD-92C717829696";
paths = (
{
closed = 1;
nodes = (
"652 0 LINE",
"914 0 LINE",
"300 1400 LINE",
"62 1400 LINE"
);
},
{
closed = 1;
nodes = (
"60 0 LINE",
"320 0 LINE",
"914 1260 LINE",
"652 1260 LINE"
);
},
{
closed = 1;
nodes = (
"652 1260 LINE",
"914 1260 LINE",
"914 1400 LINE",
"652 1400 LINE"
);
}
);
width = 974;
}
);
unicode = 0058;
},
{
glyphname = Y;
lastChange = "2021-04-25 10:12:17 +0000";
layers = (
{
layerId = "A833981A-68C5-4528-81CD-92C717829696";
paths = (
{
closed = 1;
nodes = (
"610 572 LINE",
"320 1400 LINE",
"60 1400 LINE",
"350 572 LINE"
);
},
{
closed = 1;
nodes = (
"900 1400 LINE",
"640 1400 LINE",
"350 572 LINE",
"610 572 LINE"
);
},
{
closed = 1;
nodes = (
"350 0 LINE",
"610 0 LINE",
"610 572 LINE",
"350 572 LINE"
);
}
);
width = 960;
}
);
unicode = 0059;
},
{
glyphname = Z;
lastChange = "2021-04-19 20:43:14 +0000";
layers = (
{
layerId = "A833981A-68C5-4528-81CD-92C717829696";
paths = (
{
closed = 1;
nodes = (
"60 260 LINE",
"320 260 LINE",
"900 1140 LINE",
"640 1140 LINE"
);
},
{
closed = 1;
nodes = (
"60 260 LINE",
"60 0 LINE",
"900 0 LINE",
"900 260 LINE"
);
},
{
closed = 1;
nodes = (
"100 1400 LINE",
"100 1140 LINE",
"900 1140 LINE",
"900 1400 LINE"
);
},
{
closed = 0;
nodes = (
"320 700 LINE"
);
}
);
width = 960;
}
);
unicode = 005A;
},
{
glyphname = a;
lastChange = "2021-04-25 10:24:51 +0000";
layers = (
{
layerId = "A833981A-68C5-4528-81CD-92C717829696";
paths = (
{
closed = 1;
nodes = (
"500 0 OFFCURVE",
"570 12 OFFCURVE",
"616 54 CURVE",
"616 0 LINE",
"876 0 LINE",
"876 404 LINE SMOOTH",
"876 999 OFFCURVE",
"738 1000 OFFCURVE",
"168 1000 CURVE",
"168 760 LINE",
"536 782 OFFCURVE",
"614 760 OFFCURVE",
"614 627 CURVE",
"574 666 OFFCURVE",
"500 678 OFFCURVE",
"446 678 CURVE SMOOTH",
"246 678 OFFCURVE",
"60 676 OFFCURVE",
"60 348 CURVE SMOOTH",
"60 8 OFFCURVE",
"246 0 OFFCURVE",
"446 0 CURVE SMOOTH"
);
},
{
closed = 1;
nodes = (
"341 202 OFFCURVE",
"282 249 OFFCURVE",
"282 348 CURVE SMOOTH",
"282 460 OFFCURVE",
"341 501 OFFCURVE",
"446 502 CURVE SMOOTH",
"574 503 OFFCURVE",
"614 460 OFFCURVE",
"614 348 CURVE SMOOTH",
"614 249 OFFCURVE",
"574 202 OFFCURVE",
"446 202 CURVE SMOOTH"
);
}
);
width = 936;
}
);
unicode = 0061;
},
{
glyphname = ae;
lastChange = "2021-04-19 18:47:56 +0000";
layers = (
{
layerId = "A833981A-68C5-4528-81CD-92C717829696";
paths = (
{
closed = 1;
nodes = (
"562 504 OFFCURVE",
"596 464 OFFCURVE",
"596 348 CURVE",
"858 348 LINE",
"858 688 OFFCURVE",
"628 678 OFFCURVE",
"428 678 CURVE",
"436 504 LINE"
);
},
{
closed = 1;
nodes = (
"858 348 LINE"
);
},
{
closed = 1;
nodes = (
"428 0 LINE"
);
},
{
closed = 1;
nodes = (
"858 348 LINE"
);
},
{
closed = 1;
nodes = (
"428 0 LINE",
"630 20 OFFCURVE",
"858 146 OFFCURVE",
"858 348 CURVE",
"596 348 LINE",
"596 244 OFFCURVE",
"522 202 OFFCURVE",
"396 202 CURVE"
);
},
{
closed = 1;
nodes = (
"340 202 OFFCURVE",
"264 224 OFFCURVE",
"264 348 CURVE",
"42 348 LINE",
"42 8 OFFCURVE",
"228 0 OFFCURVE",
"428 0 CURVE",
"428 202 LINE"
);
},
{
closed = 1;
nodes = (
"472 678 LINE",
"272 678 OFFCURVE",
"42 688 OFFCURVE",
"42 348 CURVE",
"264 348 LINE",
"264 406 OFFCURVE",
"266 506 OFFCURVE",
"472 504 CURVE"
);
},
{
closed = 1;
nodes = (
"150 796 LINE",
"556 842 OFFCURVE",
"656 792 OFFCURVE",
"656 662 CURVE",
"858 348 LINE",
"858 942 OFFCURVE",
"780 1100 OFFCURVE",
"150 1000 CURVE"
);
},
{
closed = 1;
nodes = (
"660 0 LINE",
"856 0 LINE",
"858 348 LINE",
"658 200 LINE"
);
},
{
closed = 1;
nodes = (
"940 420 LINE",
"940 580 LINE",
"682 580 LINE",
"682 420 LINE"
);
},
{
closed = 0;
nodes = (
"940 56 LINE"
);
},
{
closed = 0;
nodes = (
"940 56 LINE"
);
},
{
closed = 0;
nodes = (
"940 56 LINE"
);
},
{
closed = 1;
nodes = (
"1090 0 LINE",
"1334 0 OFFCURVE",
"1414 48 OFFCURVE",
"1472 170 CURVE",
"1306 314 LINE",
"1254 238 OFFCURVE",
"1136 256 OFFCURVE",
"1070 256 CURVE"
);
},
{
closed = 1;
nodes = (
"974 256 OFFCURVE",
"940 314 OFFCURVE",
"940 420 CURVE",
"682 420 LINE",
"682 170 OFFCURVE",
"870 0 OFFCURVE",
"1090 0 CURVE",
"1070 256 LINE"
);
},
{
closed = 1;
nodes = (
"1196 744 OFFCURVE",
"1258 708 OFFCURVE",
"1258 600 CURVE",
"1520 600 LINE",
"1520 868 OFFCURVE",
"1290 1000 OFFCURVE",
"1090 1000 CURVE",
"1070 744 LINE"
);
},
{
closed = 1;
nodes = (
"1090 1000 LINE",
"870 1000 OFFCURVE",
"682 830 OFFCURVE",
"682 580 CURVE",
"940 580 LINE",
"940 686 OFFCURVE",
"974 744 OFFCURVE",
"1070 744 CURVE"
);
},
{
closed = 1;
nodes = (
"912 438 LINE",
"1520 440 LINE",
"1520 600 LINE",
"912 600 LINE"
);
}
);
width = 2000;
}
);
unicode = 00E6;
},
{
glyphname = b;
lastChange = "2021-04-20 22:32:34 +0000";
layers = (
{
layerId = "A833981A-68C5-4528-81CD-92C717829696";
paths = (
{
closed = 1;
nodes = (
"298 0 LINE",
"320 56 LINE",
"320 1400 LINE",
"60 1400 LINE",
"60 0 LINE"
);
},
{
closed = 1;
nodes = (
"898 420 LINE",
"898 508 LINE",
"638 508 LINE",
"638 420 LINE"
);
},
{
closed = 1;
nodes = (
"470 0 LINE",
"670 0 OFFCURVE",
"898 80 OFFCURVE",
"898 420 CURVE",
"638 420 LINE",
"638 272 OFFCURVE",
"576 256 OFFCURVE",
"450 256 CURVE"
);
},
{
closed = 1;
nodes = (
"898 420 LINE",
"898 508 LINE",
"638 508 LINE",
"638 420 LINE"
);
},
{
closed = 1;
nodes = (
"470 0 LINE",
"670 0 OFFCURVE",
"898 80 OFFCURVE",
"898 420 CURVE",
"638 420 LINE",
"638 272 OFFCURVE",
"576 256 OFFCURVE",
"450 256 CURVE"
);
},
{
closed = 1;
nodes = (
"898 420 LINE",
"898 508 LINE",
"638 508 LINE",
"638 420 LINE"
);
},
{
closed = 1;
nodes = (
"470 0 LINE",
"670 0 OFFCURVE",
"898 80 OFFCURVE",
"898 420 CURVE",
"638 420 LINE",
"638 272 OFFCURVE",
"576 256 OFFCURVE",
"450 256 CURVE"
);
},
{
closed = 1;
nodes = (
"898 420 LINE",
"898 508 LINE",
"638 508 LINE",
"638 420 LINE"
);
},
{
closed = 1;
nodes = (
"470 0 LINE",
"670 0 OFFCURVE",
"898 80 OFFCURVE",
"898 420 CURVE",
"638 420 LINE",
"638 272 OFFCURVE",
"576 256 OFFCURVE",
"450 256 CURVE"
);
},
{
closed = 1;
nodes = (
"354 256 OFFCURVE",
"320 314 OFFCURVE",
"320 420 CURVE",
"170 420 LINE",
"170 256 OFFCURVE",
"250 0 OFFCURVE",
"470 0 CURVE",
"450 256 LINE"
);
},
{
closed = 1;
nodes = (
"638 508 LINE",
"898 508 LINE",
"898 580 LINE",
"638 580 LINE"
);
},
{
closed = 1;
nodes = (
"576 744 OFFCURVE",
"638 728 OFFCURVE",
"638 580 CURVE",
"898 580 LINE",
"898 920 OFFCURVE",
"670 1000 OFFCURVE",
"470 1000 CURVE",
"450 744 LINE"
);
},
{
closed = 1;
nodes = (
"638 508 LINE",
"898 508 LINE",
"898 580 LINE",
"638 580 LINE"
);
},
{
closed = 1;
nodes = (
"576 744 OFFCURVE",
"638 728 OFFCURVE",
"638 580 CURVE",
"898 580 LINE",
"898 920 OFFCURVE",
"670 1000 OFFCURVE",
"470 1000 CURVE",
"450 744 LINE"
);
},
{
closed = 1;
nodes = (
"638 508 LINE",
"898 508 LINE",
"898 580 LINE",
"638 580 LINE"
);
},
{
closed = 1;
nodes = (
"576 744 OFFCURVE",
"638 728 OFFCURVE",
"638 580 CURVE",
"898 580 LINE",
"898 920 OFFCURVE",
"670 1000 OFFCURVE",
"470 1000 CURVE",
"450 744 LINE"
);
},
{
closed = 1;
nodes = (
"638 508 LINE",
"898 508 LINE",
"898 580 LINE",
"638 580 LINE"
);
},
{
closed = 1;
nodes = (
"576 744 OFFCURVE",
"638 728 OFFCURVE",
"638 580 CURVE",
"898 580 LINE",
"898 920 OFFCURVE",
"670 1000 OFFCURVE",
"470 1000 CURVE",
"450 744 LINE"
);
},
{
closed = 1;
nodes = (
"470 1000 LINE",
"250 1000 OFFCURVE",
"170 744 OFFCURVE",
"170 580 CURVE",
"320 580 LINE",
"320 686 OFFCURVE",
"354 744 OFFCURVE",
"450 744 CURVE"
);
}
);
width = 958;
}
);
unicode = 0062;
},
{
glyphname = c;
lastChange = "2021-04-20 22:16:42 +0000";
layers = (
{
layerId = "A833981A-68C5-4528-81CD-92C717829696";
paths = (
{
closed = 1;
nodes = (
"320 420 LINE",
"320 580 LINE",
"60 580 LINE",
"60 420 LINE"
);
},
{
closed = 0;
nodes = (
"318 56 LINE"
);
},
{
closed = 0;
nodes = (
"318 56 LINE"
);
},
{
closed = 0;
nodes = (
"318 56 LINE"
);
},
{
closed = 1;
nodes = (
"468 0 LINE",
"668 0 OFFCURVE",
"898 66 OFFCURVE",
"898 354 CURVE",
"638 354 LINE",
"638 256 OFFCURVE",
"574 256 OFFCURVE",
"448 256 CURVE"
);
},
{
closed = 1;
nodes = (
"352 256 OFFCURVE",
"320 314 OFFCURVE",
"320 420 CURVE",
"60 420 LINE",
"60 170 OFFCURVE",
"248 0 OFFCURVE",
"468 0 CURVE",
"448 256 LINE"
);
},
{
closed = 1;
nodes = (
"574 744 OFFCURVE",
"638 744 OFFCURVE",
"638 646 CURVE",
"898 646 LINE",
"898 914 OFFCURVE",
"668 1000 OFFCURVE",
"468 1000 CURVE",
"448 744 LINE"
);
},
{
closed = 1;
nodes = (
"468 1000 LINE",
"248 1000 OFFCURVE",
"60 830 OFFCURVE",
"60 580 CURVE",
"320 580 LINE",
"320 686 OFFCURVE",
"352 744 OFFCURVE",
"448 744 CURVE"
);
}
);
width = 958;
}
);
unicode = 0063;
},
{
glyphname = ccedilla;
lastChange = "2021-04-21 22:29:58 +0000";
layers = (
{
components = (
{
name = c;
}
);
layerId = "A833981A-68C5-4528-81CD-92C717829696";
paths = (
{
closed = 0;
nodes = (
"318 56 LINE"
);
},
{
closed = 0;
nodes = (
"318 56 LINE"
);
},
{
closed = 0;
nodes = (
"318 56 LINE"
);
},
{
closed = 1;
nodes = (
"337 -61 OFFCURVE",
"290 -138 OFFCURVE",
"184 -138 CURVE",
"347 -273 LINE",
"483 -274 OFFCURVE",
"597 -138 OFFCURVE",
"597 25 CURVE",
"337 25 LINE"
);
}
);
width = 958;
}
);
unicode = 00E7;
},
{
glyphname = d;
lastChange = "2021-04-22 22:01:38 +0000";
layers = (
{
layerId = "A833981A-68C5-4528-81CD-92C717829696";
paths = (
{
closed = 1;
nodes = (
"898 1400 LINE",
"638 1400 LINE",
"638 56 LINE",
"660 0 LINE",
"898 0 LINE"
);
},
{
closed = 1;
nodes = (
"320 508 LINE",
"60 508 LINE",
"60 420 LINE",
"320 420 LINE"
);
},
{
closed = 1;
nodes = (
"382 256 OFFCURVE",
"320 272 OFFCURVE",
"320 420 CURVE",
"60 420 LINE",
"60 80 OFFCURVE",
"288 0 OFFCURVE",
"488 0 CURVE",
"508 256 LINE"
);
},
{
closed = 1;
nodes = (
"488 0 LINE",
"508 256 LINE"
);
},
{
closed = 0;
nodes = (
"638 56 LINE"
);
},
{
closed = 1;
nodes = (
"320 508 LINE",
"60 508 LINE",
"60 420 LINE",
"320 420 LINE"
);
},
{
closed = 1;
nodes = (
"382 256 OFFCURVE",
"320 272 OFFCURVE",
"320 420 CURVE",
"60 420 LINE",
"60 80 OFFCURVE",
"288 0 OFFCURVE",
"488 0 CURVE",
"508 256 LINE"
);
},
{
closed = 1;
nodes = (
"488 0 LINE",
"508 256 LINE"
);
},
{
closed = 0;
nodes = (
"638 56 LINE"
);
},
{
closed = 1;
nodes = (
"320 508 LINE",
"60 508 LINE",
"60 420 LINE",
"320 420 LINE"
);
},
{
closed = 1;
nodes = (
"382 256 OFFCURVE",
"320 272 OFFCURVE",
"320 420 CURVE",
"60 420 LINE",
"60 80 OFFCURVE",
"288 0 OFFCURVE",
"488 0 CURVE",
"508 256 LINE"
);
},
{
closed = 1;
nodes = (
"488 0 LINE",
"508 256 LINE"
);
},
{
closed = 1;
nodes = (
"320 508 LINE",
"60 508 LINE",
"60 420 LINE",
"320 420 LINE"
);
},
{
closed = 1;
nodes = (
"382 256 OFFCURVE",
"320 272 OFFCURVE",
"320 420 CURVE",
"60 420 LINE",
"60 80 OFFCURVE",
"288 0 OFFCURVE",
"488 0 CURVE",
"508 256 LINE"
);
},
{
closed = 1;
nodes = (
"488 0 LINE",
"708 0 OFFCURVE",
"788 256 OFFCURVE",
"788 420 CURVE",
"638 420 LINE",
"638 314 OFFCURVE",
"604 256 OFFCURVE",
"508 256 CURVE"
);
},
{
closed = 1;
nodes = (
"60 580 LINE",
"60 508 LINE",
"320 508 LINE",
"320 580 LINE"
);
},
{
closed = 1;
nodes = (
"60 580 LINE",
"60 508 LINE",
"320 508 LINE",
"320 580 LINE"
);
},
{
closed = 1;
nodes = (
"60 580 LINE",
"60 508 LINE",
"320 508 LINE",
"320 580 LINE"
);
},
{
closed = 1;
nodes = (
"60 580 LINE",
"60 508 LINE",
"320 508 LINE",
"320 580 LINE"
);
},
{
closed = 1;
nodes = (
"488 1000 LINE",
"288 1000 OFFCURVE",
"60 920 OFFCURVE",
"60 580 CURVE",
"320 580 LINE",
"320 728 OFFCURVE",
"382 744 OFFCURVE",
"508 744 CURVE"
);
},
{
closed = 1;
nodes = (
"604 744 OFFCURVE",
"638 686 OFFCURVE",
"638 580 CURVE",
"788 580 LINE",
"788 744 OFFCURVE",
"708 1000 OFFCURVE",
"488 1000 CURVE",
"508 744 LINE"
);
}
);
width = 958;
}
);
unicode = 0064;
},
{
glyphname = eth;
lastChange = "2021-04-21 21:29:22 +0000";
layers = (
{
layerId = "A833981A-68C5-4528-81CD-92C717829696";
paths = (
{
closed = 1;
nodes = (
"900 466 OFFCURVE",
"1072 1400 OFFCURVE",
"322 1400 CURVE",
"218 1210 LINE",
"562 1200 OFFCURVE",
"640 924 OFFCURVE",
"640 580 CURVE SMOOTH",
"640 530 OFFCURVE",
"640 472 OFFCURVE",
"640 420 CURVE SMOOTH",
"640 272 OFFCURVE",
"628 120 OFFCURVE",
"630 0 CURVE",
"900 0 LINE"
);
},
{
closed = 1;
nodes = (
"322 508 LINE",
"60 508 LINE",
"60 420 LINE",
"322 420 LINE"
);
},
{
closed = 1;
nodes = (
"384 256 OFFCURVE",
"322 272 OFFCURVE",
"322 420 CURVE",
"60 420 LINE",
"60 80 OFFCURVE",
"290 0 OFFCURVE",
"490 0 CURVE",
"510 256 LINE"
);
},
{
closed = 1;
nodes = (
"490 0 LINE",
"710 0 OFFCURVE",
"790 170 OFFCURVE",
"790 420 CURVE",
"640 420 LINE",
"640 314 OFFCURVE",
"606 256 OFFCURVE",
"510 256 CURVE"
);
},
{
closed = 0;
nodes = (
"640 56 LINE"
);
},
{
closed = 1;
nodes = (
"322 508 LINE",
"60 508 LINE",
"60 420 LINE",
"322 420 LINE"
);
},
{
closed = 1;
nodes = (
"384 256 OFFCURVE",
"322 272 OFFCURVE",
"322 420 CURVE",
"60 420 LINE",
"60 80 OFFCURVE",
"290 0 OFFCURVE",
"490 0 CURVE",
"510 256 LINE"
);
},
{
closed = 1;
nodes = (
"490 0 LINE",
"710 0 OFFCURVE",
"790 170 OFFCURVE",
"790 420 CURVE",
"640 420 LINE",
"640 314 OFFCURVE",
"606 256 OFFCURVE",
"510 256 CURVE"
);
},
{
closed = 0;
nodes = (
"640 56 LINE"
);
},
{
closed = 1;
nodes = (
"322 508 LINE",
"60 508 LINE",
"60 420 LINE",
"322 420 LINE"
);
},
{
closed = 1;
nodes = (
"384 256 OFFCURVE",
"322 272 OFFCURVE",
"322 420 CURVE",
"60 420 LINE",
"60 80 OFFCURVE",
"290 0 OFFCURVE",
"490 0 CURVE",
"510 256 LINE"
);
},
{
closed = 1;
nodes = (
"490 0 LINE",
"710 0 OFFCURVE",
"790 170 OFFCURVE",
"790 420 CURVE",
"640 420 LINE",
"640 314 OFFCURVE",
"606 256 OFFCURVE",
"510 256 CURVE"
);
},
{
closed = 0;
nodes = (
"640 56 LINE"
);
},
{
closed = 1;
nodes = (
"322 508 LINE",
"60 508 LINE",
"60 420 LINE",
"322 420 LINE"
);
},
{
closed = 1;
nodes = (
"384 256 OFFCURVE",
"322 272 OFFCURVE",
"322 420 CURVE",
"60 420 LINE",
"60 80 OFFCURVE",
"290 0 OFFCURVE",
"490 0 CURVE",
"510 256 LINE"
);
},
{
closed = 1;
nodes = (
"490 0 LINE",
"710 0 OFFCURVE",
"790 170 OFFCURVE",
"790 420 CURVE",
"640 420 LINE",
"640 314 OFFCURVE",
"606 256 OFFCURVE",
"510 256 CURVE"
);
},
{
closed = 1;
nodes = (
"60 580 LINE",
"60 508 LINE",
"322 508 LINE",
"322 580 LINE"
);
},
{
closed = 1;
nodes = (
"490 1000 LINE",
"290 1000 OFFCURVE",
"60 920 OFFCURVE",
"60 580 CURVE",
"322 580 LINE",
"322 728 OFFCURVE",
"384 744 OFFCURVE",
"510 744 CURVE"
);
},
{
closed = 1;
nodes = (
"606 744 OFFCURVE",
"640 686 OFFCURVE",
"640 580 CURVE",
"790 580 LINE",
"790 830 OFFCURVE",
"710 1000 OFFCURVE",
"490 1000 CURVE",
"510 744 LINE"
);
},
{
closed = 1;
nodes = (
"60 580 LINE",
"60 508 LINE",
"322 508 LINE",
"322 580 LINE"
);
},
{
closed = 1;
nodes = (
"490 1000 LINE",
"290 1000 OFFCURVE",
"60 920 OFFCURVE",
"60 580 CURVE",
"322 580 LINE",
"322 728 OFFCURVE",
"384 744 OFFCURVE",
"510 744 CURVE"
);
},
{
closed = 1;
nodes = (
"606 744 OFFCURVE",
"640 686 OFFCURVE",
"640 580 CURVE",
"790 580 LINE",
"790 830 OFFCURVE",
"710 1000 OFFCURVE",
"490 1000 CURVE",
"510 744 LINE"
);
},
{
closed = 1;
nodes = (
"60 580 LINE",
"60 508 LINE",
"322 508 LINE",
"322 580 LINE"
);
},
{
closed = 1;
nodes = (
"490 1000 LINE",
"290 1000 OFFCURVE",
"60 920 OFFCURVE",
"60 580 CURVE",
"322 580 LINE",
"322 728 OFFCURVE",
"384 744 OFFCURVE",
"510 744 CURVE"
);
},
{
closed = 1;
nodes = (
"606 744 OFFCURVE",
"640 686 OFFCURVE",
"640 580 CURVE",
"790 580 LINE",
"790 830 OFFCURVE",
"710 1000 OFFCURVE",
"490 1000 CURVE",
"510 744 LINE"
);
},
{
closed = 1;
nodes = (
"60 580 LINE",
"60 508 LINE",
"322 508 LINE",
"322 580 LINE"
);
},
{
closed = 1;
nodes = (
"490 1000 LINE",
"290 1000 OFFCURVE",
"60 920 OFFCURVE",
"60 580 CURVE",
"322 580 LINE",
"322 728 OFFCURVE",
"384 744 OFFCURVE",
"510 744 CURVE"
);
},
{
closed = 1;
nodes = (
"606 744 OFFCURVE",
"640 686 OFFCURVE",
"640 580 CURVE",
"790 580 LINE",
"790 830 OFFCURVE",
"710 1000 OFFCURVE",
"490 1000 CURVE",
"510 744 LINE"
);
},
{
closed = 1;
nodes = (
"454 1036 LINE",
"816 1358 LINE",
"592 1432 LINE",
"230 1108 LINE"
);
}
);
width = 977;
}
);
unicode = 00F0;
},
{
glyphname = e;
lastChange = "2021-04-25 10:25:17 +0000";
layers = (
{
layerId = "A833981A-68C5-4528-81CD-92C717829696";
paths = (
{
closed = 0;
nodes = (
"320 56 LINE"
);
},
{
closed = 0;
nodes = (
"320 56 LINE"
);
},
{
closed = 0;
nodes = (
"320 56 LINE"
);
},
{
closed = 1;
nodes = (
"60 170 OFFCURVE",
"250 0 OFFCURVE",
"470 0 CURVE SMOOTH",
"641 0 OFFCURVE",
"762 49 OFFCURVE",
"836 170 CURVE",
"686 322 LINE",
"641 255 OFFCURVE",
"570 220 OFFCURVE",
"470 220 CURVE",
"379 221 OFFCURVE",
"320 263 OFFCURVE",
"320 404 CURVE",
"900 404 LINE",
"900 580 LINE SMOOTH",
"900 848 OFFCURVE",
"714 1000 OFFCURVE",
"470 1000 CURVE SMOOTH",
"250 1000 OFFCURVE",
"60 830 OFFCURVE",
"60 580 CURVE SMOOTH",
"60 420 LINE SMOOTH"
);
},
{
closed = 1;
nodes = (
"320 702 OFFCURVE",
"374 760 OFFCURVE",
"470 760 CURVE SMOOTH",
"596 760 OFFCURVE",
"640 704 OFFCURVE",
"640 596 CURVE",
"320 596 LINE"
);
}
);
width = 960;
}
);
leftKerningGroup = "0";
unicode = 0065;
},
{
glyphname = f;
lastChange = "2021-04-25 10:04:59 +0000";
layers = (
{
layerId = "A833981A-68C5-4528-81CD-92C717829696";
paths = (
{
closed = 1;
nodes = (
"454 0 LINE",
"454 1352 LINE",
"194 970 LINE",
"194 0 LINE"
);
},
{
closed = 1;
nodes = (
"582 1000 LINE",
"60 1002 LINE",
"60 744 LINE",
"582 742 LINE"
);
},
{
closed = 1;
nodes = (
"454 1076 OFFCURVE",
"528 1138 OFFCURVE",
"676 1138 CURVE",
"676 1400 LINE",
"336 1400 OFFCURVE",
"194 1170 OFFCURVE",
"194 970 CURVE",
"454 950 LINE"
);
}
);
width = 736;
}
);
unicode = 0066;
},
{
glyphname = g;
lastChange = "2021-04-20 22:25:18 +0000";
layers = (
{
layerId = "A833981A-68C5-4528-81CD-92C717829696";
paths = (
{
closed = 1;
nodes = (
"60 80 OFFCURVE",
"290 0 OFFCURVE",
"490 0 CURVE SMOOTH",
"550.011 0 OFFCURVE",
"600 16 OFFCURVE",
"640 39 CURVE",
"640 -114 OFFCURVE",
"586 -170 OFFCURVE",
"490 -170 CURVE SMOOTH",
"388 -170 OFFCURVE",
"320 -160 OFFCURVE",
"320 -74 CURVE",
"90 -74 LINE",
"90 -364 OFFCURVE",
"388 -400 OFFCURVE",
"490 -400 CURVE SMOOTH",
"790 -400 OFFCURVE",
"900 -128 OFFCURVE",
"900 0 CURVE SMOOTH",
"900 580 LINE SMOOTH",
"900 859 OFFCURVE",
"790 1000 OFFCURVE",
"490 1000 CURVE",
"190 1000 OFFCURVE",
"60 859 OFFCURVE",
"60 580 CURVE SMOOTH",
"60 420 LINE SMOOTH"
);
},
{
closed = 1;
nodes = (
"320 580 LINE SMOOTH",
"320 728 OFFCURVE",
"388 744 OFFCURVE",
"490 744 CURVE SMOOTH",
"586 744 OFFCURVE",
"640 686 OFFCURVE",
"640 580 CURVE SMOOTH",
"640 420 LINE SMOOTH",
"640 314 OFFCURVE",
"586 256 OFFCURVE",
"490 256 CURVE SMOOTH",
"388 256 OFFCURVE",
"320 272 OFFCURVE",
"320 420 CURVE SMOOTH"
);
}
);
width = 960;
}
);
unicode = 0067;
},
{
glyphname = h;
lastChange = "2021-04-25 10:05:14 +0000";
layers = (
{
layerId = "A833981A-68C5-4528-81CD-92C717829696";
paths = (
{
closed = 1;
nodes = (
"60 0 LINE",
"320 0 LINE",
"320 1400 LINE",
"60 1400 LINE"
);
},
{
closed = 1;
nodes = (
"640 0 LINE",
"900 0 LINE",
"900 580 LINE",
"640 580 LINE"
);
},
{
closed = 1;
nodes = (
"576 744 OFFCURVE",
"640 728 OFFCURVE",
"640 580 CURVE",
"900 580 LINE",
"900 920 OFFCURVE",
"670 1000 OFFCURVE",
"470 1000 CURVE",
"450 744 LINE"
);
},
{
closed = 1;
nodes = (
"470 1000 LINE",
"250 1000 OFFCURVE",
"170 830 OFFCURVE",
"170 580 CURVE",
"320 580 LINE",
"320 686 OFFCURVE",
"354 744 OFFCURVE",
"450 744 CURVE"
);
}
);
width = 960;
}
);
unicode = 0068;
},
{
glyphname = i;
lastChange = "2021-04-24 20:13:20 +0000";
layers = (
{
layerId = "A833981A-68C5-4528-81CD-92C717829696";
paths = (
{
closed = 1;
nodes = (
"70 0 LINE",
"330 0 LINE",
"330 1000 LINE",
"70 1000 LINE"
);
},
{
closed = 1;
nodes = (
"270 1070 OFFCURVE",
"330 1128 OFFCURVE",
"330 1200 CURVE SMOOTH",
"330 1272 OFFCURVE",
"270 1330 OFFCURVE",
"200 1330 CURVE SMOOTH",
"128 1330 OFFCURVE",
"70 1272 OFFCURVE",
"70 1200 CURVE SMOOTH",
"70 1128 OFFCURVE",
"128 1070 OFFCURVE",
"200 1070 CURVE SMOOTH"
);
}
);
width = 400;
}
);
unicode = 0069;
},
{
glyphname = idotless;
lastChange = "2021-04-25 10:04:45 +0000";
layers = (
{
layerId = "A833981A-68C5-4528-81CD-92C717829696";
paths = (
{
closed = 1;
nodes = (
"70 0 LINE",
"330 0 LINE",
"330 1000 LINE",
"70 1000 LINE"
);
}
);
width = 400;
}
);
unicode = 0131;
},
{
glyphname = j;
lastChange = "2021-04-25 10:05:34 +0000";
layers = (
{
layerId = "A833981A-68C5-4528-81CD-92C717829696";
paths = (
{
closed = 1;
nodes = (
"230 1000 LINE",
"230 -352 LINE",
"490 30 LINE",
"490 970 LINE"
);
},
{
closed = 0;
nodes = (
"60 -400 LINE",
"60 -138 LINE"
);
},
{
closed = 1;
nodes = (
"230 -76 OFFCURVE",
"208 -138 OFFCURVE",
"60 -138 CURVE",
"60 -400 LINE",
"400 -400 OFFCURVE",
"490 -170 OFFCURVE",
"490 30 CURVE",
"230 50 LINE"
);
},
{
closed = 1;
nodes = (
"430 1070 OFFCURVE",
"490 1128 OFFCURVE",
"490 1200 CURVE SMOOTH",
"490 1272 OFFCURVE",
"430 1330 OFFCURVE",
"360 1330 CURVE SMOOTH",
"288 1330 OFFCURVE",
"230 1272 OFFCURVE",
"230 1200 CURVE SMOOTH",
"230 1128 OFFCURVE",
"288 1070 OFFCURVE",
"360 1070 CURVE SMOOTH"
);
}
);
width = 550;
}
);
unicode = 006A;
},
{
glyphname = k;
lastChange = "2021-04-22 22:53:33 +0000";
layers = (
{
layerId = "A833981A-68C5-4528-81CD-92C717829696";
paths = (
{
closed = 1;
nodes = (
"60 0 LINE",
"320 0 LINE",
"320 1400 LINE",
"60 1400 LINE"
);
},
{
closed = 1;
nodes = (
"886 1000 LINE",
"626 1000 LINE",
"320 697 LINE",
"320 420 LINE"
);
},
{
closed = 1;
nodes = (
"320 420 LINE",
"626 0 LINE",
"886 0 LINE",
"463 580 LINE"
);
}
);
width = 946;
}
);
unicode = 006B;
},
{
glyphname = l;
lastChange = "2021-04-25 10:25:24 +0000";
layers = (
{
layerId = "A833981A-68C5-4528-81CD-92C717829696";
paths = (
{
closed = 1;
nodes = (
"60 430 LINE",
"320 48 LINE",
"320 1400 LINE",
"60 1370 LINE"
);
},
{
closed = 0;
nodes = (
"490 0 LINE",
"490 260 LINE"
);
},
{
closed = 1;
nodes = (
"60 430 LINE",
"60 230 OFFCURVE",
"150 0 OFFCURVE",
"490 0 CURVE",
"490 260 LINE",
"342 260 OFFCURVE",
"320 324 OFFCURVE",
"320 450 CURVE"
);
}
);
width = 550;
}
);
unicode = 006C;
},
{
glyphname = m;
lastChange = "2021-04-24 20:19:46 +0000";
layers = (
{
layerId = "A833981A-68C5-4528-81CD-92C717829696";
paths = (
{
closed = 1;
nodes = (
"60 0 LINE",
"320 0 LINE",
"320 944 LINE",
"298 1000 LINE",
"60 1000 LINE"
);
},
{
closed = 1;
nodes = (
"640 0 LINE",
"900 0 LINE",
"900 580 LINE",
"640 580 LINE"
);
},
{
closed = 1;
nodes = (
"576 744 OFFCURVE",
"640 728 OFFCURVE",
"640 580 CURVE",
"900 580 LINE",
"900 1000 OFFCURVE",
"670 1000 OFFCURVE",
"470 1000 CURVE",
"450 744 LINE"
);
},
{
closed = 1;
nodes = (
"470 1000 LINE",
"250 1000 OFFCURVE",
"170 830 OFFCURVE",
"170 580 CURVE",
"320 580 LINE",
"320 686 OFFCURVE",
"354 744 OFFCURVE",
"450 744 CURVE"
);
},
{
closed = 0;
nodes = (
"900 944 LINE"
);
},
{
closed = 1;
nodes = (
"1220 0 LINE",
"1480 0 LINE",
"1480 580 LINE",
"1220 580 LINE"
);
},
{
closed = 1;
nodes = (
"1156 744 OFFCURVE",
"1220 728 OFFCURVE",
"1220 580 CURVE",
"1480 580 LINE",
"1480 920 OFFCURVE",
"1250 1000 OFFCURVE",
"1050 1000 CURVE",
"1030 744 LINE"
);
},
{
closed = 1;
nodes = (
"1050 1000 LINE",
"830 1000 OFFCURVE",
"750 830 OFFCURVE",
"750 580 CURVE",
"900 580 LINE",
"900 686 OFFCURVE",
"934 744 OFFCURVE",
"1030 744 CURVE"
);
}
);
width = 1540;
}
);
unicode = 006D;
},
{
glyphname = n;
lastChange = "2021-04-25 10:06:54 +0000";
layers = (
{
layerId = "A833981A-68C5-4528-81CD-92C717829696";
paths = (
{
closed = 1;
nodes = (
"60 0 LINE",
"320 0 LINE",
"320 944 LINE",
"298 1000 LINE",
"60 1000 LINE"
);
},
{
closed = 1;
nodes = (
"640 0 LINE",
"900 0 LINE",
"900 580 LINE",
"640 580 LINE"
);
},
{
closed = 1;
nodes = (
"576 744 OFFCURVE",
"640 728 OFFCURVE",
"640 580 CURVE",
"900 580 LINE",
"900 920 OFFCURVE",
"670 1000 OFFCURVE",
"470 1000 CURVE",
"450 744 LINE"
);
},
{
closed = 1;
nodes = (
"470 1000 LINE",
"250 1000 OFFCURVE",
"170 830 OFFCURVE",
"170 580 CURVE",
"320 580 LINE",
"320 686 OFFCURVE",
"354 744 OFFCURVE",
"450 744 CURVE"
);
}
);
width = 960;
}
);
unicode = 006E;
},
{
glyphname = o;
lastChange = "2021-04-25 10:25:01 +0000";
layers = (
{
layerId = "A833981A-68C5-4528-81CD-92C717829696";
paths = (
{
closed = 1;
nodes = (
"920 420 LINE",
"920 508 LINE",
"660 508 LINE",
"660 420 LINE"
);
},
{
closed = 1;
nodes = (
"490 0 LINE",
"690 0 OFFCURVE",
"920 80 OFFCURVE",
"920 420 CURVE",
"660 420 LINE",
"660 272 OFFCURVE",
"596 256 OFFCURVE",
"470 256 CURVE"
);
},
{
closed = 1;
nodes = (
"490 0 LINE",
"470 256 LINE"
);
},
{
closed = 1;
nodes = (
"660 508 LINE",
"920 508 LINE"
);
},
{
closed = 1;
nodes = (
"660 508 LINE",
"920 508 LINE",
"920 580 LINE",
"660 580 LINE"
);
},
{
closed = 1;
nodes = (
"596 744 OFFCURVE",
"660 728 OFFCURVE",
"660 580 CURVE",
"920 580 LINE",
"920 920 OFFCURVE",
"690 1000 OFFCURVE",
"490 1000 CURVE",
"470 744 LINE"
);
},
{
closed = 1;
nodes = (
"490 1000 LINE",
"470 744 LINE"
);
},
{
closed = 1;
nodes = (
"320 508 LINE",
"60 508 LINE",
"60 420 LINE",
"320 420 LINE"
);
},
{
closed = 1;
nodes = (
"384 256 OFFCURVE",
"320 272 OFFCURVE",
"320 420 CURVE",
"60 420 LINE",
"60 80 OFFCURVE",
"290 0 OFFCURVE",
"490 0 CURVE",
"510 256 LINE"
);
},
{
closed = 1;
nodes = (
"490 0 LINE",
"510 256 LINE"
);
},
{
closed = 1;
nodes = (
"60 508 LINE",
"320 508 LINE"
);
},
{
closed = 1;
nodes = (
"60 508 LINE",
"320 508 LINE"
);
},
{
closed = 1;
nodes = (
"60 508 LINE",
"320 508 LINE"
);
},
{
closed = 1;
nodes = (
"490 1000 LINE",
"510 744 LINE"
);
},
{
closed = 1;
nodes = (
"60 580 LINE",
"60 508 LINE",
"320 508 LINE",
"320 580 LINE"
);
},
{
closed = 1;
nodes = (
"490 1000 LINE",
"290 1000 OFFCURVE",
"60 920 OFFCURVE",
"60 580 CURVE",
"320 580 LINE",
"320 728 OFFCURVE",
"384 744 OFFCURVE",
"510 744 CURVE"
);
}
);
width = 980;
}
);
unicode = 006F;
},
{
glyphname = odieresis;
lastChange = "2021-04-19 20:45:26 +0000";
layers = (
{
components = (
{
name = dieresiscomb;
transform = "{1, 0, 0, 1, 18, 0}";
}
);
layerId = "A833981A-68C5-4528-81CD-92C717829696";
paths = (
{
closed = 1;
nodes = (
"920 420 LINE",
"920 508 LINE",
"658 508 LINE",
"658 420 LINE"
);
},
{
closed = 1;
nodes = (
"490 0 LINE",
"690 0 OFFCURVE",
"920 80 OFFCURVE",
"920 420 CURVE",
"658 420 LINE",
"658 272 OFFCURVE",
"596 256 OFFCURVE",
"470 256 CURVE"
);
},
{
closed = 1;
nodes = (
"490 0 LINE",
"470 256 LINE"
);
},
{
closed = 1;
nodes = (
"658 508 LINE",
"920 508 LINE"
);
},
{
closed = 1;
nodes = (
"658 508 LINE",
"920 508 LINE",
"920 580 LINE",
"658 580 LINE"
);
},
{
closed = 1;
nodes = (
"596 744 OFFCURVE",
"658 728 OFFCURVE",
"658 580 CURVE",
"920 580 LINE",
"920 920 OFFCURVE",
"690 1000 OFFCURVE",
"490 1000 CURVE",
"470 744 LINE"
);
},
{
closed = 1;
nodes = (
"490 1000 LINE",
"470 744 LINE"
);
},
{
closed = 1;
nodes = (
"322 508 LINE",
"60 508 LINE",
"60 420 LINE",
"322 420 LINE"
);
},
{
closed = 1;
nodes = (
"384 256 OFFCURVE",
"322 272 OFFCURVE",
"322 420 CURVE",
"60 420 LINE",
"60 80 OFFCURVE",
"290 0 OFFCURVE",
"490 0 CURVE",
"510 256 LINE"
);
},
{
closed = 1;
nodes = (
"490 0 LINE",
"510 256 LINE"
);
},
{
closed = 1;
nodes = (
"60 508 LINE",
"322 508 LINE"
);
},
{
closed = 1;
nodes = (
"60 508 LINE",
"322 508 LINE"
);
},
{
closed = 1;
nodes = (
"60 508 LINE",
"322 508 LINE"
);
},
{
closed = 1;
nodes = (
"490 1000 LINE",
"510 744 LINE"
);
},
{
closed = 1;
nodes = (
"60 580 LINE",
"60 508 LINE",
"322 508 LINE",
"322 580 LINE"
);
},
{
closed = 1;
nodes = (
"490 1000 LINE",
"290 1000 OFFCURVE",
"60 920 OFFCURVE",
"60 580 CURVE",
"322 580 LINE",
"322 728 OFFCURVE",
"384 744 OFFCURVE",
"510 744 CURVE"
);
}
);
width = 980;
}
);
unicode = 00F6;
},
{
glyphname = oe;
lastChange = "2021-04-21 22:35:25 +0000";
layers = (
{
layerId = "A833981A-68C5-4528-81CD-92C717829696";
paths = (
{
closed = 0;
nodes = (
"920 56 LINE"
);
},
{
closed = 0;
nodes = (
"920 56 LINE"
);
},
{
closed = 0;
nodes = (
"920 56 LINE"
);
},
{
closed = 1;
nodes = (
"60 80 OFFCURVE",
"290 0 OFFCURVE",
"490 0 CURVE SMOOTH",
"598.561 0 OFFCURVE",
"715.962 23.571 OFFCURVE",
"800.619 99.501 CURVE",
"873.602 36.103 OFFCURVE",
"968.616 0 OFFCURVE",
"1070 0 CURVE SMOOTH",
"1314 0 OFFCURVE",
"1383 45 OFFCURVE",
"1459 167 CURVE",
"1286 314 LINE",
"1234 240 OFFCURVE",
"1136 256 OFFCURVE",
"1070 256 CURVE SMOOTH",
"978.946 256 OFFCURVE",
"925.676 308.178 OFFCURVE",
"920.428 404 CURVE",
"1500 404 LINE",
"1500 580 LINE SMOOTH",
"1500 848 OFFCURVE",
"1314 1000 OFFCURVE",
"1070 1000 CURVE SMOOTH",
"968.616 1000 OFFCURVE",
"873.602 963.897 OFFCURVE",
"800.619 900.499 CURVE",
"715.962 976.429 OFFCURVE",
"598.561 1000 OFFCURVE",
"490 1000 CURVE SMOOTH",
"290 1000 OFFCURVE",
"60 920 OFFCURVE",
"60 580 CURVE SMOOTH",
"60 420 LINE SMOOTH"
);
},
{
closed = 1;
nodes = (
"320 580 LINE SMOOTH",
"320 719.954 OFFCURVE",
"377.23 741.87 OFFCURVE",
"490 743.839 CURVE",
"602.77 741.87 OFFCURVE",
"660 719.954 OFFCURVE",
"660 580 CURVE SMOOTH",
"660 420 LINE SMOOTH",
"660 280.046 OFFCURVE",
"602.77 258.13 OFFCURVE",
"490 256.161 CURVE",
"377.23 258.13 OFFCURVE",
"320 280.046 OFFCURVE",
"320 420 CURVE SMOOTH"
);
},
{
closed = 1;
nodes = (
"920 686 OFFCURVE",
"974 744 OFFCURVE",
"1070 744 CURVE SMOOTH",
"1196 744 OFFCURVE",
"1240 688 OFFCURVE",
"1240 580 CURVE",
"920 580 LINE"
);
}
);
width = 1560;
}
);
unicode = 0153;
},
{
glyphname = p;
lastChange = "2021-04-22 21:58:50 +0000";
layers = (
{
layerId = "A833981A-68C5-4528-81CD-92C717829696";
paths = (
{
closed = 1;
nodes = (
"60 -400 LINE",
"320 -400 LINE",
"320 944 LINE",
"298 1000 LINE",
"60 1000 LINE"
);
},
{
closed = 0;
nodes = (
"320 944 LINE",
"298 1000 LINE"
);
},
{
closed = 0;
nodes = (
"320 944 LINE"
);
},
{
closed = 0;
nodes = (
"320 944 LINE",
"298 1000 LINE"
);
},
{
closed = 1;
nodes = (
"898 580 LINE",
"638 580 LINE"
);
},
{
closed = 1;
nodes = (
"576 744 OFFCURVE",
"638 728 OFFCURVE",
"638 580 CURVE",
"898 580 LINE",
"898 920 OFFCURVE",
"670 1000 OFFCURVE",
"470 1000 CURVE",
"450 744 LINE"
);
},
{
closed = 1;
nodes = (
"470 1000 LINE",
"250 1000 OFFCURVE",
"170 744 OFFCURVE",
"170 580 CURVE",
"320 580 LINE",
"320 686 OFFCURVE",
"354 744 OFFCURVE",
"450 744 CURVE"
);
},
{
closed = 1;
nodes = (
"898 420 LINE",
"638 420 LINE"
);
},
{
closed = 1;
nodes = (
"470 0 LINE",
"670 0 OFFCURVE",
"898 80 OFFCURVE",
"898 420 CURVE",
"638 420 LINE",
"638 272 OFFCURVE",
"576 256 OFFCURVE",
"450 256 CURVE"
);
},
{
closed = 1;
nodes = (
"354 256 OFFCURVE",
"320 314 OFFCURVE",
"320 420 CURVE",
"170 420 LINE",
"170 256 OFFCURVE",
"250 0 OFFCURVE",
"470 0 CURVE",
"450 256 LINE"
);
},
{
closed = 1;
nodes = (
"638 420 LINE",
"898 420 LINE",
"898 580 LINE",
"638 580 LINE"
);
}
);
width = 958;
}
);
unicode = 0070;
},
{
glyphname = thorn;
lastChange = "2021-04-19 18:17:16 +0000";
layers = (
{
layerId = "A833981A-68C5-4528-81CD-92C717829696";
paths = (
{
closed = 1;
nodes = (
"123 -400 LINE",
"383 -400 LINE",
"383 1400 LINE",
"123 1400 LINE"
);
},
{
closed = 1;
nodes = (
"963 580 LINE",
"701 580 LINE"
);
},
{
closed = 1;
nodes = (
"639 744 OFFCURVE",
"701 728 OFFCURVE",
"701 580 CURVE",
"963 580 LINE",
"963 920 OFFCURVE",
"733 1000 OFFCURVE",
"533 1000 CURVE",
"513 744 LINE"
);
},
{
closed = 1;
nodes = (
"533 1000 LINE",
"313 1000 OFFCURVE",
"233 830 OFFCURVE",
"233 580 CURVE",
"383 580 LINE",
"383 686 OFFCURVE",
"417 744 OFFCURVE",
"513 744 CURVE"
);
},
{
closed = 1;
nodes = (
"417 256 OFFCURVE",
"383 314 OFFCURVE",
"383 420 CURVE",
"233 420 LINE",
"233 170 OFFCURVE",
"313 0 OFFCURVE",
"533 0 CURVE",
"513 256 LINE"
);
},
{
closed = 1;
nodes = (
"963 420 LINE",
"701 420 LINE"
);
},
{
closed = 1;
nodes = (
"533 0 LINE",
"733 0 OFFCURVE",
"963 80 OFFCURVE",
"963 420 CURVE",
"701 420 LINE",
"701 272 OFFCURVE",
"639 256 OFFCURVE",
"513 256 CURVE"
);
},
{
closed = 1;
nodes = (
"417 256 OFFCURVE",
"383 314 OFFCURVE",
"383 420 CURVE",
"233 420 LINE",
"233 170 OFFCURVE",
"313 0 OFFCURVE",
"533 0 CURVE",
"513 256 LINE"
);
},
{
closed = 1;
nodes = (
"701 420 LINE",
"963 420 LINE",
"963 580 LINE",
"701 580 LINE"
);
}
);
width = 1200;
}
);
unicode = 00FE;
},
{
glyphname = q;
lastChange = "2021-04-21 22:36:24 +0000";
layers = (
{
layerId = "A833981A-68C5-4528-81CD-92C717829696";
paths = (
{
closed = 1;
nodes = (
"662 1000 LINE",
"640 944 LINE",
"640 -400 LINE",
"900 -400 LINE",
"900 1000 LINE"
);
},
{
closed = 1;
nodes = (
"60 580 LINE",
"60 492 LINE",
"322 492 LINE",
"322 580 LINE"
);
},
{
closed = 1;
nodes = (
"490 1000 LINE",
"290 1000 OFFCURVE",
"60 920 OFFCURVE",
"60 580 CURVE",
"322 580 LINE",
"322 728 OFFCURVE",
"384 744 OFFCURVE",
"510 744 CURVE"
);
},
{
closed = 1;
nodes = (
"606 744 OFFCURVE",
"640 686 OFFCURVE",
"640 580 CURVE",
"790 580 LINE",
"790 830 OFFCURVE",
"710 1000 OFFCURVE",
"490 1000 CURVE",
"510 744 LINE"
);
},
{
closed = 0;
nodes = (
"640 944 LINE",
"662 1000 LINE"
);
},
{
closed = 1;
nodes = (
"60 580 LINE",
"60 492 LINE",
"322 492 LINE",
"322 580 LINE"
);
},
{
closed = 1;
nodes = (
"490 1000 LINE",
"290 1000 OFFCURVE",
"60 920 OFFCURVE",
"60 580 CURVE",
"322 580 LINE",
"322 728 OFFCURVE",
"384 744 OFFCURVE",
"510 744 CURVE"
);
},
{
closed = 1;
nodes = (
"606 744 OFFCURVE",
"640 686 OFFCURVE",
"640 580 CURVE",
"790 580 LINE",
"790 830 OFFCURVE",
"710 1000 OFFCURVE",
"490 1000 CURVE",
"510 744 LINE"
);
},
{
closed = 0;
nodes = (
"640 944 LINE"
);
},
{
closed = 1;
nodes = (
"60 580 LINE",
"60 492 LINE",
"322 492 LINE",
"322 580 LINE"
);
},
{
closed = 1;
nodes = (
"490 1000 LINE",
"290 1000 OFFCURVE",
"60 920 OFFCURVE",
"60 580 CURVE",
"322 580 LINE",
"322 728 OFFCURVE",
"384 744 OFFCURVE",
"510 744 CURVE"
);
},
{
closed = 1;
nodes = (
"606 744 OFFCURVE",
"640 686 OFFCURVE",
"640 580 CURVE",
"790 580 LINE",
"790 830 OFFCURVE",
"710 1000 OFFCURVE",
"490 1000 CURVE",
"510 744 LINE"
);
},
{
closed = 0;
nodes = (
"640 944 LINE",
"662 1000 LINE"
);
},
{
closed = 1;
nodes = (
"60 580 LINE",
"60 492 LINE",
"322 492 LINE",
"322 580 LINE"
);
},
{
closed = 1;
nodes = (
"490 1000 LINE",
"290 1000 OFFCURVE",
"60 920 OFFCURVE",
"60 580 CURVE",
"322 580 LINE",
"322 728 OFFCURVE",
"384 744 OFFCURVE",
"510 744 CURVE"
);
},
{
closed = 1;
nodes = (
"606 744 OFFCURVE",
"640 686 OFFCURVE",
"640 580 CURVE",
"790 580 LINE",
"790 830 OFFCURVE",
"710 1000 OFFCURVE",
"490 1000 CURVE",
"510 744 LINE"
);
},
{
closed = 1;
nodes = (
"322 492 LINE",
"60 492 LINE",
"60 420 LINE",
"322 420 LINE"
);
},
{
closed = 1;
nodes = (
"384 256 OFFCURVE",
"322 272 OFFCURVE",
"322 420 CURVE",
"60 420 LINE",
"60 80 OFFCURVE",
"290 0 OFFCURVE",
"490 0 CURVE",
"510 256 LINE"
);
},
{
closed = 1;
nodes = (
"490 0 LINE",
"710 0 OFFCURVE",
"790 170 OFFCURVE",
"790 420 CURVE",
"640 420 LINE",
"640 314 OFFCURVE",
"606 256 OFFCURVE",
"510 256 CURVE"
);
},
{
closed = 1;
nodes = (
"322 492 LINE",
"60 492 LINE",
"60 420 LINE",
"322 420 LINE"
);
},
{
closed = 1;
nodes = (
"384 256 OFFCURVE",
"322 272 OFFCURVE",
"322 420 CURVE",
"60 420 LINE",
"60 80 OFFCURVE",
"290 0 OFFCURVE",
"490 0 CURVE",
"510 256 LINE"
);
},
{
closed = 1;
nodes = (
"490 0 LINE",
"710 0 OFFCURVE",
"790 170 OFFCURVE",
"790 420 CURVE",
"640 420 LINE",
"640 314 OFFCURVE",
"606 256 OFFCURVE",
"510 256 CURVE"
);
},
{
closed = 1;
nodes = (
"322 492 LINE",
"60 492 LINE",
"60 420 LINE",
"322 420 LINE"
);
},
{
closed = 1;
nodes = (
"384 256 OFFCURVE",
"322 272 OFFCURVE",
"322 420 CURVE",
"60 420 LINE",
"60 80 OFFCURVE",
"290 0 OFFCURVE",
"490 0 CURVE",
"510 256 LINE"
);
},
{
closed = 1;
nodes = (
"490 0 LINE",
"710 0 OFFCURVE",
"790 170 OFFCURVE",
"790 420 CURVE",
"640 420 LINE",
"640 314 OFFCURVE",
"606 256 OFFCURVE",
"510 256 CURVE"
);
},
{
closed = 1;
nodes = (
"322 492 LINE",
"60 492 LINE",
"60 420 LINE",
"322 420 LINE"
);
},
{
closed = 1;
nodes = (
"384 256 OFFCURVE",
"322 272 OFFCURVE",
"322 420 CURVE",
"60 420 LINE",
"60 80 OFFCURVE",
"290 0 OFFCURVE",
"490 0 CURVE",
"510 256 LINE"
);
},
{
closed = 1;
nodes = (
"490 0 LINE",
"710 0 OFFCURVE",
"790 170 OFFCURVE",
"790 420 CURVE",
"640 420 LINE",
"640 314 OFFCURVE",
"606 256 OFFCURVE",
"510 256 CURVE"
);
}
);
width = 960;
}
);
unicode = 0071;
},
{
glyphname = r;
lastChange = "2021-04-25 10:22:19 +0000";
layers = (
{
layerId = "A833981A-68C5-4528-81CD-92C717829696";
paths = (
{
closed = 1;
nodes = (
"60 0 LINE",
"320 0 LINE",
"320 944 LINE",
"298 1000 LINE",
"60 1000 LINE"
);
},
{
closed = 1;
nodes = (
"898 580 LINE",
"638 580 LINE"
);
},
{
closed = 1;
nodes = (
"576 744 OFFCURVE",
"638 728 OFFCURVE",
"638 580 CURVE",
"898 580 LINE",
"898 920 OFFCURVE",
"670 1000 OFFCURVE",
"470 1000 CURVE",
"450 744 LINE"
);
},
{
closed = 1;
nodes = (
"470 1000 LINE",
"250 1000 OFFCURVE",
"170 830 OFFCURVE",
"170 580 CURVE",
"320 580 LINE",
"320 686 OFFCURVE",
"354 744 OFFCURVE",
"450 744 CURVE"
);
},
{
closed = 1;
nodes = (
"898 580 LINE",
"638 580 LINE"
);
},
{
closed = 1;
nodes = (
"576 744 OFFCURVE",
"638 728 OFFCURVE",
"638 580 CURVE",
"898 580 LINE",
"898 920 OFFCURVE",
"670 1000 OFFCURVE",
"470 1000 CURVE",
"450 744 LINE"
);
},
{
closed = 1;
nodes = (
"470 1000 LINE",
"250 1000 OFFCURVE",
"170 830 OFFCURVE",
"170 580 CURVE",
"320 580 LINE",
"320 686 OFFCURVE",
"354 744 OFFCURVE",
"450 744 CURVE"
);
},
{
closed = 1;
nodes = (
"898 580 LINE",
"638 580 LINE"
);
},
{
closed = 1;
nodes = (
"576 744 OFFCURVE",
"638 728 OFFCURVE",
"638 580 CURVE",
"898 580 LINE",
"898 920 OFFCURVE",
"670 1000 OFFCURVE",
"470 1000 CURVE",
"450 744 LINE"
);
},
{
closed = 1;
nodes = (
"470 1000 LINE",
"250 1000 OFFCURVE",
"170 830 OFFCURVE",
"170 580 CURVE",
"320 580 LINE",
"320 686 OFFCURVE",
"354 744 OFFCURVE",
"450 744 CURVE"
);
},
{
closed = 1;
nodes = (
"898 580 LINE",
"638 580 LINE"
);
},
{
closed = 1;
nodes = (
"576 744 OFFCURVE",
"638 728 OFFCURVE",
"638 580 CURVE",
"898 580 LINE",
"898 920 OFFCURVE",
"670 1000 OFFCURVE",
"470 1000 CURVE",
"450 744 LINE"
);
},
{
closed = 1;
nodes = (
"470 1000 LINE",
"250 1000 OFFCURVE",
"170 830 OFFCURVE",
"170 580 CURVE",
"320 580 LINE",
"320 686 OFFCURVE",
"354 744 OFFCURVE",
"450 744 CURVE"
);
}
);
width = 958;
}
);
unicode = 0072;
},
{
glyphname = s;
lastChange = "2021-04-25 10:11:33 +0000";
layers = (
{
components = (
{
name = yarimS;
transform = "{1.03382, 0, 0, 1, -19, 0}";
}
);
layerId = "A833981A-68C5-4528-81CD-92C717829696";
paths = (
{
closed = 1;
nodes = (
"340 322 LINE",
"340 268 OFFCURVE",
"389 210 OFFCURVE",
"491 210 CURVE SMOOTH",
"591 210 OFFCURVE",
"669 242 OFFCURVE",
"669 296 CURVE SMOOTH",
"669 346 OFFCURVE",
"640 404 OFFCURVE",
"490 404 CURVE SMOOTH",
"229 404 OFFCURVE",
"61 540 OFFCURVE",
"61 704 CURVE SMOOTH",
"61 872 OFFCURVE",
"259 1000 OFFCURVE",
"490 1000 CURVE SMOOTH",
"728 1000 OFFCURVE",
"920 848 OFFCURVE",
"920 680 CURVE",
"640 680 LINE",
"640 730 OFFCURVE",
"592 790 OFFCURVE",
"490 790 CURVE SMOOTH",
"388 790 OFFCURVE",
"308 754 OFFCURVE",
"308 704 CURVE SMOOTH",
"308 650 OFFCURVE",
"340 596 OFFCURVE",
"490 596 CURVE SMOOTH",
"751 596 OFFCURVE",
"915 460 OFFCURVE",
"915 296 CURVE SMOOTH",
"915 130 OFFCURVE",
"721 0 OFFCURVE",
"490 0 CURVE SMOOTH",
"274 0 OFFCURVE",
"60 156 OFFCURVE",
"60 322 CURVE"
);
}
);
width = 980;
}
);
unicode = 0073;
},
{
glyphname = scedilla;
lastChange = "2021-04-23 00:41:33 +0000";
layers = (
{
components = (
{
name = s;
}
);
layerId = "A833981A-68C5-4528-81CD-92C717829696";
paths = (
{
closed = 1;
nodes = (
"627 25 LINE",
"627 -138 OFFCURVE",
"513 -274 OFFCURVE",
"377 -273 CURVE",
"214 -138 LINE",
"320 -138 OFFCURVE",
"367 -61 OFFCURVE",
"367 25 CURVE"
);
}
);
width = 916;
}
);
unicode = 015F;
},
{
glyphname = scommaaccent;
lastChange = "2021-04-23 00:41:56 +0000";
layers = (
{
components = (
{
name = s;
}
);
layerId = "A833981A-68C5-4528-81CD-92C717829696";
paths = (
{
closed = 1;
nodes = (
"638 22 LINE",
"638 -66 OFFCURVE",
"554 -318 OFFCURVE",
"330 -316 CURVE",
"134 -180 LINE",
"290 -180 OFFCURVE",
"362 -64 OFFCURVE",
"362 22 CURVE"
);
}
);
width = 916;
}
);
unicode = 0219;
},
{
glyphname = germandbls;
lastChange = "2021-04-25 10:07:52 +0000";
layers = (
{
layerId = "A833981A-68C5-4528-81CD-92C717829696";
paths = (
{
closed = 1;
nodes = (
"60 -2 LINE",
"320 -2 LINE",
"320 1398 LINE",
"150 1398 LINE",
"60 1398 OFFCURVE",
"60 1318 OFFCURVE",
"60 1260 CURVE"
);
},
{
closed = 1;
nodes = (
"570 558 LINE",
"570 818 LINE",
"442 818 LINE",
"442 558 LINE"
);
},
{
closed = 1;
nodes = (
"570 1138 LINE",
"570 1398 LINE",
"198 1398 LINE",
"198 1138 LINE"
);
},
{
closed = 1;
nodes = (
"570 558 LINE",
"1012 558 OFFCURVE",
"1010 1398 OFFCURVE",
"570 1398 CURVE",
"570 1138 LINE",
"700 1138 OFFCURVE",
"700 818 OFFCURVE",
"570 818 CURVE"
);
},
{
closed = 1;
nodes = (
"612 -2 LINE",
"1050 -2 OFFCURVE",
"1048 818 OFFCURVE",
"612 818 CURVE",
"570 558 LINE",
"700 558 OFFCURVE",
"700 256 OFFCURVE",
"570 256 CURVE"
);
},
{
closed = 1;
nodes = (
"612 -2 LINE",
"570 256 LINE",
"442 258 LINE",
"442 -2 LINE"
);
}
);
width = 1000;
}
);
unicode = 00DF;
},
{
glyphname = t;
lastChange = "2021-04-25 10:11:29 +0000";
layers = (
{
layerId = "A833981A-68C5-4528-81CD-92C717829696";
paths = (
{
closed = 1;
nodes = (
"330 430 LINE",
"590 48 LINE",
"590 1400 LINE",
"330 1370 LINE"
);
},
{
closed = 1;
nodes = (
"60 1000 LINE",
"60 740 LINE",
"860 740 LINE",
"860 1000 LINE"
);
},
{
closed = 1;
nodes = (
"330 430 LINE",
"330 230 OFFCURVE",
"420 0 OFFCURVE",
"760 0 CURVE",
"760 260 LINE",
"612 260 OFFCURVE",
"590 324 OFFCURVE",
"590 450 CURVE"
);
}
);
width = 920;
}
);
unicode = 0074;
},
{
glyphname = tbar;
lastChange = "2021-04-22 20:58:19 +0000";
layers = (
{
components = (
{
name = t;
}
);
layerId = "A833981A-68C5-4528-81CD-92C717829696";
paths = (
{
closed = 1;
nodes = (
"60 356 LINE",
"860 356 LINE",
"860 596 LINE",
"60 596 LINE"
);
}
);
width = 920;
}
);
unicode = 0167;
},
{
glyphname = u;
lastChange = "2021-04-25 10:11:25 +0000";
layers = (
{
layerId = "A833981A-68C5-4528-81CD-92C717829696";
paths = (
{
closed = 1;
nodes = (
"900 1000 LINE",
"640 1000 LINE",
"640 56 LINE",
"662 0 LINE",
"900 0 LINE"
);
},
{
closed = 1;
nodes = (
"320 1000 LINE",
"60 1000 LINE",
"60 420 LINE",
"320 420 LINE"
);
},
{
closed = 1;
nodes = (
"384 256 OFFCURVE",
"320 272 OFFCURVE",
"320 420 CURVE",
"60 420 LINE",
"60 80 OFFCURVE",
"290 0 OFFCURVE",
"490 0 CURVE",
"510 256 LINE"
);
},
{
closed = 1;
nodes = (
"490 0 LINE",
"710 0 OFFCURVE",
"790 170 OFFCURVE",
"790 420 CURVE",
"640 420 LINE",
"640 314 OFFCURVE",
"606 256 OFFCURVE",
"510 256 CURVE"
);
}
);
width = 960;
}
);
unicode = 0075;
},
{
glyphname = udieresis;
lastChange = "2021-04-21 21:23:00 +0000";
layers = (
{
components = (
{
name = dieresiscomb;
}
);
layerId = "A833981A-68C5-4528-81CD-92C717829696";
paths = (
{
closed = 1;
nodes = (
"900 1001 LINE",
"640 1001 LINE",
"640 56 LINE",
"662 0 LINE",
"900 0 LINE"
);
},
{
closed = 1;
nodes = (
"320 1001 LINE",
"60 1001 LINE",
"60 421 LINE",
"322 421 LINE"
);
},
{
closed = 1;
nodes = (
"384 256 OFFCURVE",
"322 272 OFFCURVE",
"322 421 CURVE",
"60 421 LINE",
"60 80 OFFCURVE",
"290 0 OFFCURVE",
"490 0 CURVE",
"510 256 LINE"
);
},
{
closed = 1;
nodes = (
"490 0 LINE",
"710 0 OFFCURVE",
"790 170 OFFCURVE",
"790 421 CURVE",
"640 421 LINE",
"640 314 OFFCURVE",
"606 256 OFFCURVE",
"510 256 CURVE"
);
}
);
width = 960;
}
);
unicode = 00FC;
},
{
glyphname = v;
lastChange = "2021-04-24 15:04:23 +0000";
layers = (
{
layerId = "A833981A-68C5-4528-81CD-92C717829696";
paths = (
{
closed = 1;
nodes = (
"351 0 LINE",
"611 0 LINE",
"320 1000 LINE",
"60 1000 LINE"
);
},
{
closed = 1;
nodes = (
"351 0 LINE",
"611 0 LINE",
"921 900 LINE",
"661 900 LINE"
);
},
{
closed = 1;
nodes = (
"661 900 LINE",
"921 900 LINE",
"921 1000 LINE",
"661 1000 LINE"
);
}
);
width = 981;
}
);
unicode = 0076;
},
{
glyphname = w;
lastChange = "2021-04-25 10:22:45 +0000";
layers = (
{
layerId = "A833981A-68C5-4528-81CD-92C717829696";
paths = (
{
closed = 1;
nodes = (
"352 0 LINE",
"612 0 LINE",
"320 1000 LINE",
"60 1000 LINE"
);
},
{
closed = 1;
nodes = (
"351 0 LINE",
"612 0 LINE",
"923 900 LINE",
"663 900 LINE"
);
},
{
closed = 0;
nodes = (
"351 0 LINE",
"612 0 LINE"
);
},
{
closed = 1;
nodes = (
"663 900 LINE",
"923 900 LINE",
"923 1000 LINE",
"663 1000 LINE"
);
},
{
closed = 0;
nodes = (
"351 0 LINE",
"612 0 LINE"
);
},
{
closed = 1;
nodes = (
"966 0 LINE",
"1226 0 LINE",
"923 1000 LINE",
"663 1000 LINE"
);
},
{
closed = 1;
nodes = (
"1276 900 LINE",
"1536 900 LINE",
"1536 1000 LINE",
"1276 1000 LINE"
);
},
{
closed = 1;
nodes = (
"966 0 LINE"
);
},
{
closed = 0;
nodes = (
"966 0 LINE",
"1226 0 LINE"
);
},
{
closed = 1;
nodes = (
"966 0 LINE",
"1226 0 LINE"
);
},
{
closed = 1;
nodes = (
"966 0 LINE",
"1226 0 LINE",
"1536 900 LINE",
"1276 900 LINE"
);
}
);
width = 1596;
}
);
unicode = 0077;
},
{
glyphname = x;
lastChange = "2021-04-25 10:05:50 +0000";
layers = (
{
layerId = "A833981A-68C5-4528-81CD-92C717829696";
paths = (
{
closed = 1;
nodes = (
"653 0 LINE",
"913 0 LINE",
"320 1000 LINE",
"60 1000 LINE"
);
},
{
closed = 1;
nodes = (
"60 0 LINE",
"320 0 LINE",
"913 900 LINE",
"653 900 LINE"
);
},
{
closed = 1;
nodes = (
"653 900 LINE",
"913 900 LINE",
"913 1000 LINE",
"653 1000 LINE"
);
}
);
width = 973;
}
);
unicode = 0078;
},
{
glyphname = y;
lastChange = "2021-04-25 10:08:51 +0000";
layers = (
{
layerId = "A833981A-68C5-4528-81CD-92C717829696";
paths = (
{
closed = 1;
nodes = (
"351 0 LINE",
"611 0 LINE",
"320 1000 LINE",
"60 1000 LINE"
);
},
{
closed = 1;
nodes = (
"351 0 LINE",
"611 0 LINE",
"921 900 LINE",
"661 900 LINE"
);
},
{
closed = 1;
nodes = (
"661 900 LINE",
"921 900 LINE",
"921 1000 LINE",
"661 1000 LINE"
);
},
{
closed = 1;
nodes = (
"361 -36 OFFCURVE",
"309 -170 OFFCURVE",
"151 -170 CURVE",
"151 -400 LINE",
"385 -400 OFFCURVE",
"507 -320 OFFCURVE",
"611 0 CURVE",
"351 0 LINE"
);
}
);
width = 981;
}
);
unicode = 0079;
},
{
glyphname = z;
lastChange = "2021-04-19 20:47:35 +0000";
layers = (
{
layerId = "A833981A-68C5-4528-81CD-92C717829696";
paths = (
{
closed = 1;
nodes = (
"60 240 LINE",
"413 240 LINE",
"915 770 LINE",
"553 770 LINE"
);
},
{
closed = 1;
nodes = (
"62 770 LINE",
"915 770 LINE",
"915 1000 LINE",
"62 1000 LINE"
);
},
{
closed = 0;
nodes = (
"915 0 LINE"
);
},
{
closed = 1;
nodes = (
"62 0 LINE",
"915 0 LINE",
"915 240 LINE",
"62 240 LINE"
);
}
);
width = 975;
}
);
unicode = 007A;
},
{
glyphname = zcaron;
lastChange = "2021-04-22 21:02:02 +0000";
layers = (
{
components = (
{
name = caroncomb;
transform = "{1, 0, 0, 1, -37, 0}";
}
);
layerId = "A833981A-68C5-4528-81CD-92C717829696";
paths = (
{
closed = 1;
nodes = (
"60 240 LINE",
"413 240 LINE",
"915 771 LINE",
"553 771 LINE"
);
},
{
closed = 1;
nodes = (
"62 771 LINE",
"915 771 LINE",
"915 1001 LINE",
"62 1001 LINE"
);
},
{
closed = 0;
nodes = (
"915 0 LINE"
);
},
{
closed = 1;
nodes = (
"62 0 LINE",
"915 0 LINE",
"915 240 LINE",
"62 240 LINE"
);
}
);
width = 975;
}
);
unicode = 017E;
},
{
glyphname = zero;
lastChange = "2021-04-25 10:29:40 +0000";
layers = (
{
layerId = "A833981A-68C5-4528-81CD-92C717829696";
paths = (
{
closed = 0;
nodes = (
"509 0 LINE"
);
},
{
closed = 0;
nodes = (
"509 0 LINE"
);
},
{
closed = 1;
nodes = (
"1109 0 OFFCURVE",
"1107 1400 OFFCURVE",
"509 1400 CURVE SMOOTH",
"-89 1400 OFFCURVE",
"-91 0 OFFCURVE",
"509 0 CURVE SMOOTH"
);
},
{
closed = 1;
nodes = (
"263 260 OFFCURVE",
"263 1142 OFFCURVE",
"509 1140 CURVE SMOOTH",
"755 1142 OFFCURVE",
"755 260 OFFCURVE",
"509 260 CURVE SMOOTH"
);
}
);
width = 1018;
}
);
unicode = 0030;
},
{
glyphname = one;
lastChange = "2021-04-25 10:30:11 +0000";
layers = (
{
layerId = "A833981A-68C5-4528-81CD-92C717829696";
paths = (
{
closed = 1;
nodes = (
"340 1120 LINE",
"340 0 LINE",
"600 0 LINE",
"600 1400 LINE",
"60 1340 LINE",
"60 1090 LINE"
);
}
);
width = 660;
}
);
unicode = 0031;
},
{
glyphname = two;
lastChange = "2021-04-25 10:29:53 +0000";
layers = (
{
layerId = "A833981A-68C5-4528-81CD-92C717829696";
paths = (
{
closed = 1;
nodes = (
"952 0 LINE",
"952 256 LINE",
"320 256 LINE",
"320 578 OFFCURVE",
"952 578 OFFCURVE",
"952 986 CURVE SMOOTH",
"952 1220 OFFCURVE",
"750 1400 OFFCURVE",
"506 1400 CURVE SMOOTH",
"256 1400 OFFCURVE",
"60 1220 OFFCURVE",
"60 986 CURVE",
"310 986 LINE",
"310 1056 OFFCURVE",
"400 1160 OFFCURVE",
"506 1160 CURVE SMOOTH",
"610 1160 OFFCURVE",
"694 1056 OFFCURVE",
"694 986 CURVE SMOOTH",
"694 720 OFFCURVE",
"60 720 OFFCURVE",
"60 256 CURVE SMOOTH",
"60 0 LINE"
);
}
);
width = 1012;
}
);
unicode = 0032;
},
{
glyphname = three;
lastChange = "2021-04-25 09:57:38 +0000";
layers = (
{
layerId = "A833981A-68C5-4528-81CD-92C717829696";
paths = (
{
closed = 1;
nodes = (
"750 0 OFFCURVE",
"952 180 OFFCURVE",
"952 414 CURVE",
"694 414 LINE",
"694 516 OFFCURVE",
"600 572 OFFCURVE",
"484 632 CURVE",
"484 702 LINE",
"784 702 LINE",
"880 630 OFFCURVE",
"952 552 OFFCURVE",
"952 414 CURVE",
"694 414 LINE",
"694 344 OFFCURVE",
"610 240 OFFCURVE",
"506 240 CURVE SMOOTH",
"400 240 OFFCURVE",
"310 344 OFFCURVE",
"310 414 CURVE",
"60 414 LINE",
"60 180 OFFCURVE",
"256 0 OFFCURVE",
"506 0 CURVE SMOOTH"
);
},
{
closed = 1;
nodes = (
"484 770 LINE",
"600 830 OFFCURVE",
"694 884 OFFCURVE",
"694 986 CURVE",
"952 986 LINE",
"952 1220 OFFCURVE",
"750 1400 OFFCURVE",
"506 1400 CURVE SMOOTH",
"256 1400 OFFCURVE",
"60 1220 OFFCURVE",
"60 986 CURVE",
"310 986 LINE",
"310 1056 OFFCURVE",
"400 1160 OFFCURVE",
"506 1160 CURVE SMOOTH",
"610 1160 OFFCURVE",
"694 1056 OFFCURVE",
"694 986 CURVE",
"952 986 LINE",
"952 848 OFFCURVE",
"880 774 OFFCURVE",
"784 702 CURVE",
"484 702 LINE"
);
}
);
width = 1012;
}
);
unicode = 0033;
},
{
glyphname = four;
lastChange = "2021-04-21 22:37:55 +0000";
layers = (
{
layerId = "A833981A-68C5-4528-81CD-92C717829696";
paths = (
{
closed = 1;
nodes = (
"536 0 LINE",
"796 0 LINE",
"796 1400 LINE",
"536 1400 LINE"
);
},
{
closed = 1;
nodes = (
"320 480 LINE",
"796 1400 LINE",
"536 1400 LINE",
"60 480 LINE"
);
},
{
closed = 1;
nodes = (
"60 480 LINE",
"60 220 LINE",
"952 220 LINE",
"952 480 LINE"
);
}
);
width = 1012;
}
);
unicode = 0034;
},
{
glyphname = five;
lastChange = "2021-04-21 22:38:01 +0000";
layers = (
{
layerId = "A833981A-68C5-4528-81CD-92C717829696";
paths = (
{
closed = 1;
nodes = (
"314 414 LINE",
"314 344 OFFCURVE",
"404 240 OFFCURVE",
"510 240 CURVE SMOOTH",
"614 240 OFFCURVE",
"692 344 OFFCURVE",
"692 494 CURVE",
"950 494 LINE",
"942 142 OFFCURVE",
"754 0 OFFCURVE",
"510 0 CURVE SMOOTH",
"260 0 OFFCURVE",
"64 180 OFFCURVE",
"64 414 CURVE"
);
},
{
closed = 1;
nodes = (
"136 1146 LINE",
"894 1142 LINE",
"894 1400 LINE",
"126 1400 LINE"
);
},
{
closed = 1;
nodes = (
"126 1400 LINE",
"60 656 LINE",
"314 656 LINE",
"376 1400 LINE"
);
},
{
closed = 1;
nodes = (
"692 494 LINE",
"950 494 LINE",
"950 494 LINE",
"692 494 LINE"
);
},
{
closed = 1;
nodes = (
"372 656 LINE",
"372 656 OFFCURVE",
"404 704 OFFCURVE",
"510 704 CURVE SMOOTH",
"622 704 OFFCURVE",
"692 644 OFFCURVE",
"692 494 CURVE",
"950 494 LINE",
"950 728 OFFCURVE",
"798 944 OFFCURVE",
"510 944 CURVE SMOOTH",
"128 944 OFFCURVE",
"322 742 OFFCURVE",
"60 656 CURVE"
);
}
);
width = 1010;
}
);
unicode = 0035;
},
{
glyphname = six;
lastChange = "2021-04-21 22:38:11 +0000";
layers = (
{
layerId = "A833981A-68C5-4528-81CD-92C717829696";
paths = (
{
closed = 1;
nodes = (
"950 260 OFFCURVE",
"812 0 OFFCURVE",
"500 0 CURVE SMOOTH",
"256 0 OFFCURVE",
"68 142 OFFCURVE",
"60 494 CURVE",
"318 494 LINE",
"318 344 OFFCURVE",
"396 240 OFFCURVE",
"500 240 CURVE SMOOTH",
"654 240 OFFCURVE",
"692 424 OFFCURVE",
"692 494 CURVE",
"950 494 LINE"
);
},
{
closed = 1;
nodes = (
"60 494 LINE",
"318 494 LINE"
);
},
{
closed = 1;
nodes = (
"652 1028 LINE",
"652 1098 OFFCURVE",
"654 1160 OFFCURVE",
"500 1160 CURVE SMOOTH",
"396 1160 OFFCURVE",
"318 1056 OFFCURVE",
"318 906 CURVE",
"60 906 LINE",
"68 1258 OFFCURVE",
"256 1400 OFFCURVE",
"500 1400 CURVE SMOOTH",
"812 1400 OFFCURVE",
"910 1262 OFFCURVE",
"910 1028 CURVE"
);
},
{
closed = 1;
nodes = (
"60 494 LINE",
"318 494 LINE",
"318 906 LINE",
"60 906 LINE"
);
},
{
closed = 1;
nodes = (
"510 704 LINE",
"622 704 OFFCURVE",
"692 644 OFFCURVE",
"692 494 CURVE",
"950 494 LINE",
"950 728 OFFCURVE",
"798 944 OFFCURVE",
"510 944 CURVE"
);
},
{
closed = 1;
nodes = (
"222 944 OFFCURVE",
"70 728 OFFCURVE",
"70 494 CURVE",
"318 494 LINE",
"318 644 OFFCURVE",
"398 704 OFFCURVE",
"510 704 CURVE",
"510 944 LINE"
);
}
);
width = 1010;
}
);
unicode = 0036;
},
{
glyphname = seven;
lastChange = "2021-04-25 10:31:11 +0000";
layers = (
{
layerId = "A833981A-68C5-4528-81CD-92C717829696";
paths = (
{
closed = 1;
nodes = (
"344 0 LINE",
"604 0 LINE",
"904 1400 LINE",
"642 1360 LINE"
);
},
{
closed = 1;
nodes = (
"60 1150 LINE",
"678 1150 LINE",
"904 1400 LINE",
"60 1400 LINE"
);
}
);
width = 964;
}
);
unicode = 0037;
},
{
glyphname = eight;
lastChange = "2021-04-21 22:38:22 +0000";
layers = (
{
layerId = "A833981A-68C5-4528-81CD-92C717829696";
paths = (
{
closed = 1;
nodes = (
"1125 0 OFFCURVE",
"1123 872 OFFCURVE",
"517 872 CURVE",
"517 672 LINE",
"811 672 OFFCURVE",
"811 236 OFFCURVE",
"517 236 CURVE",
"517 0 LINE"
);
},
{
closed = 1;
nodes = (
"517 236 LINE",
"221 236 OFFCURVE",
"221 672 OFFCURVE",
"517 672 CURVE",
"517 872 LINE",
"-91 872 OFFCURVE",
"-93 0 OFFCURVE",
"517 0 CURVE"
);
},
{
closed = 1;
nodes = (
"1125 672 OFFCURVE",
"1123 1420 OFFCURVE",
"517 1420 CURVE",
"517 1216 LINE",
"735 1216 OFFCURVE",
"811 872 OFFCURVE",
"517 872 CURVE",
"517 672 LINE"
);
},
{
closed = 1;
nodes = (
"517 872 LINE",
"221 872 OFFCURVE",
"297 1216 OFFCURVE",
"517 1216 CURVE",
"517 1420 LINE",
"-91 1420 OFFCURVE",
"-93 672 OFFCURVE",
"517 672 CURVE"
);
}
);
width = 1032;
}
);
unicode = 0038;
},
{
glyphname = nine;
lastChange = "2021-04-21 22:41:28 +0000";
layers = (
{
layerId = "A833981A-68C5-4528-81CD-92C717829696";
paths = (
{
closed = 1;
nodes = (
"60 672 OFFCURVE",
"212 456 OFFCURVE",
"500 456 CURVE SMOOTH",
"572.768 456 OFFCURVE",
"638 470 OFFCURVE",
"693 494 CURVE",
"693 344 OFFCURVE",
"604 240 OFFCURVE",
"500 240 CURVE SMOOTH",
"388 240 OFFCURVE",
"350 302 OFFCURVE",
"350 372 CURVE",
"90 372 LINE",
"90 138 OFFCURVE",
"188 0 OFFCURVE",
"500 0 CURVE SMOOTH",
"744 0 OFFCURVE",
"950 138 OFFCURVE",
"950 494 CURVE SMOOTH",
"950 906 LINE",
"942 1258 OFFCURVE",
"744 1400 OFFCURVE",
"500 1400 CURVE SMOOTH",
"188 1400 OFFCURVE",
"60 1140 OFFCURVE",
"60 906 CURVE SMOOTH"
);
},
{
closed = 1;
nodes = (
"318 976 OFFCURVE",
"346 1160 OFFCURVE",
"500 1160 CURVE SMOOTH",
"604 1160 OFFCURVE",
"693 1056 OFFCURVE",
"693 906 CURVE SMOOTH",
"693 756 OFFCURVE",
"612 696 OFFCURVE",
"500 696 CURVE SMOOTH",
"388 696 OFFCURVE",
"318 756 OFFCURVE",
"318 906 CURVE SMOOTH"
);
}
);
width = 1010;
}
);
unicode = 0039;
},
{
glyphname = fraction;
lastChange = "2021-04-24 13:06:01 +0000";
layers = (
{
layerId = "A833981A-68C5-4528-81CD-92C717829696";
paths = (
{
closed = 1;
nodes = (
"60 -155 LINE",
"320 -155 LINE",
"891 1527 LINE",
"631 1527 LINE"
);
}
);
width = 951;
}
);
unicode = 2044;
},
{
glyphname = period;
lastChange = "2021-04-22 22:39:07 +0000";
layers = (
{
layerId = "A833981A-68C5-4528-81CD-92C717829696";
paths = (
{
closed = 1;
nodes = (
"262 0 OFFCURVE",
"320 58 OFFCURVE",
"320 130 CURVE SMOOTH",
"320 202 OFFCURVE",
"262 260 OFFCURVE",
"190 260 CURVE SMOOTH",
"118 260 OFFCURVE",
"60 202 OFFCURVE",
"60 130 CURVE SMOOTH",
"60 58 OFFCURVE",
"118 0 OFFCURVE",
"190 0 CURVE SMOOTH"
);
}
);
width = 380;
}
);
unicode = 002E;
},
{
glyphname = comma;
lastChange = "2021-04-25 10:28:14 +0000";
layers = (
{
layerId = "A833981A-68C5-4528-81CD-92C717829696";
paths = (
{
closed = 1;
nodes = (
"402 0 OFFCURVE",
"460 58 OFFCURVE",
"460 130 CURVE SMOOTH",
"460 202 OFFCURVE",
"402 260 OFFCURVE",
"330 260 CURVE SMOOTH",
"258 260 OFFCURVE",
"200 202 OFFCURVE",
"200 130 CURVE SMOOTH",
"200 58 OFFCURVE",
"258 0 OFFCURVE",
"330 0 CURVE SMOOTH"
);
},
{
closed = 1;
nodes = (
"210 94 OFFCURVE",
"158 -174 OFFCURVE",
"0 -174 CURVE",
"54 -400 LINE",
"288 -400 OFFCURVE",
"356 -190 OFFCURVE",
"460 130 CURVE",
"374 130 OFFCURVE",
"286 130 OFFCURVE",
"200 130 CURVE"
);
}
);
width = 520;
}
);
unicode = 002C;
},
{
glyphname = colon;
lastChange = "2021-04-25 10:27:20 +0000";
layers = (
{
layerId = "A833981A-68C5-4528-81CD-92C717829696";
paths = (
{
closed = 1;
nodes = (
"266 0 OFFCURVE",
"324 58 OFFCURVE",
"324 130 CURVE SMOOTH",
"324 202 OFFCURVE",
"266 260 OFFCURVE",
"194 260 CURVE SMOOTH",
"122 260 OFFCURVE",
"64 202 OFFCURVE",
"64 130 CURVE SMOOTH",
"64 58 OFFCURVE",
"122 0 OFFCURVE",
"194 0 CURVE SMOOTH"
);
},
{
closed = 1;
nodes = (
"262 740 OFFCURVE",
"320 798 OFFCURVE",
"320 870 CURVE SMOOTH",
"320 942 OFFCURVE",
"262 1000 OFFCURVE",
"190 1000 CURVE SMOOTH",
"118 1000 OFFCURVE",
"60 942 OFFCURVE",
"60 870 CURVE SMOOTH",
"60 798 OFFCURVE",
"118 740 OFFCURVE",
"190 740 CURVE SMOOTH"
);
}
);
width = 384;
}
);
unicode = 003A;
},
{
glyphname = semicolon;
lastChange = "2021-04-25 10:21:49 +0000";
layers = (
{
layerId = "A833981A-68C5-4528-81CD-92C717829696";
paths = (
{
closed = 1;
nodes = (
"402 0 OFFCURVE",
"460 58 OFFCURVE",
"460 130 CURVE SMOOTH",
"460 202 OFFCURVE",
"402 260 OFFCURVE",
"330 260 CURVE SMOOTH",
"258 260 OFFCURVE",
"200 202 OFFCURVE",
"200 130 CURVE SMOOTH",
"200 58 OFFCURVE",
"258 0 OFFCURVE",
"330 0 CURVE SMOOTH"
);
},
{
closed = 1;
nodes = (
"210 94 OFFCURVE",
"158 -174 OFFCURVE",
"0 -174 CURVE",
"54 -400 LINE",
"288 -400 OFFCURVE",
"356 -190 OFFCURVE",
"460 130 CURVE",
"374 130 OFFCURVE",
"286 130 OFFCURVE",
"200 130 CURVE"
);
},
{
closed = 1;
nodes = (
"402 740 OFFCURVE",
"460 798 OFFCURVE",
"460 870 CURVE SMOOTH",
"460 942 OFFCURVE",
"402 1000 OFFCURVE",
"330 1000 CURVE SMOOTH",
"258 1000 OFFCURVE",
"200 942 OFFCURVE",
"200 870 CURVE SMOOTH",
"200 798 OFFCURVE",
"258 740 OFFCURVE",
"330 740 CURVE SMOOTH"
);
}
);
width = 520;
}
);
unicode = 003B;
},
{
glyphname = exclam;
lastChange = "2021-04-25 10:22:14 +0000";
layers = (
{
layerId = "A833981A-68C5-4528-81CD-92C717829696";
paths = (
{
closed = 1;
nodes = (
"244 0 OFFCURVE",
"302 58 OFFCURVE",
"302 130 CURVE SMOOTH",
"302 202 OFFCURVE",
"244 260 OFFCURVE",
"172 260 CURVE SMOOTH",
"100 260 OFFCURVE",
"42 202 OFFCURVE",
"42 130 CURVE SMOOTH",
"42 58 OFFCURVE",
"100 0 OFFCURVE",
"172 0 CURVE SMOOTH"
);
},
{
closed = 1;
nodes = (
"302 380 LINE",
"302 1400 LINE",
"42 1370 LINE",
"42 380 LINE"
);
}
);
width = 500;
}
);
unicode = 0021;
},
{
glyphname = exclamdown;
lastChange = "2021-04-19 19:06:28 +0000";
layers = (
{
layerId = "A833981A-68C5-4528-81CD-92C717829696";
paths = (
{
closed = 1;
nodes = (
"100 1200 OFFCURVE",
"42 1142 OFFCURVE",
"42 1070 CURVE SMOOTH",
"42 998 OFFCURVE",
"100 940 OFFCURVE",
"172 940 CURVE SMOOTH",
"244 940 OFFCURVE",
"302 998 OFFCURVE",
"302 1070 CURVE SMOOTH",
"302 1142 OFFCURVE",
"244 1200 OFFCURVE",
"172 1200 CURVE SMOOTH"
);
},
{
closed = 1;
nodes = (
"42 -170 LINE",
"302 -200 LINE",
"302 820 LINE",
"42 820 LINE"
);
}
);
width = 500;
}
);
unicode = 00A1;
},
{
glyphname = question;
lastChange = "2021-04-19 19:06:35 +0000";
layers = (
{
layerId = "A833981A-68C5-4528-81CD-92C717829696";
paths = (
{
closed = 1;
nodes = (
"124 1352 OFFCURVE",
"236 1400 OFFCURVE",
"356 1400 CURVE SMOOTH",
"600 1400 OFFCURVE",
"802 1220 OFFCURVE",
"802 986 CURVE SMOOTH",
"802 722 OFFCURVE",
"646 574 OFFCURVE",
"356 574 CURVE",
"356 824 LINE",
"460 824 OFFCURVE",
"544 910 OFFCURVE",
"544 986 CURVE SMOOTH",
"544 1056 OFFCURVE",
"488 1160 OFFCURVE",
"356 1160 CURVE SMOOTH",
"294 1160 OFFCURVE",
"246 1138 OFFCURVE",
"214 1106 CURVE",
"42 1278 LINE"
);
},
{
closed = 1;
nodes = (
"226 202 OFFCURVE",
"284 260 OFFCURVE",
"356 260 CURVE SMOOTH",
"428 260 OFFCURVE",
"486 202 OFFCURVE",
"486 130 CURVE SMOOTH",
"486 58 OFFCURVE",
"428 0 OFFCURVE",
"356 0 CURVE SMOOTH",
"284 0 OFFCURVE",
"226 58 OFFCURVE",
"226 130 CURVE SMOOTH"
);
},
{
closed = 1;
nodes = (
"226 824 LINE",
"486 824 LINE",
"486 380 LINE",
"226 380 LINE"
);
}
);
width = 1000;
}
);
unicode = 003F;
},
{
glyphname = questiondown;
lastChange = "2021-04-19 19:06:42 +0000";
layers = (
{
layerId = "A833981A-68C5-4528-81CD-92C717829696";
paths = (
{
closed = 1;
nodes = (
"214 94 LINE",
"246 62 OFFCURVE",
"294 40 OFFCURVE",
"356 40 CURVE SMOOTH",
"488 40 OFFCURVE",
"544 144 OFFCURVE",
"544 214 CURVE SMOOTH",
"544 290 OFFCURVE",
"460 376 OFFCURVE",
"356 376 CURVE",
"356 626 LINE",
"646 626 OFFCURVE",
"802 478 OFFCURVE",
"802 214 CURVE SMOOTH",
"802 -20 OFFCURVE",
"600 -200 OFFCURVE",
"356 -200 CURVE SMOOTH",
"236 -200 OFFCURVE",
"124 -152 OFFCURVE",
"42 -78 CURVE"
);
},
{
closed = 1;
nodes = (
"226 1142 OFFCURVE",
"284 1200 OFFCURVE",
"356 1200 CURVE SMOOTH",
"428 1200 OFFCURVE",
"486 1142 OFFCURVE",
"486 1070 CURVE SMOOTH",
"486 998 OFFCURVE",
"428 940 OFFCURVE",
"356 940 CURVE SMOOTH",
"284 940 OFFCURVE",
"226 998 OFFCURVE",
"226 1070 CURVE SMOOTH"
);
},
{
closed = 1;
nodes = (
"486 820 LINE",
"486 376 LINE",
"226 376 LINE",
"226 820 LINE"
);
}
);
width = 1000;
}
);
unicode = 00BF;
},
{
glyphname = periodcentered;
lastChange = "2021-04-22 22:38:51 +0000";
layers = (
{
layerId = "A833981A-68C5-4528-81CD-92C717829696";
paths = (
{
closed = 1;
nodes = (
"262 420 OFFCURVE",
"320 478 OFFCURVE",
"320 550 CURVE SMOOTH",
"320 622 OFFCURVE",
"262 680 OFFCURVE",
"190 680 CURVE SMOOTH",
"118 680 OFFCURVE",
"60 622 OFFCURVE",
"60 550 CURVE SMOOTH",
"60 478 OFFCURVE",
"118 420 OFFCURVE",
"190 420 CURVE SMOOTH"
);
}
);
width = 380;
}
);
unicode = 00B7;
},
{
glyphname = bullet;
lastChange = "2021-04-19 19:06:50 +0000";
layers = (
{
layerId = "A833981A-68C5-4528-81CD-92C717829696";
paths = (
{
closed = 1;
nodes = (
"546 150 OFFCURVE",
"684 284 OFFCURVE",
"684 450 CURVE SMOOTH",
"684 616 OFFCURVE",
"546 750 OFFCURVE",
"384 750 CURVE SMOOTH",
"218 750 OFFCURVE",
"84 616 OFFCURVE",
"84 450 CURVE SMOOTH",
"84 284 OFFCURVE",
"218 150 OFFCURVE",
"384 150 CURVE SMOOTH"
);
}
);
width = 1000;
}
);
unicode = 2022;
},
{
glyphname = asterisk;
lastChange = "2021-04-25 10:23:09 +0000";
layers = (
{
layerId = "A833981A-68C5-4528-81CD-92C717829696";
paths = (
{
closed = 1;
nodes = (
"100 463 LINE",
"213 237 LINE",
"950 637 LINE",
"837 863 LINE"
);
},
{
closed = 1;
nodes = (
"395 125 LINE",
"655 125 LINE",
"655 975 LINE",
"395 975 LINE"
);
},
{
closed = 1;
nodes = (
"100 637 LINE",
"837 237 LINE",
"950 463 LINE",
"213 863 LINE"
);
}
);
width = 1050;
}
);
unicode = 002A;
},
{
glyphname = numbersign;
lastChange = "2021-04-22 22:42:49 +0000";
layers = (
{
layerId = "A833981A-68C5-4528-81CD-92C717829696";
paths = (
{
closed = 1;
nodes = (
"171 0 LINE",
"431 0 LINE",
"802 1400 LINE",
"542 1400 LINE"
);
},
{
closed = 1;
nodes = (
"771 0 LINE",
"1031 0 LINE",
"1402 1400 LINE",
"1142 1400 LINE"
);
},
{
closed = 1;
nodes = (
"153 813 LINE",
"1564 813 LINE",
"1564 1073 LINE",
"153 1073 LINE"
);
},
{
closed = 1;
nodes = (
"60 320 LINE",
"1471 320 LINE",
"1471 580 LINE",
"60 580 LINE"
);
}
);
width = 1624;
}
);
unicode = 0023;
},
{
glyphname = slash;
lastChange = "2021-04-24 15:25:34 +0000";
layers = (
{
layerId = "A833981A-68C5-4528-81CD-92C717829696";
paths = (
{
closed = 1;
nodes = (
"60 -155 LINE",
"320 -155 LINE",
"876 1400 LINE",
"616 1400 LINE"
);
}
);
width = 936;
}
);
unicode = 002F;
},
{
glyphname = parenright;
lastChange = "2021-04-24 17:20:57 +0000";
layers = (
{
layerId = "A833981A-68C5-4528-81CD-92C717829696";
paths = (
{
closed = 1;
nodes = (
"441 966 OFFCURVE",
"441 406 OFFCURVE",
"60 -155 CURVE",
"320 -155 LINE",
"701 406 OFFCURVE",
"701 966 OFFCURVE",
"320 1527 CURVE",
"60 1527 LINE"
);
}
);
width = 666;
}
);
unicode = 0029;
},
{
glyphname = braceleft;
lastChange = "2021-04-22 22:50:39 +0000";
layers = (
{
layerId = "A833981A-68C5-4528-81CD-92C717829696";
paths = (
{
closed = 1;
nodes = (
"450 1527 OFFCURVE",
"130 1389 OFFCURVE",
"163 1182 CURVE SMOOTH",
"207 902 LINE SMOOTH",
"225 787 OFFCURVE",
"220 755 OFFCURVE",
"72 755 CURVE",
"72 589 LINE",
"219 589 OFFCURVE",
"228 553 OFFCURVE",
"207 438 CURVE SMOOTH",
"163 193 LINE SMOOTH",
"125 -17 OFFCURVE",
"450 -155 OFFCURVE",
"632 -155 CURVE",
"632 112 LINE",
"537 112 OFFCURVE",
"397 121 OFFCURVE",
"421 236 CURVE SMOOTH",
"466 452 LINE SMOOTH",
"496 595 OFFCURVE",
"384 651 OFFCURVE",
"366 671 CURVE",
"383 692 OFFCURVE",
"490 757 OFFCURVE",
"466 888 CURVE SMOOTH",
"421 1136 LINE SMOOTH",
"400 1249 OFFCURVE",
"538 1260 OFFCURVE",
"632 1260 CURVE",
"632 1527 LINE"
);
}
);
width = 692;
}
);
unicode = 007B;
},
{
glyphname = bracketleft;
lastChange = "2021-04-22 22:25:08 +0000";
layers = (
{
layerId = "A833981A-68C5-4528-81CD-92C717829696";
paths = (
{
closed = 1;
nodes = (
"60 -155 LINE",
"320 -155 LINE",
"320 1527 LINE",
"60 1527 LINE"
);
},
{
closed = 1;
nodes = (
"60 1267 LINE",
"567 1267 LINE",
"567 1527 LINE",
"60 1527 LINE"
);
},
{
closed = 1;
nodes = (
"60 -155 LINE",
"567 -155 LINE",
"567 105 LINE",
"60 105 LINE"
);
}
);
width = 627;
}
);
unicode = 005B;
},
{
glyphname = hyphen;
lastChange = "2021-04-24 14:37:21 +0000";
layers = (
{
layerId = "A833981A-68C5-4528-81CD-92C717829696";
paths = (
{
closed = 1;
nodes = (
"100 680 LINE",
"100 420 LINE",
"950 420 LINE",
"950 680 LINE"
);
}
);
width = 1050;
}
);
unicode = 002D;
},
{
glyphname = endash;
lastChange = "2021-04-22 21:10:05 +0000";
layers = (
{
layerId = "A833981A-68C5-4528-81CD-92C717829696";
paths = (
{
closed = 1;
nodes = (
"60 580 LINE",
"60 320 LINE",
"1292 320 LINE",
"1292 580 LINE"
);
}
);
width = 1352;
}
);
unicode = 2013;
},
{
glyphname = emdash;
lastChange = "2021-04-19 21:11:17 +0000";
layers = (
{
layerId = "A833981A-68C5-4528-81CD-92C717829696";
paths = (
{
closed = 1;
nodes = (
"60 580 LINE",
"60 320 LINE",
"1292 320 LINE",
"1292 580 LINE"
);
}
);
width = 1352;
}
);
unicode = 2014;
},
{
glyphname = underscore;
lastChange = "2021-04-22 21:08:15 +0000";
layers = (
{
layerId = "A833981A-68C5-4528-81CD-92C717829696";
paths = (
{
closed = 1;
nodes = (
"60 0 LINE",
"1040 0 LINE",
"1040 260 LINE",
"60 260 LINE"
);
}
);
width = 1100;
}
);
unicode = 005F;
},
{
glyphname = quotedblleft;
lastChange = "2021-04-19 20:59:21 +0000";
layers = (
{
layerId = "A833981A-68C5-4528-81CD-92C717829696";
paths = (
{
closed = 1;
nodes = (
"120 832 LINE",
"340 832 LINE",
"280 1400 LINE",
"60 1400 LINE"
);
},
{
closed = 1;
nodes = (
"440 832 LINE",
"660 832 LINE",
"600 1400 LINE",
"380 1400 LINE"
);
}
);
width = 720;
}
);
unicode = 201C;
},
{
glyphname = quotedblright;
lastChange = "2021-04-19 20:59:25 +0000";
layers = (
{
layerId = "A833981A-68C5-4528-81CD-92C717829696";
paths = (
{
closed = 1;
nodes = (
"60 832 LINE",
"280 832 LINE",
"340 1400 LINE",
"120 1400 LINE"
);
},
{
closed = 1;
nodes = (
"380 832 LINE",
"600 832 LINE",
"660 1400 LINE",
"440 1400 LINE"
);
}
);
width = 720;
}
);
unicode = 201D;
},
{
glyphname = quoteleft;
lastChange = "2021-04-19 19:07:26 +0000";
layers = (
{
layerId = "A833981A-68C5-4528-81CD-92C717829696";
paths = (
{
closed = 1;
nodes = (
"102 516 LINE",
"322 516 LINE",
"262 1084 LINE",
"42 1084 LINE"
);
}
);
width = 500;
}
);
unicode = 2018;
},
{
glyphname = quoteright;
lastChange = "2021-04-19 20:59:10 +0000";
layers = (
{
layerId = "A833981A-68C5-4528-81CD-92C717829696";
paths = (
{
closed = 1;
nodes = (
"60 832 LINE",
"280 832 LINE",
"340 1400 LINE",
"120 1400 LINE"
);
}
);
width = 400;
}
);
unicode = 2019;
},
{
glyphname = guilsinglleft;
lastChange = "2021-04-25 10:23:28 +0000";
layers = (
{
layerId = "A833981A-68C5-4528-81CD-92C717829696";
paths = (
{
closed = 1;
nodes = (
"399 0 LINE",
"659 0 LINE",
"364 499 LINE",
"657 1000 LINE",
"396 1000 LINE",
"110 499 LINE"
);
}
);
width = 769;
}
);
unicode = 2039;
},
{
glyphname = quotedbl;
lastChange = "2021-04-19 21:00:03 +0000";
layers = (
{
layerId = "A833981A-68C5-4528-81CD-92C717829696";
paths = (
{
closed = 1;
nodes = (
"60 832 LINE",
"280 832 LINE",
"280 1400 LINE",
"60 1400 LINE"
);
},
{
closed = 1;
nodes = (
"380 832 LINE",
"600 832 LINE",
"600 1400 LINE",
"380 1400 LINE"
);
}
);
width = 660;
}
);
unicode = 0022;
},
{
glyphname = quotesingle;
lastChange = "2021-04-19 21:06:37 +0000";
layers = (
{
layerId = "A833981A-68C5-4528-81CD-92C717829696";
paths = (
{
closed = 1;
nodes = (
"60 832 LINE",
"280 832 LINE",
"280 1400 LINE",
"60 1400 LINE"
);
}
);
width = 340;
}
);
unicode = 0027;
},
{
glyphname = at;
lastChange = "2021-04-23 00:06:58 +0000";
layers = (
{
layerId = "A833981A-68C5-4528-81CD-92C717829696";
paths = (
{
closed = 1;
nodes = (
"767 1327 OFFCURVE",
"34 1194 OFFCURVE",
"61 196 CURVE",
"300 250 LINE",
"257 990 OFFCURVE",
"759 1078 OFFCURVE",
"885 1078 CURVE SMOOTH",
"1236 1078 OFFCURVE",
"1362 936 OFFCURVE",
"1362 565 CURVE SMOOTH",
"1362 244 OFFCURVE",
"1352 59 OFFCURVE",
"1297 59 CURVE SMOOTH",
"1236 59 OFFCURVE",
"1217 114 OFFCURVE",
"1217 220 CURVE SMOOTH",
"1217 808 LINE",
"1067 931 OFFCURVE",
"960 936 OFFCURVE",
"871 936 CURVE SMOOTH",
"637 936 OFFCURVE",
"410 723 OFFCURVE",
"410 370 CURVE SMOOTH",
"410 103 OFFCURVE",
"572 -132 OFFCURVE",
"784 -132 CURVE SMOOTH",
"949 -132 OFFCURVE",
"1050 18 OFFCURVE",
"1085 108 CURVE",
"1093 108 LINE",
"1085 25 OFFCURVE",
"1063 -179 OFFCURVE",
"1297 -179 CURVE SMOOTH",
"1533 -179 OFFCURVE",
"1602 61 OFFCURVE",
"1602 563 CURVE SMOOTH",
"1602 1125 OFFCURVE",
"1290 1327 OFFCURVE",
"933 1327 CURVE SMOOTH"
);
},
{
closed = 1;
nodes = (
"936 747 OFFCURVE",
"1026 705 OFFCURVE",
"1026 603 CURVE",
"1026 370 LINE",
"1026 265 OFFCURVE",
"949 118 OFFCURVE",
"818 118 CURVE SMOOTH",
"746 118 OFFCURVE",
"664 196 OFFCURVE",
"664 396 CURVE SMOOTH",
"664 654 OFFCURVE",
"746 747 OFFCURVE",
"883 747 CURVE SMOOTH"
);
}
);
width = 1662;
}
);
unicode = 0040;
},
{
glyphname = ampersand;
lastChange = "2021-04-24 19:35:25 +0000";
layers = (
{
layerId = "A833981A-68C5-4528-81CD-92C717829696";
paths = (
{
closed = 1;
nodes = (
"-77 673 OFFCURVE",
"68 0 OFFCURVE",
"616 0 CURVE",
"788 1 OFFCURVE",
"900 53 OFFCURVE",
"1029 169 CURVE",
"1198 0 LINE",
"1458 0 LINE",
"1170 294 LINE",
"1248 398 OFFCURVE",
"1310 526 OFFCURVE",
"1302 709 CURVE",
"1066 709 LINE",
"1065 616 OFFCURVE",
"1041 536 OFFCURVE",
"999 468 CURVE",
"793 679 LINE",
"1206 756 OFFCURVE",
"1167 1413 OFFCURVE",
"705 1420 CURVE SMOOTH",
"263 1420 OFFCURVE",
"141 1025 OFFCURVE",
"342 809 CURVE"
);
},
{
closed = 1;
nodes = (
"864 331 LINE",
"789 256 OFFCURVE",
"701 212 OFFCURVE",
"565 239 CURVE SMOOTH",
"287 294 OFFCURVE",
"247 649 OFFCURVE",
"512 678 CURVE"
);
},
{
closed = 1;
nodes = (
"401 882 OFFCURVE",
"433 1234 OFFCURVE",
"665 1226 CURVE SMOOTH",
"895 1226 OFFCURVE",
"895 882 OFFCURVE",
"665 882 CURVE SMOOTH"
);
}
);
width = 1558;
}
);
unicode = 0026;
},
{
glyphname = paragraph;
lastChange = "2021-04-24 19:35:30 +0000";
layers = (
{
layerId = "A833981A-68C5-4528-81CD-92C717829696";
paths = (
{
closed = 1;
nodes = (
"691 0 LINE",
"691 1400 LINE",
"431 1400 LINE SMOOTH",
"-9 1400 OFFCURVE",
"-11 562 OFFCURVE",
"431 560 CURVE",
"431 0 LINE"
);
},
{
closed = 1;
nodes = (
"1031 -4 LINE",
"1031 1396 LINE",
"771 1396 LINE",
"771 -4 LINE"
);
}
);
width = 1131;
}
);
unicode = 00B6;
},
{
glyphname = section;
lastChange = "2021-04-24 19:35:34 +0000";
layers = (
{
layerId = "A833981A-68C5-4528-81CD-92C717829696";
paths = (
{
closed = 1;
nodes = (
"356 144 LINE",
"356 79 OFFCURVE",
"446 -9 OFFCURVE",
"552 -9 CURVE SMOOTH",
"687 -9 OFFCURVE",
"740 79 OFFCURVE",
"740 144 CURVE SMOOTH",
"740 205 OFFCURVE",
"688 284 OFFCURVE",
"555 284 CURVE SMOOTH",
"552 284 LINE SMOOTH",
"302 284 OFFCURVE",
"100 442 OFFCURVE",
"100 645 CURVE",
"100 744 OFFCURVE",
"149 833 OFFCURVE",
"228 898 CURVE",
"153 962 OFFCURVE",
"106 1049 OFFCURVE",
"106 1145 CURVE SMOOTH",
"106 1350 OFFCURVE",
"308 1507 OFFCURVE",
"552 1507 CURVE SMOOTH",
"802 1507 OFFCURVE",
"1004 1350 OFFCURVE",
"1004 1145 CURVE",
"748 1145 LINE",
"748 1207 OFFCURVE",
"658 1298 OFFCURVE",
"552 1298 CURVE SMOOTH",
"417 1298 OFFCURVE",
"364 1207 OFFCURVE",
"364 1145 CURVE SMOOTH",
"364 1083 OFFCURVE",
"419 1005 OFFCURVE",
"552 1005 CURVE SMOOTH",
"802 1005 OFFCURVE",
"913 906 OFFCURVE",
"974 763 CURVE SMOOTH",
"989 726 OFFCURVE",
"998 687 OFFCURVE",
"998 645 CURVE SMOOTH",
"998 546 OFFCURVE",
"950 458 OFFCURVE",
"873 393 CURVE",
"950 329 OFFCURVE",
"998 242 OFFCURVE",
"998 144 CURVE SMOOTH",
"998 -59 OFFCURVE",
"796 -218 OFFCURVE",
"552 -218 CURVE SMOOTH",
"302 -218 OFFCURVE",
"100 -59 OFFCURVE",
"100 144 CURVE"
);
},
{
closed = 1;
nodes = (
"356 581 OFFCURVE",
"446 502 OFFCURVE",
"552 502 CURVE SMOOTH",
"687 502 OFFCURVE",
"740 581 OFFCURVE",
"740 644 CURVE",
"740 705 OFFCURVE",
"687 785 OFFCURVE",
"552 785 CURVE SMOOTH",
"446 785 OFFCURVE",
"356 705 OFFCURVE",
"356 644 CURVE SMOOTH"
);
}
);
width = 1104;
}
);
unicode = 00A7;
},
{
glyphname = copyright;
lastChange = "2021-04-24 15:45:50 +0000";
layers = (
{
layerId = "A833981A-68C5-4528-81CD-92C717829696";
paths = (
{
closed = 0;
nodes = (
"705 130 LINE"
);
},
{
closed = 0;
nodes = (
"705 130 LINE"
);
},
{
closed = 0;
nodes = (
"705 130 LINE"
);
},
{
closed = 1;
nodes = (
"100 268 OFFCURVE",
"426 -60 OFFCURVE",
"830 -60 CURVE SMOOTH",
"1233 -60 OFFCURVE",
"1559 268 OFFCURVE",
"1559 670 CURVE SMOOTH",
"1559 1073 OFFCURVE",
"1233 1400 OFFCURVE",
"830 1400 CURVE SMOOTH",
"426 1400 OFFCURVE",
"100 1073 OFFCURVE",
"100 670 CURVE SMOOTH"
);
},
{
closed = 1;
nodes = (
"310 956 OFFCURVE",
"543 1190 OFFCURVE",
"830 1190 CURVE SMOOTH",
"1111 1190 OFFCURVE",
"1350 956 OFFCURVE",
"1350 670 CURVE SMOOTH",
"1350 383 OFFCURVE",
"1117 150 OFFCURVE",
"830 150 CURVE SMOOTH",
"543 150 OFFCURVE",
"310 383 OFFCURVE",
"310 670 CURVE SMOOTH"
);
},
{
closed = 1;
nodes = (
"547 435 OFFCURVE",
"672 322 OFFCURVE",
"819 322 CURVE SMOOTH",
"952 322 OFFCURVE",
"1106 366 OFFCURVE",
"1106 558 CURVE",
"932 558 LINE",
"932 493 OFFCURVE",
"890 493 OFFCURVE",
"806 493 CURVE SMOOTH",
"742 493 OFFCURVE",
"720 531 OFFCURVE",
"720 602 CURVE SMOOTH",
"720 709 LINE SMOOTH",
"720 779 OFFCURVE",
"742 818 OFFCURVE",
"806 818 CURVE SMOOTH",
"890 818 OFFCURVE",
"932 818 OFFCURVE",
"932 753 CURVE",
"1106 753 LINE",
"1106 931 OFFCURVE",
"952 989 OFFCURVE",
"819 989 CURVE SMOOTH",
"672 989 OFFCURVE",
"547 875 OFFCURVE",
"547 709 CURVE SMOOTH",
"547 602 LINE SMOOTH"
);
}
);
width = 1659;
}
);
unicode = 00A9;
},
{
glyphname = registered;
lastChange = "2021-04-24 13:43:52 +0000";
layers = (
{
layerId = "A833981A-68C5-4528-81CD-92C717829696";
paths = (
{
closed = 0;
nodes = (
"526 623 LINE"
);
},
{
closed = 0;
nodes = (
"526 623 LINE"
);
},
{
closed = 0;
nodes = (
"526 623 LINE"
);
},
{
closed = 1;
nodes = (
"60 729 OFFCURVE",
"311 477 OFFCURVE",
"622 477 CURVE SMOOTH",
"932 477 OFFCURVE",
"1183 729 OFFCURVE",
"1183 1038 CURVE SMOOTH",
"1183 1348 OFFCURVE",
"932 1600 OFFCURVE",
"622 1600 CURVE SMOOTH",
"311 1600 OFFCURVE",
"60 1348 OFFCURVE",
"60 1038 CURVE SMOOTH"
);
},
{
closed = 1;
nodes = (
"222 1258 OFFCURVE",
"402 1438 OFFCURVE",
"622 1438 CURVE SMOOTH",
"843 1438 OFFCURVE",
"1022 1258 OFFCURVE",
"1022 1038 CURVE SMOOTH",
"1022 818 OFFCURVE",
"843 638 OFFCURVE",
"622 638 CURVE SMOOTH",
"401 638 OFFCURVE",
"222 818 OFFCURVE",
"222 1038 CURVE SMOOTH"
);
},
{
closed = 1;
nodes = (
"565 823 LINE",
"565 1005 LINE",
"623 1005 LINE",
"698 823 LINE",
"800 823 LINE",
"720 1016 LINE",
"835 1069 OFFCURVE",
"816 1277 OFFCURVE",
"664 1277 CURVE SMOOTH",
"463 1277 LINE",
"463 823 LINE"
);
},
{
closed = 1;
nodes = (
"565 1193 LINE",
"664 1193 LINE SMOOTH",
"715 1193 OFFCURVE",
"715 1090 OFFCURVE",
"664 1090 CURVE SMOOTH",
"565 1090 LINE"
);
}
);
width = 1243;
}
);
unicode = 00AE;
},
{
glyphname = degree;
lastChange = "2021-04-24 13:22:32 +0000";
layers = (
{
layerId = "A833981A-68C5-4528-81CD-92C717829696";
paths = (
{
closed = 1;
nodes = (
"30 1020 OFFCURVE",
"144 905 OFFCURVE",
"286 905 CURVE SMOOTH",
"427 905 OFFCURVE",
"541 1020 OFFCURVE",
"541 1160 CURVE SMOOTH",
"541 1301 OFFCURVE",
"427 1416 OFFCURVE",
"286 1416 CURVE SMOOTH",
"144 1416 OFFCURVE",
"30 1301 OFFCURVE",
"30 1160 CURVE SMOOTH"
);
},
{
closed = 1;
nodes = (
"187 1215 OFFCURVE",
"232 1260 OFFCURVE",
"287 1260 CURVE SMOOTH",
"342 1260 OFFCURVE",
"387 1215 OFFCURVE",
"387 1160 CURVE SMOOTH",
"387 1105 OFFCURVE",
"342 1060 OFFCURVE",
"287 1060 CURVE SMOOTH",
"232 1060 OFFCURVE",
"187 1105 OFFCURVE",
"187 1160 CURVE SMOOTH"
);
}
);
width = 571;
}
);
unicode = 00B0;
},
{
glyphname = bar;
lastChange = "2021-04-24 15:25:10 +0000";
layers = (
{
layerId = "A833981A-68C5-4528-81CD-92C717829696";
paths = (
{
closed = 1;
nodes = (
"120 -155 LINE",
"380 -155 LINE",
"380 1400 LINE",
"120 1400 LINE"
);
}
);
width = 500;
}
);
unicode = 007C;
},
{
glyphname = brokenbar;
lastChange = "2021-04-24 15:37:50 +0000";
layers = (
{
layerId = "A833981A-68C5-4528-81CD-92C717829696";
paths = (
{
closed = 1;
nodes = (
"380 -155 LINE",
"380 493 LINE",
"120 493 LINE",
"120 -155 LINE"
);
},
{
closed = 1;
nodes = (
"380 752 LINE",
"380 1400 LINE",
"120 1400 LINE",
"120 752 LINE"
);
}
);
width = 500;
}
);
unicode = 00A6;
},
{
glyphname = dagger;
lastChange = "2021-04-24 13:46:20 +0000";
layers = (
{
layerId = "A833981A-68C5-4528-81CD-92C717829696";
paths = (
{
closed = 1;
nodes = (
"350 1131 LINE",
"350 477 LINE",
"512 477 LINE",
"512 1131 LINE",
"802 1131 LINE",
"802 1293 LINE",
"512 1293 LINE",
"512 1600 LINE",
"350 1600 LINE",
"350 1293 LINE",
"60 1293 LINE",
"60 1131 LINE"
);
}
);
width = 862;
}
);
unicode = 2020;
},
{
glyphname = daggerdbl;
lastChange = "2021-04-24 13:47:20 +0000";
layers = (
{
layerId = "A833981A-68C5-4528-81CD-92C717829696";
paths = (
{
closed = 1;
nodes = (
"350 764 LINE",
"350 477 LINE",
"512 477 LINE",
"512 764 LINE",
"802 764 LINE",
"802 926 LINE",
"512 926 LINE",
"512 1131 LINE",
"802 1131 LINE",
"802 1293 LINE",
"512 1293 LINE",
"512 1600 LINE",
"350 1600 LINE",
"350 1293 LINE",
"60 1293 LINE",
"60 1131 LINE",
"350 1131 LINE",
"350 926 LINE",
"60 926 LINE",
"60 764 LINE"
);
}
);
width = 862;
}
);
unicode = 2021;
},
{
glyphname = cent;
lastChange = "2021-04-24 19:35:49 +0000";
layers = (
{
layerId = "A833981A-68C5-4528-81CD-92C717829696";
paths = (
{
closed = 1;
nodes = (
"523 0 LINE",
"783 0 LINE",
"783 1400 LINE",
"523 1400 LINE"
);
},
{
closed = 1;
nodes = (
"913 126 OFFCURVE",
"1083 272 OFFCURVE",
"1159 463 CURVE",
"905 582 LINE",
"873 451 OFFCURVE",
"789 344 OFFCURVE",
"653 344 CURVE SMOOTH",
"295 344 OFFCURVE",
"295 1084 OFFCURVE",
"653 1082 CURVE SMOOTH",
"775 1082 OFFCURVE",
"855 996 OFFCURVE",
"893 884 CURVE",
"1141 1002 LINE",
"1059 1173 OFFCURVE",
"895 1300 OFFCURVE",
"653 1300 CURVE SMOOTH",
"-83 1300 OFFCURVE",
"-85 126 OFFCURVE",
"653 126 CURVE SMOOTH"
);
}
);
width = 1259;
}
);
unicode = 00A2;
},
{
glyphname = currency;
lastChange = "2021-04-24 19:34:26 +0000";
layers = (
{
layerId = "A833981A-68C5-4528-81CD-92C717829696";
paths = (
{
closed = 1;
nodes = (
"303 129 LINE",
"440 267 LINE",
"487 247 OFFCURVE",
"537 236 OFFCURVE",
"591 236 CURVE SMOOTH",
"645 236 OFFCURVE",
"695 247 OFFCURVE",
"742 267 CURVE",
"879 129 LINE",
"1082 332 LINE",
"944 469 LINE",
"965 516 OFFCURVE",
"976 567 OFFCURVE",
"976 621 CURVE SMOOTH",
"976 675 OFFCURVE",
"965 726 OFFCURVE",
"945 772 CURVE",
"1082 908 LINE",
"879 1111 LINE",
"743 974 LINE",
"697 995 OFFCURVE",
"645 1006 OFFCURVE",
"591 1006 CURVE SMOOTH",
"537 1006 OFFCURVE",
"485 995 OFFCURVE",
"438 975 CURVE",
"303 1111 LINE",
"100 908 LINE",
"237 772 LINE",
"217 726 OFFCURVE",
"206 675 OFFCURVE",
"206 621 CURVE SMOOTH",
"206 567 OFFCURVE",
"217 516 OFFCURVE",
"237 468 CURVE",
"100 332 LINE"
);
},
{
closed = 1;
nodes = (
"481 421 OFFCURVE",
"391 510 OFFCURVE",
"391 621 CURVE SMOOTH",
"391 732 OFFCURVE",
"481 821 OFFCURVE",
"591 821 CURVE SMOOTH",
"701 821 OFFCURVE",
"791 732 OFFCURVE",
"791 621 CURVE SMOOTH",
"791 510 OFFCURVE",
"701 421 OFFCURVE",
"591 421 CURVE SMOOTH"
);
}
);
width = 1182;
}
);
unicode = 00A4;
},
{
glyphname = dollar;
lastChange = "2021-04-24 18:53:30 +0000";
layers = (
{
layerId = "A833981A-68C5-4528-81CD-92C717829696";
paths = (
{
closed = 1;
nodes = (
"682 1600 LINE",
"682 -200 LINE",
"422 -200 LINE",
"422 1600 LINE"
);
},
{
closed = 1;
nodes = (
"796 824 OFFCURVE",
"998 644 OFFCURVE",
"998 414 CURVE SMOOTH",
"998 182 OFFCURVE",
"796 0 OFFCURVE",
"552 0 CURVE SMOOTH",
"302 0 OFFCURVE",
"100 182 OFFCURVE",
"100 414 CURVE",
"356 414 LINE",
"356 340 OFFCURVE",
"446 238 OFFCURVE",
"552 238 CURVE SMOOTH",
"687 238 OFFCURVE",
"740 340 OFFCURVE",
"740 414 CURVE SMOOTH",
"740 484 OFFCURVE",
"687 576 OFFCURVE",
"552 574 CURVE",
"552 824 LINE"
);
},
{
closed = 1;
nodes = (
"308 574 OFFCURVE",
"106 756 OFFCURVE",
"106 986 CURVE SMOOTH",
"106 1220 OFFCURVE",
"308 1400 OFFCURVE",
"552 1400 CURVE SMOOTH",
"802 1400 OFFCURVE",
"1004 1220 OFFCURVE",
"1004 986 CURVE",
"748 986 LINE",
"748 1056 OFFCURVE",
"658 1160 OFFCURVE",
"552 1160 CURVE SMOOTH",
"417 1160 OFFCURVE",
"364 1056 OFFCURVE",
"364 986 CURVE SMOOTH",
"364 910 OFFCURVE",
"417 824 OFFCURVE",
"552 824 CURVE",
"552 574 LINE"
);
}
);
width = 1104;
}
);
unicode = 0024;
},
{
glyphname = euro;
lastChange = "2021-04-24 19:35:55 +0000";
layers = (
{
layerId = "A833981A-68C5-4528-81CD-92C717829696";
paths = (
{
closed = 1;
nodes = (
"581 1400 OFFCURVE",
"312 1280 OFFCURVE",
"312 959 CURVE",
"124 959 LINE",
"100 744 LINE",
"299 744 LINE",
"296 671 LINE",
"125 671 LINE",
"101 458 LINE",
"308 458 LINE",
"308 130 OFFCURVE",
"537 0 OFFCURVE",
"807 0 CURVE SMOOTH",
"936 0 OFFCURVE",
"1040 29 OFFCURVE",
"1096 65 CURVE",
"1097 325 LINE",
"1043 274 OFFCURVE",
"944 227 OFFCURVE",
"814 227 CURVE",
"687 227 OFFCURVE",
"562 290 OFFCURVE",
"561 458 CURVE",
"851 458 LINE",
"875 671 LINE",
"557 671 LINE",
"557 744 LINE",
"916 744 LINE",
"941 959 LINE",
"567 959 LINE",
"567 1083 OFFCURVE",
"703 1152 OFFCURVE",
"831 1152 CURVE",
"941 1152 OFFCURVE",
"1048 1136 OFFCURVE",
"1122 1088 CURVE",
"1127 1314 LINE",
"1037 1373 OFFCURVE",
"944 1400 OFFCURVE",
"814 1400 CURVE SMOOTH"
);
}
);
width = 1227;
}
);
unicode = 20AC;
},
{
glyphname = liraTurkish;
lastChange = "2021-04-24 19:38:22 +0000";
layers = (
{
layerId = "A833981A-68C5-4528-81CD-92C717829696";
paths = (
{
closed = 1;
nodes = (
"562 0 LINE SMOOTH",
"893 0 OFFCURVE",
"1046 122 OFFCURVE",
"1115 366 CURVE",
"1000 557 LINE",
"903 323 OFFCURVE",
"776 260 OFFCURVE",
"563 260 CURVE SMOOTH",
"538 260 LINE",
"536 1374 LINE",
"308 1374 LINE",
"308 0 LINE"
);
},
{
closed = 1;
nodes = (
"824 559 LINE",
"781 776 LINE",
"145 478 LINE",
"186 264 LINE"
);
},
{
closed = 1;
nodes = (
"827 864 LINE",
"783 1081 LINE",
"145 786 LINE",
"191 566 LINE"
);
}
);
width = 1200;
}
);
unicode = 20BA;
},
{
glyphname = sterling;
lastChange = "2021-04-24 19:13:56 +0000";
layers = (
{
layerId = "A833981A-68C5-4528-81CD-92C717829696";
paths = (
{
closed = 1;
nodes = (
"406 1400 OFFCURVE",
"269 1241 OFFCURVE",
"269 1039 CURVE",
"269 867 LINE",
"100 867 LINE",
"100 634 LINE",
"269 634 LINE",
"269 519 LINE SMOOTH",
"269 404 OFFCURVE",
"240 341 OFFCURVE",
"105 260 CURVE",
"105 0 LINE",
"942 0 LINE",
"957 260 LINE",
"383 260 LINE",
"487 318 OFFCURVE",
"505 421 OFFCURVE",
"505 532 CURVE SMOOTH",
"505 634 LINE",
"822 634 LINE",
"822 867 LINE",
"505 867 LINE",
"504 1022 LINE SMOOTH",
"503 1146 OFFCURVE",
"541 1171 OFFCURVE",
"626 1171 CURVE SMOOTH",
"729 1171 OFFCURVE",
"808 1134 OFFCURVE",
"879 1051 CURVE",
"969 1230 LINE",
"882 1347 OFFCURVE",
"759 1400 OFFCURVE",
"626 1400 CURVE SMOOTH"
);
}
);
width = 1069;
}
);
unicode = 00A3;
},
{
glyphname = yen;
lastChange = "2021-04-24 19:17:43 +0000";
layers = (
{
layerId = "A833981A-68C5-4528-81CD-92C717829696";
paths = (
{
closed = 1;
nodes = (
"964 1400 LINE",
"668 873 LINE",
"360 1400 LINE",
"100 1400 LINE",
"488 720 LINE",
"306 720 LINE",
"306 510 LINE",
"528 510 LINE",
"528 401 LINE",
"306 401 LINE",
"306 191 LINE",
"528 191 LINE",
"528 0 LINE",
"788 0 LINE",
"788 191 LINE",
"1014 191 LINE",
"1014 401 LINE",
"788 401 LINE",
"788 510 LINE",
"1014 510 LINE",
"1014 720 LINE",
"826 720 LINE",
"1224 1400 LINE"
);
}
);
width = 1324;
}
);
unicode = 00A5;
},
{
glyphname = plus;
lastChange = "2021-04-24 14:38:46 +0000";
layers = (
{
layerId = "A833981A-68C5-4528-81CD-92C717829696";
paths = (
{
closed = 1;
nodes = (
"100 680 LINE",
"100 420 LINE",
"950 420 LINE",
"950 680 LINE"
);
},
{
closed = 1;
nodes = (
"395 125 LINE",
"655 125 LINE",
"655 975 LINE",
"395 975 LINE"
);
}
);
width = 1050;
}
);
unicode = 002B;
},
{
glyphname = minus;
lastChange = "2021-04-24 14:41:05 +0000";
layers = (
{
layerId = "A833981A-68C5-4528-81CD-92C717829696";
paths = (
{
closed = 1;
nodes = (
"100 680 LINE",
"100 420 LINE",
"950 420 LINE",
"950 680 LINE"
);
}
);
width = 1050;
}
);
unicode = 2212;
},
{
glyphname = multiply;
lastChange = "2021-04-24 19:36:06 +0000";
layers = (
{
layerId = "A833981A-68C5-4528-81CD-92C717829696";
paths = (
{
closed = 1;
nodes = (
"100 341 LINE",
"283 158 LINE",
"884 759 LINE",
"701 942 LINE"
);
},
{
closed = 1;
nodes = (
"283 942 LINE",
"100 759 LINE",
"701 158 LINE",
"884 341 LINE"
);
}
);
width = 984;
}
);
unicode = 00D7;
},
{
glyphname = divide;
lastChange = "2021-04-24 14:37:50 +0000";
layers = (
{
layerId = "A833981A-68C5-4528-81CD-92C717829696";
paths = (
{
closed = 1;
nodes = (
"100 420 LINE",
"950 420 LINE",
"950 680 LINE",
"100 680 LINE"
);
},
{
closed = 1;
nodes = (
"597 84 OFFCURVE",
"655 142 OFFCURVE",
"655 214 CURVE SMOOTH",
"655 286 OFFCURVE",
"597 344 OFFCURVE",
"525 344 CURVE SMOOTH",
"453 344 OFFCURVE",
"395 286 OFFCURVE",
"395 214 CURVE SMOOTH",
"395 142 OFFCURVE",
"453 84 OFFCURVE",
"525 84 CURVE SMOOTH"
);
},
{
closed = 1;
nodes = (
"597 756 OFFCURVE",
"655 814 OFFCURVE",
"655 886 CURVE SMOOTH",
"655 958 OFFCURVE",
"597 1016 OFFCURVE",
"525 1016 CURVE SMOOTH",
"453 1016 OFFCURVE",
"395 958 OFFCURVE",
"395 886 CURVE SMOOTH",
"395 814 OFFCURVE",
"453 756 OFFCURVE",
"525 756 CURVE SMOOTH"
);
}
);
width = 1050;
}
);
unicode = 00F7;
},
{
glyphname = equal;
lastChange = "2021-04-24 15:46:06 +0000";
layers = (
{
layerId = "A833981A-68C5-4528-81CD-92C717829696";
paths = (
{
closed = 1;
nodes = (
"100 569 LINE",
"1074 569 LINE",
"1074 829 LINE",
"100 829 LINE"
);
},
{
closed = 1;
nodes = (
"100 145 LINE",
"1074 145 LINE",
"1074 405 LINE",
"100 405 LINE"
);
}
);
width = 1174;
}
);
unicode = 003D;
},
{
glyphname = notequal;
lastChange = "2021-04-24 19:36:13 +0000";
layers = (
{
layerId = "A833981A-68C5-4528-81CD-92C717829696";
paths = (
{
closed = 1;
nodes = (
"100 565 LINE",
"1074 565 LINE",
"1074 825 LINE",
"100 825 LINE"
);
},
{
closed = 1;
nodes = (
"100 145 LINE",
"1074 145 LINE",
"1074 405 LINE",
"100 405 LINE"
);
},
{
closed = 1;
nodes = (
"324 6 LINE",
"575 -61 LINE",
"850 963 LINE",
"599 1031 LINE"
);
}
);
width = 1174;
}
);
unicode = 2260;
},
{
glyphname = less;
lastChange = "2021-04-24 16:38:16 +0000";
layers = (
{
layerId = "A833981A-68C5-4528-81CD-92C717829696";
paths = (
{
closed = 1;
nodes = (
"1100 0 LINE",
"1100 260 LINE",
"408 505 LINE",
"1100 740 LINE",
"1100 1000 LINE",
"100 637 LINE",
"100 377 LINE"
);
}
);
width = 1200;
}
);
unicode = 003C;
},
{
glyphname = greaterequal;
lastChange = "2021-04-24 15:23:41 +0000";
layers = (
{
layerId = "A833981A-68C5-4528-81CD-92C717829696";
paths = (
{
closed = 1;
nodes = (
"1100 0 LINE",
"1100 200 LINE",
"100 200 LINE",
"100 0 LINE"
);
},
{
closed = 1;
nodes = (
"1095 736 LINE",
"100 1000 LINE",
"100 811 LINE",
"746 639 LINE",
"100 460 LINE",
"100 271 LINE",
"1095 546 LINE"
);
}
);
width = 1200;
}
);
unicode = 2265;
},
{
glyphname = plusminus;
lastChange = "2021-04-24 15:49:58 +0000";
layers = (
{
layerId = "A833981A-68C5-4528-81CD-92C717829696";
paths = (
{
closed = 1;
nodes = (
"950 0 LINE",
"950 200 LINE",
"100 200 LINE",
"100 0 LINE"
);
},
{
closed = 1;
nodes = (
"100 719 LINE",
"100 519 LINE",
"950 519 LINE",
"950 719 LINE"
);
},
{
closed = 1;
nodes = (
"425 238 LINE",
"625 238 LINE",
"625 1000 LINE",
"425 1000 LINE"
);
}
);
width = 1050;
}
);
unicode = 00B1;
},
{
glyphname = approxequal;
lastChange = "2021-04-24 19:36:25 +0000";
layers = (
{
layerId = "A833981A-68C5-4528-81CD-92C717829696";
paths = (
{
closed = 1;
nodes = (
"100 565 LINE",
"425 715 OFFCURVE",
"749 415 OFFCURVE",
"1074 565 CURVE",
"1074 825 LINE",
"749 675 OFFCURVE",
"425 975 OFFCURVE",
"100 825 CURVE"
);
},
{
closed = 1;
nodes = (
"100 145 LINE",
"425 295 OFFCURVE",
"749 -5 OFFCURVE",
"1074 145 CURVE",
"1074 405 LINE",
"749 255 OFFCURVE",
"425 555 OFFCURVE",
"100 405 CURVE"
);
}
);
width = 1174;
}
);
unicode = 2248;
},
{
glyphname = asciitilde;
lastChange = "2021-04-24 19:36:29 +0000";
layers = (
{
layerId = "A833981A-68C5-4528-81CD-92C717829696";
paths = (
{
closed = 1;
nodes = (
"100 404 LINE",
"425 554 OFFCURVE",
"749 254 OFFCURVE",
"1074 404 CURVE",
"1074 664 LINE",
"749 514 OFFCURVE",
"425 814 OFFCURVE",
"100 664 CURVE"
);
}
);
width = 1174;
}
);
unicode = 007E;
},
{
glyphname = logicalnot;
lastChange = "2021-04-24 15:46:13 +0000";
layers = (
{
layerId = "A833981A-68C5-4528-81CD-92C717829696";
paths = (
{
closed = 1;
nodes = (
"100 565 LINE",
"1074 565 LINE",
"1074 825 LINE",
"100 825 LINE"
);
},
{
closed = 1;
nodes = (
"814 825 LINE",
"814 145 LINE",
"1074 145 LINE",
"1074 825 LINE"
);
}
);
width = 1174;
}
);
unicode = 00AC;
},
{
glyphname = asciicircum;
lastChange = "2021-04-24 15:58:16 +0000";
layers = (
{
layerId = "A833981A-68C5-4528-81CD-92C717829696";
paths = (
{
closed = 1;
nodes = (
"100 760 LINE",
"380 760 LINE",
"480 1112 LINE",
"572 760 LINE",
"853 760 LINE",
"621 1400 LINE",
"341 1400 LINE"
);
}
);
width = 953;
}
);
unicode = 005E;
},
{
glyphname = emptyset;
lastChange = "2021-04-24 15:45:42 +0000";
layers = (
{
layerId = "A833981A-68C5-4528-81CD-92C717829696";
paths = (
{
closed = 1;
nodes = (
"100 268 OFFCURVE",
"426 -60 OFFCURVE",
"830 -60 CURVE SMOOTH",
"1233 -60 OFFCURVE",
"1559 268 OFFCURVE",
"1559 670 CURVE SMOOTH",
"1559 1073 OFFCURVE",
"1233 1400 OFFCURVE",
"830 1400 CURVE SMOOTH",
"426 1400 OFFCURVE",
"100 1073 OFFCURVE",
"100 670 CURVE SMOOTH"
);
},
{
closed = 1;
nodes = (
"310 956 OFFCURVE",
"543 1190 OFFCURVE",
"830 1190 CURVE SMOOTH",
"1111 1190 OFFCURVE",
"1350 956 OFFCURVE",
"1350 670 CURVE SMOOTH",
"1350 383 OFFCURVE",
"1117 150 OFFCURVE",
"830 150 CURVE SMOOTH",
"543 150 OFFCURVE",
"310 383 OFFCURVE",
"310 670 CURVE SMOOTH"
);
},
{
closed = 1;
nodes = (
"169 195 LINE",
"353 11 LINE",
"1491 1149 LINE",
"1307 1333 LINE"
);
}
);
width = 1659;
}
);
unicode = 2205;
},
{
glyphname = infinity;
lastChange = "2021-04-24 17:09:37 +0000";
layers = (
{
layerId = "A833981A-68C5-4528-81CD-92C717829696";
paths = (
{
closed = 1;
nodes = (
"1239 1000 OFFCURVE",
"1112 838 OFFCURVE",
"1004 641 CURVE",
"882 881 OFFCURVE",
"751 1000 OFFCURVE",
"531 1000 CURVE SMOOTH",
"227 1000 OFFCURVE",
"150 788 OFFCURVE",
"150 500 CURVE SMOOTH",
"150 218 OFFCURVE",
"223 0 OFFCURVE",
"549 0 CURVE SMOOTH",
"784 0 OFFCURVE",
"916 160 OFFCURVE",
"1020 361 CURVE",
"1133 119 OFFCURVE",
"1272 0 OFFCURVE",
"1490 0 CURVE SMOOTH",
"1796 0 OFFCURVE",
"1873 212 OFFCURVE",
"1873 498 CURVE SMOOTH",
"1873 782 OFFCURVE",
"1799 1000 OFFCURVE",
"1474 1000 CURVE SMOOTH"
);
},
{
closed = 1;
nodes = (
"717 770 OFFCURVE",
"786 613 OFFCURVE",
"841 517 CURVE",
"772 379 OFFCURVE",
"701 232 OFFCURVE",
"558 232 CURVE SMOOTH",
"439 232 OFFCURVE",
"382 317 OFFCURVE",
"382 501 CURVE SMOOTH",
"382 686 OFFCURVE",
"442 770 OFFCURVE",
"556 770 CURVE SMOOTH"
);
},
{
closed = 1;
nodes = (
"1584 766 OFFCURVE",
"1640 682 OFFCURVE",
"1640 497 CURVE SMOOTH",
"1640 313 OFFCURVE",
"1582 228 OFFCURVE",
"1467 228 CURVE SMOOTH",
"1305 228 OFFCURVE",
"1237 388 OFFCURVE",
"1182 483 CURVE",
"1250 622 OFFCURVE",
"1321 766 OFFCURVE",
"1465 766 CURVE SMOOTH"
);
}
);
width = 2023;
}
);
unicode = 221E;
},
{
glyphname = integral;
lastChange = "2021-04-24 17:17:26 +0000";
layers = (
{
layerId = "A833981A-68C5-4528-81CD-92C717829696";
paths = (
{
closed = 1;
nodes = (
"1200 -155 OFFCURVE",
"117 1400 OFFCURVE",
"767 1400 CURVE",
"819 1659 LINE",
"-281 1658 OFFCURVE",
"802 102 OFFCURVE",
"152 105 CURVE",
"100 -155 LINE"
);
}
);
width = 919;
}
);
unicode = 222B;
},
{
glyphname = product;
lastChange = "2021-04-24 19:36:40 +0000";
layers = (
{
layerId = "A833981A-68C5-4528-81CD-92C717829696";
paths = (
{
closed = 1;
nodes = (
"376 -155 LINE",
"636 -155 LINE",
"636 1400 LINE",
"376 1400 LINE"
);
},
{
closed = 1;
nodes = (
"806 -155 LINE",
"1066 -155 LINE",
"1066 1400 LINE",
"806 1400 LINE"
);
},
{
closed = 1;
nodes = (
"60 1660 LINE",
"60 1400 LINE",
"1382 1398 LINE",
"1382 1657 LINE"
);
}
);
width = 1442;
}
);
unicode = 220F;
},
{
glyphname = summation;
lastChange = "2021-04-24 18:35:56 +0000";
layers = (
{
layerId = "A833981A-68C5-4528-81CD-92C717829696";
paths = (
{
closed = 1;
nodes = (
"1106 -154 LINE",
"1106 106 LINE",
"361 105 LINE",
"790 755 LINE",
"361 1400 LINE",
"1106 1400 LINE",
"1106 1659 LINE",
"100 1659 LINE",
"100 1401 LINE",
"520 755 LINE",
"100 104 LINE",
"100 -157 LINE"
);
}
);
width = 1206;
}
);
unicode = 2211;
},
{
glyphname = radical;
lastChange = "2021-04-24 18:29:10 +0000";
layers = (
{
layerId = "A833981A-68C5-4528-81CD-92C717829696";
paths = (
{
closed = 1;
nodes = (
"486 -155 LINE",
"746 -155 LINE",
"1063 1401 LINE",
"1508 1399 LINE",
"1508 1659 LINE",
"858 1659 LINE",
"556 188 LINE",
"360 544 LINE",
"100 544 LINE"
);
}
);
width = 1608;
}
);
unicode = 221A;
},
{
glyphname = partialdiff;
lastChange = "2021-04-24 18:38:01 +0000";
layers = (
{
layerId = "A833981A-68C5-4528-81CD-92C717829696";
paths = (
{
closed = 1;
nodes = (
"1084 1400 OFFCURVE",
"1128 109 OFFCURVE",
"563 105 CURVE",
"563 -155 LINE",
"1437 -155 OFFCURVE",
"1408 1659 OFFCURVE",
"563 1659 CURVE",
"563 1400 LINE"
);
},
{
closed = 1;
nodes = (
"995 653 LINE",
"37 1202 OFFCURVE",
"-223 -155 OFFCURVE",
"563 -155 CURVE",
"563 105 LINE",
"83 104 OFFCURVE",
"385 900 OFFCURVE",
"961 414 CURVE"
);
}
);
width = 1308;
}
);
unicode = 2202;
},
{
glyphname = percent;
lastChange = "2021-04-24 15:39:58 +0000";
layers = (
{
layerId = "A833981A-68C5-4528-81CD-92C717829696";
paths = (
{
closed = 1;
nodes = (
"100 1008 OFFCURVE",
"214 893 OFFCURVE",
"356 893 CURVE SMOOTH",
"497 893 OFFCURVE",
"611 1009 OFFCURVE",
"611 1148 CURVE SMOOTH",
"611 1289 OFFCURVE",
"497 1404 OFFCURVE",
"356 1404 CURVE SMOOTH",
"214 1404 OFFCURVE",
"100 1289 OFFCURVE",
"100 1148 CURVE SMOOTH"
);
},
{
closed = 1;
nodes = (
"257 1203 OFFCURVE",
"302 1248 OFFCURVE",
"357 1248 CURVE SMOOTH",
"412 1248 OFFCURVE",
"457 1203 OFFCURVE",
"457 1148 CURVE SMOOTH",
"457 1093 OFFCURVE",
"412 1048 OFFCURVE",
"357 1048 CURVE SMOOTH",
"302 1048 OFFCURVE",
"257 1093 OFFCURVE",
"257 1148 CURVE SMOOTH"
);
},
{
closed = 1;
nodes = (
"1189 1404 LINE",
"929 1404 LINE",
"100 0 LINE",
"360 0 LINE"
);
},
{
closed = 1;
nodes = (
"1189 396 OFFCURVE",
"1075 511 OFFCURVE",
"933 511 CURVE SMOOTH",
"792 511 OFFCURVE",
"678 395 OFFCURVE",
"678 256 CURVE SMOOTH",
"678 115 OFFCURVE",
"792 0 OFFCURVE",
"933 0 CURVE SMOOTH",
"1075 0 OFFCURVE",
"1189 115 OFFCURVE",
"1189 256 CURVE SMOOTH"
);
},
{
closed = 1;
nodes = (
"1032 201 OFFCURVE",
"987 156 OFFCURVE",
"932 156 CURVE SMOOTH",
"877 156 OFFCURVE",
"832 201 OFFCURVE",
"832 256 CURVE SMOOTH",
"832 311 OFFCURVE",
"877 356 OFFCURVE",
"932 356 CURVE SMOOTH",
"987 356 OFFCURVE",
"1032 311 OFFCURVE",
"1032 256 CURVE SMOOTH"
);
}
);
width = 1289;
}
);
unicode = 0025;
},
{
glyphname = perthousand;
lastChange = "2021-04-24 15:40:43 +0000";
layers = (
{
layerId = "A833981A-68C5-4528-81CD-92C717829696";
paths = (
{
closed = 1;
nodes = (
"100 1008 OFFCURVE",
"214 893 OFFCURVE",
"356 893 CURVE SMOOTH",
"497 893 OFFCURVE",
"611 1009 OFFCURVE",
"611 1148 CURVE SMOOTH",
"611 1289 OFFCURVE",
"497 1404 OFFCURVE",
"356 1404 CURVE SMOOTH",
"214 1404 OFFCURVE",
"100 1289 OFFCURVE",
"100 1148 CURVE SMOOTH"
);
},
{
closed = 1;
nodes = (
"257 1203 OFFCURVE",
"302 1248 OFFCURVE",
"357 1248 CURVE SMOOTH",
"412 1248 OFFCURVE",
"457 1203 OFFCURVE",
"457 1148 CURVE SMOOTH",
"457 1093 OFFCURVE",
"412 1048 OFFCURVE",
"357 1048 CURVE SMOOTH",
"302 1048 OFFCURVE",
"257 1093 OFFCURVE",
"257 1148 CURVE SMOOTH"
);
},
{
closed = 1;
nodes = (
"1189 1404 LINE",
"929 1404 LINE",
"100 0 LINE",
"360 0 LINE"
);
},
{
closed = 1;
nodes = (
"1189 396 OFFCURVE",
"1075 511 OFFCURVE",
"933 511 CURVE SMOOTH",
"792 511 OFFCURVE",
"678 395 OFFCURVE",
"678 256 CURVE SMOOTH",
"678 115 OFFCURVE",
"792 0 OFFCURVE",
"933 0 CURVE SMOOTH",
"1075 0 OFFCURVE",
"1189 115 OFFCURVE",
"1189 256 CURVE SMOOTH"
);
},
{
closed = 1;
nodes = (
"1032 201 OFFCURVE",
"987 156 OFFCURVE",
"932 156 CURVE SMOOTH",
"877 156 OFFCURVE",
"832 201 OFFCURVE",
"832 256 CURVE SMOOTH",
"832 311 OFFCURVE",
"877 356 OFFCURVE",
"932 356 CURVE SMOOTH",
"987 356 OFFCURVE",
"1032 311 OFFCURVE",
"1032 256 CURVE SMOOTH"
);
},
{
closed = 1;
nodes = (
"1786 396 OFFCURVE",
"1672 511 OFFCURVE",
"1530 511 CURVE SMOOTH",
"1389 511 OFFCURVE",
"1275 395 OFFCURVE",
"1275 256 CURVE SMOOTH",
"1275 115 OFFCURVE",
"1389 0 OFFCURVE",
"1530 0 CURVE SMOOTH",
"1672 0 OFFCURVE",
"1786 115 OFFCURVE",
"1786 256 CURVE SMOOTH"
);
},
{
closed = 1;
nodes = (
"1629 201 OFFCURVE",
"1584 156 OFFCURVE",
"1529 156 CURVE SMOOTH",
"1474 156 OFFCURVE",
"1429 201 OFFCURVE",
"1429 256 CURVE SMOOTH",
"1429 311 OFFCURVE",
"1474 356 OFFCURVE",
"1529 356 CURVE SMOOTH",
"1584 356 OFFCURVE",
"1629 311 OFFCURVE",
"1629 256 CURVE SMOOTH"
);
}
);
width = 1886;
}
);
unicode = 2030;
},
{
glyphname = upArrow;
lastChange = "2021-04-24 16:22:18 +0000";
layers = (
{
layerId = "A833981A-68C5-4528-81CD-92C717829696";
paths = (
{
closed = 1;
nodes = (
"563 0 LINE",
"824 0 LINE",
"824 1270 LINE",
"563 1270 LINE"
);
},
{
closed = 1;
nodes = (
"283 623 LINE",
"877 1217 LINE",
"694 1400 LINE",
"100 806 LINE"
);
},
{
closed = 1;
nodes = (
"510 1217 LINE",
"1104 623 LINE",
"1287 806 LINE",
"694 1400 LINE"
);
}
);
width = 1387;
}
);
unicode = 2191;
},
{
glyphname = northEastArrow;
lastChange = "2021-04-24 19:36:50 +0000";
layers = (
{
layerId = "A833981A-68C5-4528-81CD-92C717829696";
paths = (
{
closed = 1;
nodes = (
"100 297 LINE",
"285 113 LINE",
"1183 1011 LINE",
"998 1195 LINE"
);
},
{
closed = 1;
nodes = (
"343 936 LINE",
"1183 936 LINE",
"1183 1195 LINE",
"343 1195 LINE"
);
},
{
closed = 1;
nodes = (
"923 1195 LINE",
"923 355 LINE",
"1182 355 LINE",
"1183 1195 LINE"
);
}
);
width = 1283;
}
);
unicode = 2197;
},
{
glyphname = rightArrow;
lastChange = "2021-04-24 16:27:15 +0000";
layers = (
{
layerId = "A833981A-68C5-4528-81CD-92C717829696";
paths = (
{
closed = 1;
nodes = (
"100 784 LINE",
"100 523 LINE",
"1370 524 LINE",
"1370 784 LINE"
);
},
{
closed = 1;
nodes = (
"723 1065 LINE",
"1317 471 LINE",
"1500 653 LINE",
"906 1247 LINE"
);
},
{
closed = 1;
nodes = (
"1317 838 LINE",
"723 244 LINE",
"906 61 LINE",
"1500 653 LINE"
);
}
);
width = 1600;
}
);
unicode = 2192;
},
{
glyphname = southEastArrow;
lastChange = "2021-04-24 16:27:25 +0000";
layers = (
{
layerId = "A833981A-68C5-4528-81CD-92C717829696";
paths = (
{
closed = 1;
nodes = (
"284 1241 LINE",
"100 1056 LINE",
"998 158 LINE",
"1182 343 LINE"
);
},
{
closed = 1;
nodes = (
"923 998 LINE",
"923 158 LINE",
"1182 158 LINE",
"1182 998 LINE"
);
},
{
closed = 1;
nodes = (
"1182 418 LINE",
"342 418 LINE",
"342 159 LINE",
"1182 158 LINE"
);
}
);
width = 1282;
}
);
unicode = 2198;
},
{
glyphname = downArrow;
lastChange = "2021-04-24 16:27:33 +0000";
layers = (
{
layerId = "A833981A-68C5-4528-81CD-92C717829696";
paths = (
{
closed = 1;
nodes = (
"824 1335 LINE",
"564 1335 LINE",
"564 65 LINE",
"824 66 LINE"
);
},
{
closed = 1;
nodes = (
"1104 712 LINE",
"511 118 LINE",
"694 -65 LINE",
"1288 529 LINE"
);
},
{
closed = 1;
nodes = (
"877 119 LINE",
"284 713 LINE",
"100 529 LINE",
"694 -65 LINE"
);
}
);
width = 1388;
}
);
unicode = 2193;
},
{
glyphname = southWestArrow;
lastChange = "2021-04-24 16:28:25 +0000";
layers = (
{
layerId = "A833981A-68C5-4528-81CD-92C717829696";
paths = (
{
closed = 1;
nodes = (
"1183 1038 LINE",
"998 1222 LINE",
"100 324 LINE",
"285 140 LINE"
);
},
{
closed = 1;
nodes = (
"940 399 LINE",
"100 399 LINE",
"100 140 LINE",
"940 140 LINE"
);
},
{
closed = 1;
nodes = (
"360 140 LINE",
"360 980 LINE",
"101 980 LINE",
"100 140 LINE"
);
}
);
width = 1283;
}
);
unicode = 2199;
},
{
glyphname = leftArrow;
lastChange = "2021-04-24 16:28:34 +0000";
layers = (
{
layerId = "A833981A-68C5-4528-81CD-92C717829696";
paths = (
{
closed = 1;
nodes = (
"1501 543 LINE",
"1500 804 LINE",
"230 804 LINE",
"231 543 LINE"
);
},
{
closed = 1;
nodes = (
"877 263 LINE",
"283 857 LINE",
"100 674 LINE",
"694 80 LINE"
);
},
{
closed = 1;
nodes = (
"284 490 LINE",
"878 1084 LINE",
"695 1267 LINE",
"100 674 LINE"
);
}
);
width = 1601;
}
);
unicode = 2190;
},
{
glyphname = northWestArrow;
lastChange = "2021-04-24 16:28:40 +0000";
layers = (
{
layerId = "A833981A-68C5-4528-81CD-92C717829696";
paths = (
{
closed = 1;
nodes = (
"998 132 LINE",
"1182 317 LINE",
"284 1215 LINE",
"100 1030 LINE"
);
},
{
closed = 1;
nodes = (
"359 375 LINE",
"359 1215 LINE",
"100 1215 LINE",
"100 375 LINE"
);
},
{
closed = 1;
nodes = (
"100 955 LINE",
"940 955 LINE",
"940 1214 LINE",
"100 1215 LINE"
);
}
);
width = 1282;
}
);
unicode = 2196;
},
{
glyphname = leftRightArrow;
lastChange = "2021-04-24 16:29:29 +0000";
layers = (
{
layerId = "A833981A-68C5-4528-81CD-92C717829696";
paths = (
{
closed = 1;
nodes = (
"1771 543 LINE",
"1770 804 LINE",
"230 804 LINE",
"231 543 LINE"
);
},
{
closed = 1;
nodes = (
"877 263 LINE",
"283 857 LINE",
"100 674 LINE",
"694 80 LINE"
);
},
{
closed = 1;
nodes = (
"284 490 LINE",
"878 1084 LINE",
"695 1267 LINE",
"100 674 LINE"
);
},
{
closed = 1;
nodes = (
"2006 674 LINE",
"1823 857 LINE",
"1229 263 LINE",
"1412 80 LINE"
);
},
{
closed = 1;
nodes = (
"1411 1267 LINE",
"1228 1084 LINE",
"1822 490 LINE",
"2006 674 LINE"
);
}
);
width = 2106;
}
);
unicode = 2194;
},
{
glyphname = upDownArrow;
lastChange = "2021-04-24 16:29:43 +0000";
layers = (
{
layerId = "A833981A-68C5-4528-81CD-92C717829696";
paths = (
{
closed = 1;
nodes = (
"563 -44 LINE",
"824 -43 LINE",
"824 1497 LINE",
"563 1496 LINE"
);
},
{
closed = 1;
nodes = (
"283 850 LINE",
"877 1444 LINE",
"694 1627 LINE",
"100 1033 LINE"
);
},
{
closed = 1;
nodes = (
"510 1443 LINE",
"1104 849 LINE",
"1287 1032 LINE",
"694 1627 LINE"
);
},
{
closed = 1;
nodes = (
"694 -279 LINE",
"877 -96 LINE",
"283 498 LINE",
"100 315 LINE"
);
},
{
closed = 1;
nodes = (
"1287 316 LINE",
"1104 499 LINE",
"510 -95 LINE",
"694 -279 LINE"
);
}
);
width = 1387;
}
);
unicode = 2195;
},
{
glyphname = lozenge;
lastChange = "2021-04-24 16:30:56 +0000";
layers = (
{
layerId = "A833981A-68C5-4528-81CD-92C717829696";
paths = (
{
closed = 1;
nodes = (
"283 674 LINE",
"877 1268 LINE",
"694 1451 LINE",
"100 857 LINE"
);
},
{
closed = 1;
nodes = (
"510 1267 LINE",
"1104 673 LINE",
"1287 856 LINE",
"694 1451 LINE"
);
},
{
closed = 1;
nodes = (
"694 -103 LINE",
"877 80 LINE",
"283 674 LINE",
"100 491 LINE"
);
},
{
closed = 1;
nodes = (
"1287 492 LINE",
"1104 675 LINE",
"510 81 LINE",
"694 -103 LINE"
);
}
);
width = 1387;
}
);
unicode = 25CA;
},
{
glyphname = dieresiscomb;
lastChange = "2021-04-21 21:23:08 +0000";
layers = (
{
layerId = "A833981A-68C5-4528-81CD-92C717829696";
paths = (
{
closed = 1;
nodes = (
"260 1070 OFFCURVE",
"320 1128 OFFCURVE",
"320 1202 CURVE SMOOTH",
"320 1274 OFFCURVE",
"260 1330 OFFCURVE",
"190 1330 CURVE SMOOTH",
"118 1330 OFFCURVE",
"60 1274 OFFCURVE",
"60 1202 CURVE SMOOTH",
"60 1128 OFFCURVE",
"118 1070 OFFCURVE",
"190 1070 CURVE SMOOTH"
);
},
{
closed = 1;
nodes = (
"840 1070 OFFCURVE",
"900 1128 OFFCURVE",
"900 1202 CURVE SMOOTH",
"900 1274 OFFCURVE",
"840 1330 OFFCURVE",
"770 1330 CURVE SMOOTH",
"698 1330 OFFCURVE",
"640 1274 OFFCURVE",
"640 1202 CURVE SMOOTH",
"640 1128 OFFCURVE",
"698 1070 OFFCURVE",
"770 1070 CURVE SMOOTH"
);
}
);
width = 960;
}
);
unicode = 0308;
},
{
glyphname = dotaccentcomb;
lastChange = "2021-04-21 21:49:16 +0000";
layers = (
{
layerId = "A833981A-68C5-4528-81CD-92C717829696";
paths = (
{
closed = 1;
nodes = (
"450 1070 OFFCURVE",
"510 1128 OFFCURVE",
"510 1202 CURVE SMOOTH",
"510 1274 OFFCURVE",
"450 1330 OFFCURVE",
"380 1330 CURVE SMOOTH",
"308 1330 OFFCURVE",
"250 1274 OFFCURVE",
"250 1202 CURVE SMOOTH",
"250 1128 OFFCURVE",
"308 1070 OFFCURVE",
"380 1070 CURVE SMOOTH"
);
}
);
width = 760;
}
);
unicode = 0307;
},
{
glyphname = gravecomb;
lastChange = "2021-04-21 21:31:40 +0000";
layers = (
{
layerId = "A833981A-68C5-4528-81CD-92C717829696";
paths = (
{
closed = 1;
nodes = (
"694 1101 LINE",
"458 1299 LINE",
"250 1299 LINE",
"384 1101 LINE"
);
}
);
width = 944;
}
);
unicode = 0300;
},
{
glyphname = acutecomb;
lastChange = "2021-04-21 20:55:22 +0000";
layers = (
{
layerId = "A833981A-68C5-4528-81CD-92C717829696";
paths = (
{
closed = 1;
nodes = (
"608 1099 LINE",
"804 1301 LINE",
"544 1301 LINE",
"388 1099 LINE"
);
}
);
width = 1100;
}
);
unicode = 0301;
},
{
glyphname = hungarumlautcomb;
lastChange = "2021-04-21 22:18:32 +0000";
layers = (
{
layerId = "A833981A-68C5-4528-81CD-92C717829696";
paths = (
{
closed = 1;
nodes = (
"498 1327 LINE",
"294 1327 LINE",
"190 1073 LINE",
"394 1073 LINE"
);
},
{
closed = 1;
nodes = (
"796 1327 LINE",
"590 1327 LINE",
"486 1073 LINE",
"692 1073 LINE"
);
}
);
width = 986;
}
);
unicode = 030B;
},
{
glyphname = circumflexcomb;
lastChange = "2021-04-21 21:06:27 +0000";
layers = (
{
layerId = "A833981A-68C5-4528-81CD-92C717829696";
paths = (
{
closed = 1;
nodes = (
"594 1101 LINE",
"840 1101 LINE",
"644 1299 LINE",
"440 1299 LINE"
);
},
{
closed = 1;
nodes = (
"200 1101 LINE",
"408 1101 LINE",
"644 1299 LINE",
"334 1299 LINE"
);
}
);
width = 1040;
}
);
unicode = 0302;
},
{
glyphname = caroncomb;
lastChange = "2021-04-21 20:56:39 +0000";
layers = (
{
layerId = "A833981A-68C5-4528-81CD-92C717829696";
paths = (
{
closed = 1;
nodes = (
"668 1099 LINE",
"864 1301 LINE",
"618 1301 LINE",
"464 1099 LINE"
);
},
{
closed = 1;
nodes = (
"668 1099 LINE",
"432 1297 LINE",
"224 1297 LINE",
"358 1099 LINE"
);
}
);
width = 1200;
}
);
unicode = 030C;
},
{
glyphname = brevecomb;
lastChange = "2021-04-21 21:00:08 +0000";
layers = (
{
layerId = "A833981A-68C5-4528-81CD-92C717829696";
paths = (
{
closed = 1;
nodes = (
"800 1296 LINE",
"200 1296 LINE",
"200 1104 LINE",
"800 1104 LINE"
);
}
);
width = 1000;
}
);
unicode = 0306;
},
{
glyphname = ringcomb;
lastChange = "2021-04-21 21:58:11 +0000";
layers = (
{
layerId = "A833981A-68C5-4528-81CD-92C717829696";
paths = (
{
closed = 1;
nodes = (
"572 1146 OFFCURVE",
"620 1068 OFFCURVE",
"720 1068 CURVE SMOOTH",
"816 1068 OFFCURVE",
"900 1142 OFFCURVE",
"900 1236 CURVE SMOOTH",
"900 1328 OFFCURVE",
"816 1400 OFFCURVE",
"720 1400 CURVE SMOOTH",
"620 1400 OFFCURVE",
"572 1332 OFFCURVE",
"572 1240 CURVE SMOOTH"
);
},
{
closed = 1;
nodes = (
"648 1290 OFFCURVE",
"686 1332 OFFCURVE",
"730 1332 CURVE SMOOTH",
"776 1332 OFFCURVE",
"812 1290 OFFCURVE",
"812 1238 CURVE SMOOTH",
"812 1188 OFFCURVE",
"776 1146 OFFCURVE",
"730 1146 CURVE SMOOTH",
"686 1146 OFFCURVE",
"648 1188 OFFCURVE",
"648 1238 CURVE SMOOTH"
);
}
);
width = 960;
}
);
unicode = 030A;
},
{
glyphname = tildecomb;
lastChange = "2021-04-21 21:53:37 +0000";
layers = (
{
layerId = "A833981A-68C5-4528-81CD-92C717829696";
paths = (
{
closed = 1;
nodes = (
"420 1122 LINE",
"420 1300 OFFCURVE",
"778 900 OFFCURVE",
"778 1300 CURVE",
"558 1300 LINE",
"558 1134 OFFCURVE",
"200 1500 OFFCURVE",
"200 1122 CURVE"
);
}
);
width = 1128;
}
);
unicode = 0303;
},
{
glyphname = macroncomb;
lastChange = "2021-04-21 20:54:17 +0000";
layers = (
{
layerId = "A833981A-68C5-4528-81CD-92C717829696";
paths = (
{
closed = 1;
nodes = (
"200 1122 LINE",
"764 1122 LINE",
"764 1278 LINE",
"200 1278 LINE"
);
}
);
width = 964;
}
);
unicode = 0304;
},
{
glyphname = commaturnedabovecomb;
lastChange = "2021-04-19 19:10:11 +0000";
layers = (
{
layerId = "A833981A-68C5-4528-81CD-92C717829696";
paths = (
{
closed = 1;
nodes = (
"135 459 LINE",
"369 459 LINE",
"369 695 LINE",
"135 695 LINE"
);
},
{
closed = 1;
nodes = (
"179 941 OFFCURVE",
"137 839 OFFCURVE",
"135 695 CURVE",
"243 695 LINE",
"243 839 OFFCURVE",
"265 877 OFFCURVE",
"295 877 CURVE",
"295 941 LINE"
);
}
);
width = 1200;
}
);
unicode = 0312;
},
{
glyphname = commaaccentcomb;
lastChange = "2021-04-21 22:11:40 +0000";
layers = (
{
layerId = "A833981A-68C5-4528-81CD-92C717829696";
paths = (
{
closed = 1;
nodes = (
"190 -360 LINE",
"450 -360 LINE",
"610 -38 LINE",
"350 -38 LINE"
);
}
);
width = 820;
}
);
unicode = 0326;
},
{
glyphname = cedillacomb;
lastChange = "2021-04-19 19:10:17 +0000";
layers = (
{
layerId = "A833981A-68C5-4528-81CD-92C717829696";
paths = (
{
closed = 1;
nodes = (
"332 94 OFFCURVE",
"260 -22 OFFCURVE",
"104 -22 CURVE",
"300 -158 LINE",
"524 -160 OFFCURVE",
"608 92 OFFCURVE",
"608 180 CURVE",
"332 180 LINE"
);
}
);
width = 1200;
}
);
unicode = 0327;
},
{
glyphname = ogonekcomb;
lastChange = "2021-04-21 22:01:13 +0000";
layers = (
{
layerId = "A833981A-68C5-4528-81CD-92C717829696";
paths = (
{
closed = 1;
nodes = (
"399 0 OFFCURVE",
"311 0 OFFCURVE",
"226 0 CURVE",
"226 -200 OFFCURVE",
"397 -365 OFFCURVE",
"592 -400 CURVE",
"686 -190 LINE",
"574 -190 OFFCURVE",
"486 -88 OFFCURVE",
"486 0 CURVE"
);
}
);
width = 1200;
}
);
unicode = 0328;
},
{
glyphname = strokeshortcomb;
lastChange = "2021-04-22 20:56:09 +0000";
layers = (
{
layerId = "A833981A-68C5-4528-81CD-92C717829696";
paths = (
{
closed = 1;
nodes = (
"60 219 LINE",
"698 219 LINE",
"698 459 LINE",
"60 459 LINE"
);
}
);
width = 758;
}
);
unicode = 0335;
},
{
glyphname = strokelongcomb;
lastChange = "2021-04-19 19:10:28 +0000";
layers = (
{
layerId = "A833981A-68C5-4528-81CD-92C717829696";
paths = (
{
closed = 1;
nodes = (
"74 215 LINE",
"824 215 LINE",
"824 373 LINE",
"74 373 LINE"
);
}
);
width = 1200;
}
);
unicode = 0336;
},
{
glyphname = slashshortcomb;
lastChange = "2021-04-19 19:10:31 +0000";
layers = (
{
layerId = "A833981A-68C5-4528-81CD-92C717829696";
paths = (
{
closed = 1;
nodes = (
"42 246 LINE",
"302 246 LINE",
"896 686 LINE",
"634 686 LINE"
);
},
{
closed = 1;
nodes = (
"634 686 LINE",
"896 686 LINE",
"896 786 LINE",
"634 786 LINE"
);
}
);
width = 1200;
}
);
unicode = 0337;
},
{
glyphname = slashlongcomb;
lastChange = "2021-04-19 19:10:33 +0000";
layers = (
{
layerId = "A833981A-68C5-4528-81CD-92C717829696";
paths = (
{
closed = 1;
nodes = (
"42 0 LINE",
"302 0 LINE",
"896 1332 LINE",
"634 1332 LINE"
);
},
{
closed = 1;
nodes = (
"634 1332 LINE",
"896 1332 LINE",
"896 1432 LINE",
"634 1432 LINE"
);
}
);
width = 1200;
}
);
unicode = 0338;
},
{
glyphname = acute;
lastChange = "2021-04-21 20:55:31 +0000";
layers = (
{
layerId = "A833981A-68C5-4528-81CD-92C717829696";
paths = (
{
closed = 1;
nodes = (
"608 1099 LINE",
"804 1301 LINE",
"544 1301 LINE",
"388 1099 LINE"
);
}
);
width = 1200;
}
);
unicode = 00B4;
},
{
glyphname = dieresiscomb.case;
lastChange = "2021-04-21 21:24:46 +0000";
layers = (
{
layerId = "A833981A-68C5-4528-81CD-92C717829696";
paths = (
{
closed = 1;
nodes = (
"260 1470 OFFCURVE",
"320 1528 OFFCURVE",
"320 1602 CURVE SMOOTH",
"320 1674 OFFCURVE",
"260 1730 OFFCURVE",
"190 1730 CURVE SMOOTH",
"118 1730 OFFCURVE",
"60 1674 OFFCURVE",
"60 1602 CURVE SMOOTH",
"60 1528 OFFCURVE",
"118 1470 OFFCURVE",
"190 1470 CURVE SMOOTH"
);
},
{
closed = 1;
nodes = (
"840 1470 OFFCURVE",
"900 1528 OFFCURVE",
"900 1602 CURVE SMOOTH",
"900 1674 OFFCURVE",
"840 1730 OFFCURVE",
"770 1730 CURVE SMOOTH",
"698 1730 OFFCURVE",
"640 1674 OFFCURVE",
"640 1602 CURVE SMOOTH",
"640 1528 OFFCURVE",
"698 1470 OFFCURVE",
"770 1470 CURVE SMOOTH"
);
}
);
width = 960;
}
);
},
{
glyphname = dotaccentcomb.case;
lastChange = "2021-04-21 21:50:21 +0000";
layers = (
{
layerId = "A833981A-68C5-4528-81CD-92C717829696";
paths = (
{
closed = 1;
nodes = (
"450 1470 OFFCURVE",
"510 1528 OFFCURVE",
"510 1602 CURVE SMOOTH",
"510 1674 OFFCURVE",
"450 1730 OFFCURVE",
"380 1730 CURVE SMOOTH",
"308 1730 OFFCURVE",
"250 1674 OFFCURVE",
"250 1602 CURVE SMOOTH",
"250 1528 OFFCURVE",
"308 1470 OFFCURVE",
"380 1470 CURVE SMOOTH"
);
}
);
width = 760;
}
);
},
{
glyphname = gravecomb.case;
lastChange = "2021-04-21 22:16:58 +0000";
layers = (
{
layerId = "A833981A-68C5-4528-81CD-92C717829696";
paths = (
{
closed = 1;
nodes = (
"694 1438 LINE",
"458 1636 LINE",
"250 1636 LINE",
"384 1438 LINE"
);
}
);
width = 944;
}
);
},
{
glyphname = circumflexcomb.case;
lastChange = "2021-04-21 22:14:02 +0000";
layers = (
{
layerId = "A833981A-68C5-4528-81CD-92C717829696";
paths = (
{
closed = 1;
nodes = (
"594 1438 LINE",
"840 1438 LINE",
"644 1636 LINE",
"440 1636 LINE"
);
},
{
closed = 1;
nodes = (
"200 1438 LINE",
"408 1438 LINE",
"644 1636 LINE",
"334 1636 LINE"
);
}
);
width = 1040;
}
);
},
{
glyphname = caroncomb.case;
lastChange = "2021-04-21 22:14:21 +0000";
layers = (
{
layerId = "A833981A-68C5-4528-81CD-92C717829696";
paths = (
{
closed = 1;
nodes = (
"618 1436 LINE",
"814 1636 LINE",
"568 1636 LINE",
"414 1436 LINE"
);
},
{
closed = 1;
nodes = (
"618 1436 LINE",
"382 1636 LINE",
"174 1636 LINE",
"308 1436 LINE"
);
}
);
width = 960;
}
);
},
{
glyphname = tildecomb.case;
lastChange = "2021-04-21 21:54:12 +0000";
layers = (
{
layerId = "A833981A-68C5-4528-81CD-92C717829696";
paths = (
{
closed = 1;
nodes = (
"420 1522 LINE",
"420 1700 OFFCURVE",
"778 1300 OFFCURVE",
"778 1700 CURVE",
"558 1700 LINE",
"558 1534 OFFCURVE",
"200 1900 OFFCURVE",
"200 1522 CURVE"
);
}
);
width = 978;
}
);
},
{
glyphname = macroncomb.case;
lastChange = "2021-04-21 20:54:01 +0000";
layers = (
{
layerId = "A833981A-68C5-4528-81CD-92C717829696";
paths = (
{
closed = 1;
nodes = (
"200 1444 LINE",
"764 1444 LINE",
"764 1600 LINE",
"200 1600 LINE"
);
}
);
width = 964;
}
);
},
{
glyphname = acute.case;
lastChange = "2021-04-21 22:13:16 +0000";
layers = (
{
layerId = "A833981A-68C5-4528-81CD-92C717829696";
paths = (
{
closed = 1;
nodes = (
"578 1426 LINE",
"774 1626 LINE",
"514 1626 LINE",
"358 1426 LINE"
);
}
